<svg xmlns="http://www.w3.org/2000/svg" width="539" height="501" fill="none" viewBox="0 0 539 501"><g stroke="#C81426" opacity=".1"><path d="M288.784 18.34c16.449 5.723 30.107 16.338 43.73 27.282l2.129 1.712c12.895 10.378 25.887 20.833 41.244 27.343 15.847 6.717 33.689 8.406 51.256 10.07 3.481.329 6.951.657 10.392 1.024 20.86 2.22 40.698 5.83 55.947 19.311 30.26 26.752 49.281 71.626 43.243 111.516-3.114 20.567-18.935 35.118-35.583 49.667l-2.146 1.872c-15.917 13.88-32.096 27.988-37.615 47.503-3.008 10.638-2.191 21.861.291 33.226 2.022 9.259 5.158 18.651 8.254 27.922.702 2.101 1.402 4.197 2.086 6.283 3.71 11.309 6.964 22.353 7.69 32.761.726 10.393-1.073 20.122-7.446 28.83-12.054 16.468-31.947 19.261-54.044 19.102-5.516-.039-11.157-.262-16.836-.498l-1.126-.047c-5.306-.221-10.64-.443-15.919-.526-11.303-.177-22.392.281-32.496 2.763-14.488 3.559-28.184 9.506-41.77 15.404-2.758 1.197-5.511 2.393-8.266 3.566-16.344 6.96-32.746 13.143-50.506 14.407-19.083 1.358-39.303 2.453-58.596.385-19.291-2.067-37.621-7.294-52.94-18.555-15.346-11.28-22.366-28.864-28.436-47.594-.863-2.664-1.707-5.351-2.554-8.046-5.089-16.202-10.263-32.674-20.207-45.93-6.18-8.237-14.386-15.058-23.288-21.281-5.622-3.931-11.549-7.64-17.424-11.318-3.413-2.136-6.81-4.262-10.119-6.414C19.653 328.325 4.06 315.716.994 295.751c-3.058-19.913 8.534-36.395 22.518-52.899a781.12 781.12 0 0 1 6.44-7.473c5.01-5.767 10.072-11.591 14.629-17.595 6.537-8.614 12.076-17.644 14.998-27.505 5.25-17.716 3.43-36.905 1.638-55.778-.236-2.484-.471-4.962-.69-7.431-1.884-21.285-2.532-41.873 8.126-59.512 21.195-35.076 63.363-54.863 103.499-63.852 38.664-8.659 79.081 1.567 116.632 14.634z"/><path d="M286.311 45.191c14.485 5.055 26.516 14.428 38.522 24.1l1.878 1.515c11.363 9.17 22.819 18.414 36.361 24.17 13.976 5.94 29.712 7.434 45.193 8.903 3.067.291 6.124.582 9.155.905 18.384 1.963 35.85 5.151 49.274 17.051 26.656 23.63 43.41 63.267 38.091 98.497-2.74 18.151-16.665 30.997-31.34 43.857l-1.896 1.658c-14.024 12.262-28.295 24.74-33.163 42.003-2.655 9.414-1.933 19.341.255 29.389 1.782 8.186 4.548 16.49 7.277 24.683.618 1.857 1.235 3.708 1.838 5.551 3.269 9.994 6.135 19.747 6.774 28.937.639 9.175-.944 17.758-6.551 25.44-10.604 14.528-28.108 16.997-47.582 16.857-4.86-.035-9.83-.232-14.835-.44l-.989-.042c-4.677-.195-9.38-.391-14.034-.465-9.964-.157-19.743.248-28.655 2.444-12.773 3.146-24.85 8.404-36.823 13.616-2.43 1.058-4.856 2.114-7.283 3.15-14.404 6.151-28.851 11.611-44.492 12.727-16.818 1.201-34.633 2.168-51.631.341-16.995-1.826-33.138-6.443-46.628-16.386-13.507-9.956-19.69-25.479-25.039-42.031a781.67 781.67 0 0 1-2.25-7.108c-4.485-14.317-9.048-28.885-17.819-40.608-5.451-7.286-12.69-13.318-20.537-18.819-4.956-3.474-10.181-6.754-15.36-10.005-3.008-1.887-6-3.765-8.915-5.666-15.932-10.388-29.652-21.519-32.35-39.135-2.69-17.569 7.508-32.116 19.833-46.702a696.003 696.003 0 0 1 5.674-6.601c4.416-5.097 8.879-10.247 12.896-15.554 5.763-7.615 10.649-15.601 13.227-24.325 4.63-15.667 3.024-32.636 1.446-49.313-.208-2.196-.415-4.386-.608-6.567-1.66-18.811-2.229-36.987 7.154-52.557 18.666-30.977 55.811-48.458 91.177-56.4 34.057-7.647 69.662 1.384 102.755 12.93z"/><path d="M283.76 74.743c12.352 4.323 22.612 12.34 32.863 20.623l1.605 1.299c9.698 7.849 19.485 15.77 31.055 20.703 11.942 5.091 25.389 6.371 38.605 7.629 2.617.249 5.225.497 7.811.774 15.693 1.68 30.581 4.409 42.022 14.581 22.739 20.218 37.029 54.133 32.493 84.27-2.334 15.512-14.199 26.494-26.73 37.508l-1.624 1.424c-11.966 10.494-24.164 21.191-28.326 35.993-2.271 8.076-1.653 16.589.216 25.198 1.523 7.013 3.885 14.127 6.215 21.142a875.154 875.154 0 0 1 1.568 4.751c2.791 8.557 5.235 16.901 5.78 24.759.544 7.844-.805 15.176-5.579 21.735-9.029 12.407-23.935 14.523-40.558 14.403-4.148-.03-8.389-.198-12.662-.377l-.842-.035c-3.993-.167-8.01-.335-11.985-.398-8.507-.134-16.863.212-24.48 2.094-10.911 2.696-21.227 7.2-31.448 11.663-2.074.906-4.145 1.81-6.215 2.697-12.295 5.266-24.618 9.936-37.957 10.891-14.357 1.028-29.559 1.856-44.062.292-14.5-1.563-28.267-5.513-39.768-14.016-11.511-8.509-16.783-21.779-21.35-35.951-.648-2.014-1.283-4.046-1.92-6.084-3.828-12.258-7.727-24.744-15.222-34.792-4.66-6.248-10.846-11.417-17.548-16.129-4.232-2.976-8.696-5.786-13.118-8.57-2.568-1.616-5.121-3.223-7.607-4.849-13.6-8.895-25.286-18.41-27.584-33.458-2.291-15.009 6.392-27.441 16.915-39.931a590.714 590.714 0 0 1 4.84-5.649c3.772-4.365 7.584-8.777 11.014-13.323 4.923-6.523 9.099-13.369 11.304-20.85 3.957-13.429 2.584-27.973 1.236-42.25-.177-1.88-.354-3.755-.518-5.622-1.418-16.107-1.9-31.647 6.096-44.957 15.92-26.498 47.605-41.458 77.788-48.256 29.051-6.543 59.428 1.183 87.677 11.069z"/><path d="M280.996 106.982c10.041 3.525 18.384 10.063 26.732 16.829l1.31 1.063c7.895 6.409 15.873 12.887 25.307 16.921 9.739 4.165 20.706 5.212 31.468 6.239 2.13.203 4.252.406 6.355.632 12.778 1.372 24.873 3.599 34.165 11.887 18.496 16.496 30.118 44.167 26.43 68.749-1.896 12.632-11.529 21.582-21.737 30.581l-1.329 1.17c-9.738 8.566-19.69 17.32-23.086 29.436-1.855 6.617-1.349 13.587.175 20.625 1.241 5.734 3.167 11.55 5.063 17.28.43 1.298.858 2.592 1.277 3.879 2.272 6.989 4.259 13.795 4.702 20.201.442 6.392-.655 12.358-4.526 17.694-7.323 10.093-19.415 11.824-32.95 11.726-3.375-.025-6.827-.162-10.307-.308l-.684-.029c-3.252-.136-6.524-.274-9.763-.325-6.93-.11-13.743.173-19.958 1.713-8.893 2.204-17.302 5.887-25.625 9.532-1.688.74-3.373 1.478-5.058 2.202-10.01 4.3-20.033 8.11-30.877 8.888-11.691.84-24.062 1.515-35.863.239-11.797-1.275-22.989-4.498-32.336-11.43-9.347-6.931-13.633-17.743-17.352-29.319-.528-1.643-1.044-3.302-1.563-4.966-3.116-10.011-6.296-20.227-12.41-28.448-3.803-5.114-8.849-9.344-14.31-13.195-3.447-2.431-7.086-4.729-10.689-7.004-2.09-1.32-4.168-2.632-6.189-3.958-11.075-7.265-20.557-15.017-22.421-27.266-1.859-12.214 5.183-22.339 13.753-32.542 1.287-1.533 2.61-3.068 3.939-4.612 3.071-3.565 6.179-7.173 8.974-10.889 4.012-5.332 7.42-10.934 9.219-17.059 3.227-10.987 2.108-22.885 1.01-34.544-.144-1.535-.288-3.066-.422-4.591-1.155-13.157-1.543-25.823 4.952-36.666 12.944-21.611 38.715-33.822 63.282-39.372 23.628-5.339 48.342.963 71.342 9.037z"/><path d="M278.232 139.221c7.73 2.726 14.156 7.785 20.601 13.034l1.015.828c6.091 4.969 12.261 10.003 19.559 13.139 7.536 3.239 16.023 4.053 24.33 4.849 1.643.158 3.279.315 4.899.49 9.863 1.064 19.166 2.79 26.309 9.192 14.253 12.773 23.207 34.202 20.366 53.23-1.456 9.752-8.857 16.669-16.742 23.654l-1.035.915c-7.509 6.637-15.215 13.449-17.846 22.88-1.439 5.157-1.044 10.584.133 16.052.96 4.454 2.449 8.972 3.913 13.417.331 1.007.662 2.009.984 3.006 1.754 5.422 3.284 10.689 3.625 15.644.34 4.941-.504 9.54-3.473 13.652-5.617 7.78-14.895 9.125-25.341 9.049-2.603-.019-5.266-.126-7.952-.239l-.532-.022c-2.509-.106-5.035-.212-7.536-.252-5.352-.086-10.624.134-15.436 1.332-6.875 1.712-13.377 4.574-19.801 7.402-1.303.573-2.603 1.145-3.902 1.706-7.726 3.335-15.447 6.283-23.798 6.886-9.024.651-18.564 1.174-27.662.185-9.094-.988-17.711-3.484-24.905-8.844-7.183-5.353-10.484-13.707-13.355-22.687a449.744 449.744 0 0 1-1.204-3.849c-2.406-7.764-4.867-15.709-9.598-22.103-2.946-3.981-6.852-7.269-11.072-10.26-2.663-1.887-5.477-3.673-8.26-5.439a321.702 321.702 0 0 1-4.772-3.066c-8.549-5.636-15.827-11.625-17.258-21.074-1.427-9.42 3.975-17.239 10.592-25.156a362.97 362.97 0 0 1 3.037-3.572c2.372-2.768 4.774-5.571 6.935-8.456 3.1-4.141 5.739-8.499 7.133-13.268 2.498-8.544 1.631-17.796.784-26.838-.111-1.191-.223-2.378-.326-3.56-.891-10.208-1.185-19.999 3.808-28.375 9.969-16.726 29.825-26.187 48.776-30.489 18.205-4.133 37.255.745 55.007 7.007z"/><path d="M274.857 178.036c4.946 1.759 9.064 5.026 13.218 8.438l.659.542c3.919 3.225 7.912 6.511 12.637 8.558 4.883 2.116 10.384 2.648 15.736 3.166 1.056.102 2.107.203 3.145.316 6.352.692 12.292 1.81 16.848 5.927 9.143 8.264 14.884 22.13 13.063 34.429-.927 6.264-5.641 10.718-10.728 15.263l-.679.606c-4.826 4.301-9.827 8.759-11.536 14.937-.938 3.388-.678 6.945.083 10.511.62 2.903 1.583 5.85 2.527 8.738.213.653.425 1.303.632 1.948 1.13 3.523 2.109 6.927 2.327 10.123.218 3.182-.322 6.127-2.205 8.757-3.562 4.976-9.452 5.854-16.178 5.805-1.673-.013-3.386-.082-5.116-.155l-.341-.015c-1.617-.068-3.247-.138-4.861-.164-3.453-.055-6.868.087-9.991.871-4.445 1.117-8.65 2.983-12.789 4.821-.838.372-1.674.743-2.508 1.106-4.975 2.166-9.925 4.07-15.272 4.459-5.813.423-11.944.762-17.787.121-5.839-.64-11.355-2.254-15.955-5.711-4.578-3.44-6.692-8.817-8.541-14.652-.262-.824-.517-1.657-.774-2.495-1.549-5.042-3.144-10.236-6.211-14.416-1.913-2.608-4.447-4.758-7.172-6.705-1.719-1.228-3.539-2.394-5.336-3.543a221.333 221.333 0 0 1-3.064-1.986c-5.507-3.662-10.132-7.515-11.041-13.572-.907-6.037 2.52-11.061 6.785-16.207.635-.767 1.291-1.538 1.95-2.314 1.53-1.8 3.084-3.629 4.479-5.508 2.003-2.698 3.717-5.549 4.623-8.676 1.619-5.584 1.057-11.631.511-17.5a421.79 421.79 0 0 1-.21-2.311c-.574-6.635-.755-12.943 2.43-18.333 6.386-10.805 19.12-16.935 31.308-19.725 11.673-2.673 23.903.479 35.334 4.546z"/></g></svg>