<svg xmlns="http://www.w3.org/2000/svg" width="208" height="208" fill="none" viewBox="0 0 208 208"><g filter="url(#filter0_d)"><g clip-path="url(#clip0)"><path fill="#212121" d="M57.035 72.53c0-.183-.06-.365-.121-.67l-3.838-10.483c-.487-1.28-1.157-1.829-2.193-1.829-1.096 0-1.766.549-2.193 1.829L44.792 71.86c-.122.365-.183.548-.183.67 0 .549.426.975 1.036.975.487 0 .852-.243 1.096-.853l1.28-3.596h5.725l1.28 3.596c.182.61.548.853 1.035.853.548.061.974-.426.974-.975zm-8.406-5.302l1.889-5.424c.06-.183.122-.244.304-.244.122 0 .183.06.244.243l1.888 5.425H48.63zm25.889 6.216h4.142c2.68 0 4.325-1.584 4.325-4.327 0-2.62-1.584-4.083-4.325-4.083h-3.655v-3.352h6.091c.67 0 1.097-.366 1.097-1.037 0-.609-.427-.975-1.097-.975h-6.64c-1.035 0-1.644.549-1.644 1.646v10.483c.122 1.097.67 1.645 1.706 1.645zm.548-6.521h3.411c1.584 0 2.315.853 2.315 2.255 0 1.463-.731 2.316-2.315 2.316h-3.411v-4.571zm-23.94 19.076h-4.08v-4.266h6.761c.426 0 .792-.244.792-.67 0-.427-.305-.67-.792-.67h-6.944c-.792 0-1.218.426-1.218 1.218v11.397c0 .793.426 1.22 1.218 1.22h4.264c2.62 0 4.142-1.524 4.142-4.145 0-2.62-1.523-4.084-4.142-4.084zm-.182 6.826h-3.898V87.28h3.898c2.01 0 2.863.975 2.863 2.743 0 1.767-.792 2.803-2.863 2.803zm10.05-9.142c-1.217 0-2.375.305-2.984.61-.426.183-.609.366-.609.731 0 .366.305.61.61.61.182 0 .365-.061.547-.183.488-.183 1.401-.488 2.315-.488 1.767 0 2.62.732 2.62 2.316v.975c-1.097-.304-1.889-.426-2.864-.426-2.619 0-3.898 1.523-3.898 3.169 0 2.011 1.523 3.291 3.837 3.291 1.95 0 3.473-.67 4.02-1.097.245-.183.305-.305.305-.61v-5.363c-.06-2.377-1.522-3.535-3.898-3.535zm2.438 8.655c-.792.427-1.828.731-2.742.731-1.705 0-2.68-.731-2.68-2.011 0-1.158.853-1.95 2.68-1.95.914 0 1.706.122 2.742.426v2.804zm36.304-29.376c-1.827 0-3.29.67-3.838.975-.487.304-.548.487-.548 1.28V75.82c0 .67.427 1.097 1.036 1.097s1.035-.426 1.035-1.097V73.08c.61.304 1.584.548 2.498.548 2.436 0 4.081-1.584 4.264-3.9.061-.793.061-2.073 0-2.865-.183-2.316-1.828-3.9-4.447-3.9zm2.376 6.46c-.122 1.34-.975 2.194-2.437 2.194-.792 0-1.766-.244-2.254-.61v-5.485c.488-.365 1.462-.61 2.254-.61 1.523 0 2.315.915 2.437 2.195.061.731.061 1.585 0 2.316zm-35.026 2.316l-3.594-3.596 3.411-3.413c.244-.244.427-.549.427-.853 0-.488-.365-.854-.914-.854-.304 0-.548.122-.792.427l-3.533 3.474c-.182.183-.365.305-.67.305h-.73V64.18c0-.67-.427-1.097-1.036-1.097-.61 0-1.036.427-1.036 1.097v8.228c0 .67.427 1.097 1.036 1.097s1.035-.426 1.035-1.097v-3.29h.61c.243 0 .487.121.67.304l3.715 3.718c.305.304.549.426.853.426.548 0 .914-.365.914-.914 0-.366-.122-.61-.366-.914zm46.782-2.072c-.487 0-.731.304-.914.61-.365.791-1.096 1.34-2.193 1.34-1.462 0-2.375-.914-2.497-2.194a13.918 13.918 0 0 1 0-2.255c.122-1.341.975-2.194 2.497-2.194 1.036 0 1.828.548 2.193 1.34.183.305.427.61.914.61.609 0 1.036-.366 1.036-.975 0-.305-.122-.61-.305-.975-.609-1.158-1.949-2.011-3.838-2.011-2.558 0-4.264 1.645-4.507 3.961a21.493 21.493 0 0 0 0 2.804c.243 2.316 1.949 3.961 4.507 3.961 1.889 0 3.229-.914 3.838-2.072.183-.366.305-.67.305-.975-.061-.61-.427-.975-1.036-.975zm-25.157-6.704c-1.158 0-2.193.304-2.863.548-.549.244-.792.548-.792.975 0 .488.365.914.853.914.243 0 .487-.121.791-.183.427-.182 1.158-.365 1.889-.365 1.584 0 2.254.61 2.254 1.828v.853c-.914-.243-1.706-.365-2.559-.365-2.619 0-3.898 1.523-3.898 3.108 0 1.89 1.462 3.352 3.96 3.352 1.948 0 3.471-.67 4.08-1.097.305-.183.366-.365.366-.792v-5.059c.06-2.56-1.462-3.718-4.081-3.718zm2.132 8.35c-.61.304-1.462.548-2.254.548-1.34 0-2.193-.61-2.193-1.585 0-.914.73-1.646 2.193-1.646.792 0 1.462.122 2.314.366v2.316h-.06zm-8.65 17.613l3.96-3.962a.745.745 0 0 0 .243-.548.61.61 0 0 0-.61-.61.744.744 0 0 0-.547.244l-3.899 3.9c-.244.245-.426.366-.73.366h-.67v-3.717c0-.488-.245-.732-.671-.732-.426 0-.67.244-.67.732v9.02c0 .487.244.731.67.731.426 0 .67-.244.67-.731v-4.023h.731c.305 0 .548.122.731.366l4.142 4.144a.744.744 0 0 0 .548.244.61.61 0 0 0 .61-.61c0-.243-.061-.365-.305-.609l-4.203-4.205zm-7.066-5.18c-.426 0-.67.243-.67.73v3.719H68.73v-3.718c0-.488-.244-.732-.67-.732-.427 0-.67.244-.67.732v9.02c0 .487.243.731.67.731.426 0 .67-.244.67-.731v-4.023h5.726v4.023c0 .487.244.731.67.731.426 0 .67-.244.67-.731v-9.02c0-.427-.244-.732-.67-.732z"/><path fill="#009B3A" d="M114.782 121.775l-9.32 1.707c-1.523.304-2.558 1.767-2.315 3.291.305 1.524 1.767 2.56 3.29 2.316l9.319-1.707c2.193-.426 3.594.915 4.142 2.316.549 1.402.427 3.291-1.461 4.51l-13.645 8.899c-1.279.853-2.802.853-4.142.182a4.033 4.033 0 0 1-2.132-3.595v-21.88c0-3.657-1.889-6.826-5.117-8.594-3.167-1.767-6.944-1.584-9.99.366l-34.477 22.367c-3.898 2.499-5.36 7.07-3.655 11.397 1.706 4.328 5.909 6.644 10.477 5.851l30.092-5.424c1.523-.305 2.558-1.767 2.314-3.291-.304-1.524-1.766-2.56-3.289-2.316l-30.091 5.424c-2.254.427-3.594-.914-4.142-2.316-.549-1.402-.427-3.291 1.462-4.51l34.477-22.367c1.279-.854 2.802-.854 4.142-.183a4.033 4.033 0 0 1 2.132 3.596v21.88c0 3.656 1.888 6.826 5.117 8.593 1.462.792 3.106 1.219 4.69 1.219 1.827 0 3.655-.548 5.299-1.585l13.706-8.898c3.898-2.499 5.36-7.07 3.655-11.397-1.767-4.327-5.97-6.704-10.538-5.851zm48.243 5.79c-1.705-4.327-5.908-6.643-10.477-5.851l-9.32 1.707c-1.522.305-2.558 1.767-2.314 3.291.304 1.524 1.766 2.56 3.289 2.316l9.32-1.707c2.193-.426 3.594.915 4.142 2.316.548 1.402.426 3.291-1.462 4.51l-13.645 8.96c-1.279.853-2.802.853-4.142.182a4.033 4.033 0 0 1-2.132-3.595v-28.828a2.86 2.86 0 0 0-2.863-2.865 2.861 2.861 0 0 0-2.863 2.865v28.828c0 3.656 1.889 6.826 5.117 8.593 1.462.792 3.107 1.219 4.69 1.219 1.828 0 3.655-.548 5.3-1.585l13.706-8.898c3.898-2.56 5.36-7.131 3.654-11.458z"/></g></g><defs><filter id="filter0_d" width="216" height="216" x="-4" y="0" color-interpolation-filters="sRGB" filterUnits="userSpaceOnUse"><feFlood flood-opacity="0" result="BackgroundImageFix"/><feColorMatrix in="SourceAlpha" values="0 0 0 0 0 0 0 0 0 0 0 0 0 0 0 0 0 0 127 0"/><feOffset dy="4"/><feGaussianBlur stdDeviation="2"/><feColorMatrix values="0 0 0 0 0 0 0 0 0 0 0 0 0 0 0 0 0 0 0.25 0"/><feBlend in2="BackgroundImageFix" result="effect1_dropShadow"/><feBlend in="SourceGraphic" in2="effect1_dropShadow" result="shape"/></filter><clipPath id="clip0"><path fill="#fff" d="M0 0h120v90.811H0z" transform="translate(44 59)"/></clipPath></defs></svg>