<svg xmlns="http://www.w3.org/2000/svg" width="180" height="180" fill="none" viewBox="0 0 180 180"><g stroke="#C81426" opacity=".3"><path d="M92.282 33.223c4.628 1.61 8.481 4.6 12.372 7.725l.618.497c3.67 2.954 7.413 5.967 11.842 7.844 4.577 1.94 9.735 2.428 14.747 2.902.989.093 1.973.186 2.945.29 5.95.633 11.506 1.657 15.765 5.423 8.556 7.564 13.924 20.252 12.222 31.498-.866 5.719-5.267 9.789-10.035 13.956l-.64.558c-4.517 3.937-9.209 8.028-10.814 13.702-.881 3.115-.637 6.383.078 9.654.581 2.662 1.484 5.365 2.367 8.011.2.598.399 1.193.593 1.784 1.058 3.227 1.973 6.341 2.177 9.261.203 2.906-.301 5.592-2.057 7.991-3.325 4.543-8.828 5.349-15.129 5.304a140.892 140.892 0 0 1-4.792-.142l-.321-.013c-1.513-.063-3.04-.127-4.552-.151-3.234-.05-6.435.08-9.363.799-4.166 1.023-8.107 2.735-11.983 4.418-.785.341-1.567.68-2.348 1.013-4.66 1.984-9.293 3.727-14.297 4.083-5.445.388-11.186.698-16.656.111-5.467-.586-10.63-2.064-14.932-5.227-4.277-3.144-6.253-8.057-7.985-13.402-.245-.754-.484-1.517-.725-2.284-1.45-4.619-2.947-9.386-5.824-13.222-1.796-2.394-4.173-4.366-6.726-6.151-1.61-1.125-3.317-2.194-5-3.247a191.97 191.97 0 0 1-2.869-1.819c-5.16-3.356-9.475-6.878-10.323-12.403-.846-5.505 2.348-10.092 6.345-14.809.595-.702 1.208-1.408 1.825-2.118 1.434-1.65 2.89-3.327 4.198-5.05 1.877-2.473 3.486-5.09 4.338-7.962 1.519-5.126.991-10.676.48-16.052-.067-.71-.134-1.415-.197-2.117-.538-6.078-.705-11.842 2.27-16.764 5.972-9.885 17.888-15.499 29.303-18.055 10.928-2.448 22.377.438 33.084 4.164z"/><path d="M91.577 40.884c4.067 1.419 7.455 4.054 10.885 6.817l.546.44c3.233 2.61 6.538 5.277 10.449 6.94 4.044 1.718 8.6 2.15 13.017 2.569.871.082 1.737.164 2.592.256 5.244.56 10.123 1.463 13.861 4.777 7.528 6.673 12.249 17.867 10.752 27.783-.759 5.03-4.619 8.614-8.824 12.299l-.568.497c-3.977 3.476-8.125 7.102-9.544 12.133-.78 2.765-.563 5.664.067 8.559.513 2.356 1.31 4.748 2.089 7.087.176.528.351 1.053.521 1.574.933 2.852 1.738 5.598 1.917 8.171.178 2.558-.265 4.917-1.802 7.023-2.912 3.989-7.732 4.703-13.285 4.663a122.49 122.49 0 0 1-4.221-.125l-.283-.012c-1.334-.055-2.68-.112-4.013-.133-2.852-.045-5.679.07-8.267.708-3.677.906-7.156 2.42-10.572 3.908-.692.301-1.38.601-2.068.894-4.106 1.754-8.181 3.29-12.58 3.604-4.799.342-9.854.616-14.669.098-4.812-.517-9.35-1.821-13.13-4.607-3.753-2.767-5.49-7.092-7.017-11.816-.215-.665-.426-1.338-.638-2.015-1.278-4.082-2.6-8.306-5.142-11.704-1.588-2.123-3.689-3.869-5.941-5.448-1.42-.996-2.927-1.941-4.411-2.873-.856-.537-1.705-1.07-2.526-1.605-4.548-2.966-8.329-6.066-9.072-10.921-.74-4.837 2.056-8.872 5.579-13.041a198.21 198.21 0 0 1 1.607-1.87c1.264-1.459 2.55-2.943 3.703-4.467 1.657-2.188 3.08-4.507 3.832-7.055 1.343-4.542.876-9.458.426-14.208-.06-.626-.119-1.25-.173-1.87-.475-5.372-.62-10.448 1.99-14.78 5.253-8.715 15.735-13.67 25.789-15.928 9.613-2.159 19.69.386 29.124 3.678z"/><path d="M90.849 49.316c3.458 1.21 6.341 3.459 9.27 5.825l.468.38c2.758 2.231 5.587 4.521 8.936 5.949 3.463 1.476 7.366 1.847 11.137 2.206.743.07 1.481.14 2.209.218 4.475.48 8.618 1.252 11.791 4.072 6.41 5.7 10.429 15.261 9.155 23.725-.644 4.277-3.916 7.33-7.509 10.487l-.49.43c-3.391 2.972-6.947 6.09-8.164 10.418-.671 2.384-.483 4.879.056 7.363.439 2.021 1.121 4.074 1.786 6.077.15.451.299.9.444 1.346.797 2.442 1.481 4.785 1.633 6.979.151 2.179-.225 4.18-1.525 5.966-2.462 3.384-6.542 3.997-11.281 3.963a106.225 106.225 0 0 1-3.6-.107l-.242-.01a130.57 130.57 0 0 0-3.427-.114c-2.437-.039-4.858.059-7.077.608-3.145.777-6.122 2.077-9.038 3.35-.59.258-1.177.515-1.763.765-3.505 1.501-6.974 2.812-10.716 3.08-4.096.293-8.405.527-12.508.085-4.1-.442-7.96-1.556-11.173-3.932-3.183-2.353-4.66-6.035-5.964-10.08-.183-.568-.363-1.144-.544-1.723-1.09-3.494-2.223-7.124-4.401-10.044-1.363-1.827-3.163-3.328-5.088-4.681-1.214-.854-2.503-1.665-3.772-2.464-.73-.46-1.454-.915-2.152-1.372-3.883-2.539-7.083-5.178-7.713-9.302-.627-4.106 1.738-7.538 4.747-11.109.445-.529.905-1.061 1.37-1.598 1.079-1.25 2.18-2.523 3.166-3.83 1.416-1.877 2.636-3.87 3.282-6.064 1.15-3.903.75-8.127.366-12.192-.05-.536-.101-1.07-.148-1.6-.405-4.6-.525-8.925 1.69-12.612C48.53 52.337 57.453 48.1 66.028 46.169c8.184-1.843 16.768.33 24.82 3.147z"/><path d="M90.06 58.515c2.798.982 5.134 2.808 7.52 4.742l.384.312c2.243 1.821 4.556 3.699 7.295 4.87 2.835 1.213 6.031 1.517 9.102 1.81.603.057 1.202.114 1.793.178 3.643.39 6.99 1.02 9.549 3.303 5.199 4.637 8.458 12.417 7.425 19.297-.518 3.455-3.155 5.927-6.085 8.51l-.405.357c-2.755 2.422-5.67 4.985-6.669 8.548-.551 1.967-.396 4.021.045 6.057.358 1.657.915 3.339 1.457 4.975.122.368.243.734.361 1.097.649 1.995 1.202 3.899 1.325 5.678.122 1.765-.181 3.378-1.224 4.815-1.976 2.723-5.252 3.226-9.11 3.198a84.441 84.441 0 0 1-2.928-.088l-.198-.008a108.08 108.08 0 0 0-2.793-.093c-1.986-.031-3.967.049-5.786.499-2.57.637-5.002 1.703-7.377 2.743-.48.21-.957.42-1.433.624-2.852 1.225-5.665 2.29-8.695 2.508-3.336.24-6.837.43-10.169.069-3.328-.36-6.453-1.266-9.052-3.193-2.566-1.903-3.762-4.883-4.824-8.188-.148-.462-.294-.932-.441-1.404-.888-2.853-1.815-5.835-3.599-8.234-1.118-1.503-2.593-2.735-4.164-3.844-.99-.698-2.044-1.363-3.078-2.017-.595-.375-1.183-.746-1.748-1.117-3.162-2.075-5.734-4.211-6.24-7.535-.504-3.31 1.393-6.084 3.844-9.002.362-.43.735-.864 1.113-1.302.88-1.022 1.779-2.066 2.584-3.136 1.156-1.537 2.157-3.175 2.688-4.982.941-3.205.614-6.674.3-9.992l-.12-1.306c-.33-3.76-.423-7.263 1.364-10.247 3.62-6.043 10.857-9.494 17.829-11.07 6.636-1.499 13.604.267 20.16 2.568z"/><path d="M89.27 67.713c2.14.755 3.928 2.159 5.772 3.66l.3.244c1.728 1.41 3.525 2.877 5.655 3.792 2.206.948 4.695 1.186 7.065 1.413.465.045.925.089 1.378.138 2.811.303 5.361.79 7.306 2.533 3.989 3.575 6.487 9.574 5.696 14.87-.393 2.634-2.393 4.526-4.66 6.534l-.32.283c-2.12 1.873-4.395 3.882-5.175 6.678-.432 1.55-.309 3.164.033 4.752.278 1.291.711 2.603 1.129 3.872l.278.849c.5 1.547.924 3.012 1.017 4.378.094 1.351-.138 2.574-.924 3.662-1.489 2.062-3.962 2.455-6.938 2.433a65.192 65.192 0 0 1-2.257-.067l-.152-.007c-.715-.03-1.44-.061-2.159-.072-1.536-.025-3.078.037-4.496.391-1.995.496-3.883 1.328-5.716 2.135-.37.162-.737.324-1.103.482-2.2.95-4.356 1.769-6.674 1.936-2.575.186-5.269.333-7.829.055-2.557-.278-4.947-.977-6.931-2.455-1.95-1.453-2.864-3.732-3.684-6.296-.114-.357-.226-.719-.34-1.085-.684-2.212-1.406-4.546-2.795-6.424-.874-1.179-2.023-2.143-3.24-3.006a56.225 56.225 0 0 0-2.386-1.571c-.458-.291-.91-.578-1.343-.863-2.44-1.609-4.385-3.242-4.767-5.768-.381-2.513 1.049-4.629 2.943-6.895.276-.331.564-.667.854-1.006.68-.793 1.379-1.608 2.003-2.441.896-1.198 1.677-2.48 2.092-3.9.734-2.509.478-5.222.237-7.793-.032-.34-.064-.678-.093-1.012-.255-2.918-.322-5.602 1.037-7.882 2.771-4.649 8.32-7.315 13.69-8.534 5.088-1.156 10.44.204 15.497 1.987z"/><path d="M88.306 78.788c1.345.479 2.475 1.37 3.665 2.348l.197.162c1.11.913 2.285 1.88 3.681 2.486 1.45.628 3.087.786 4.614.933.297.028.59.057.877.088 1.81.197 3.399.51 4.606 1.6 2.532 2.289 4.114 6.13 3.614 9.507-.243 1.64-1.478 2.83-2.946 4.141l-.217.193c-1.355 1.208-2.858 2.545-3.375 4.413-.289 1.045-.204 2.124.019 3.169.182.849.464 1.712.733 2.537l.178.547c.322 1.005.589 1.94.648 2.803.058.851-.087 1.602-.564 2.267-.903 1.261-2.409 1.521-4.323 1.507-.47-.004-.953-.023-1.447-.044l-.099-.004c-.46-.02-.93-.04-1.395-.047-.994-.016-2.006.023-2.943.259-1.301.327-2.534.874-3.715 1.399l-.706.311c-1.415.616-2.78 1.137-4.24 1.243-1.659.121-3.38.215-5.01.036-1.629-.178-3.134-.625-4.378-1.56-1.206-.906-1.782-2.336-2.31-4.003a78.522 78.522 0 0 1-.218-.699c-.44-1.435-.914-2.984-1.828-4.23-.579-.788-1.336-1.427-2.127-1.992a36.49 36.49 0 0 0-1.55-1.03 54.782 54.782 0 0 1-.857-.555c-1.572-1.045-2.76-2.068-2.995-3.628-.232-1.549.636-2.868 1.858-4.343.175-.212.359-.427.545-.646.44-.518.896-1.055 1.301-1.6.584-.786 1.1-1.64 1.376-2.59.482-1.663.314-3.462.158-5.128l-.06-.655c-.164-1.898-.199-3.59.645-5.018 1.75-2.96 5.267-4.675 8.706-5.462 3.224-.738 6.629.128 9.882 1.285z"/></g><path fill="#D1D1D1" stroke="#201C21" d="M73.401 136.584h.352l.119-.33 10.598-29.477h47.019l10.754 29.479.119.328H158.849l-.258-.678-43.574-114.208-.123-.322h-13.831l-.123.322-43.496 114.208-.258.678h16.215zm15.967-43.2l18.611-51.45 18.687 51.45H89.368z"/><path fill="#D1D1D1" stroke="#C81426" stroke-linejoin="round" d="M113.284 9.5a.5.5 0 0 0-.354.146l-11.876 11.877a.499.499 0 0 0 .354.853h13.142a.5.5 0 0 0 .354-.146l11.876-11.876a.499.499 0 0 0-.354-.854h-13.142z"/><path fill="#D1D1D1" stroke="#C81426" stroke-linejoin="round" d="M126.893 9.822a.5.5 0 0 0-.821-.176l-11.876 11.877a.5.5 0 0 0-.113.531l43.573 114.208a.5.5 0 0 0 .821.176l11.876-11.876a.5.5 0 0 0 .114-.532L126.893 9.822z"/><path fill="#201C21" stroke="#C81426" stroke-linejoin="round" d="M139.61 82.36a.501.501 0 0 0 .116-.523l-19.401-53.418a.5.5 0 0 0-.823-.183l-11.877 11.876a.501.501 0 0 0-.116.525l19.401 53.417a.5.5 0 0 0 .823.183L139.61 82.36z"/><path fill="#D1D1D1" stroke="#201C21" stroke-linejoin="round" d="M120.325 28.76a.5.5 0 0 0-.824-.524l-11.876 11.876a.51.51 0 0 0-.116.184L88.186 93.713a.5.5 0 0 0 .824.524l11.876-11.876a.484.484 0 0 0 .116-.184l19.323-53.417z"/><path fill="#201C21" stroke="#C81426" stroke-linejoin="round" d="M154.942 124.562a.5.5 0 0 0 .117-.525L144.185 94.23a.5.5 0 0 0-.824-.182l-11.876 11.876a.502.502 0 0 0-.116.525l10.874 29.807a.502.502 0 0 0 .823.182l11.876-11.876z"/><path fill="#201C21" stroke="#C81426" stroke-linejoin="round" d="M170.354 124.561a.5.5 0 0 0-.354-.853h-15.411a.5.5 0 0 0-.354.146l-11.876 11.876a.5.5 0 0 0 .354.854h15.411a.5.5 0 0 0 .354-.147l11.876-11.876z"/><path fill="#D1D1D1" stroke="#201C21" stroke-linejoin="round" d="M100.532 81.507a.5.5 0 0 0-.353.147L88.303 93.53a.5.5 0 0 0 .353.853h38.724c.132 0 .26-.052.353-.146l11.876-11.876a.5.5 0 0 0-.353-.854h-38.724z"/><path fill="#201C21" stroke="#C81426" stroke-linejoin="round" d="M144.069 94.755a.5.5 0 00-.354-.854h-47.72a.5.5 0 00-.353.147l-11.876 11.876a.5.5 0 00.353.853h47.72a.5.5 0 00.354-.146l11.876-11.876zM70.141 124.562c.05-.05.089-.11.114-.176L113.75 10.178a.501.501 0 00-.821-.532l-11.876 11.877a.498.498 0 00-.114.175L57.444 135.906a.5.5 0 00.821.532l11.876-11.876z"/><path fill="#D1D1D1" stroke="#201C21" stroke-linejoin="round" d="M96.466 94.57a.5.5 0 0 0-.824-.522l-11.876 11.876a.5.5 0 0 0-.117.184L72.93 135.915a.5.5 0 0 0 .824.523l11.877-11.876a.5.5 0 0 0 .116-.184L96.466 94.57z"/><path fill="#201C21" stroke="#C81426" stroke-linejoin="round" d="M85.63 124.561a.5.5 0 0 0-.353-.853h-15.49a.499.499 0 0 0-.353.146L57.558 135.73a.5.5 0 0 0 .354.854H73.4a.5.5 0 0 0 .354-.147l11.876-11.876z"/><path fill="#C81426" d="M143.714 94.4h-47.72l-10.717 29.808h-15.49L113.284 10h13.143l43.573 114.208h-15.411l-10.874-29.807zm-43.182-12.393h38.723L119.854 28.59l-19.322 53.417z"/></svg>