<svg width="180" height="180" viewBox="0 0 180 180" fill="none" xmlns="http://www.w3.org/2000/svg">
<g opacity="0.3">
<path d="M92.2825 33.2228C96.9099 34.8329 100.763 37.8225 104.654 40.9484C104.86 41.1138 105.066 41.2795 105.272 41.4454C108.942 44.3991 112.685 47.4117 117.114 49.2892C121.691 51.2295 126.849 51.7171 131.861 52.1909C132.85 52.2845 133.834 52.3774 134.806 52.481C140.756 53.1144 146.312 54.1384 150.571 57.9036C159.127 65.4679 164.495 78.1557 162.793 89.4017C161.927 95.1206 157.526 99.1909 152.758 103.358C152.545 103.544 152.332 103.73 152.118 103.916C147.601 107.853 142.909 111.944 141.304 117.618C140.423 120.733 140.667 124.001 141.382 127.272C141.963 129.934 142.866 132.637 143.749 135.283C143.949 135.881 144.148 136.476 144.342 137.067C145.4 140.294 146.315 143.408 146.519 146.328C146.722 149.234 146.218 151.92 144.462 154.319C141.137 158.862 135.634 159.668 129.333 159.623C127.766 159.612 126.162 159.548 124.541 159.481L124.22 159.468C122.707 159.405 121.18 159.341 119.668 159.317C116.434 159.267 113.233 159.397 110.305 160.116C106.139 161.139 102.198 162.851 98.3217 164.534C97.5369 164.875 96.7546 165.214 95.9737 165.547C91.3141 167.531 86.6811 169.274 81.6772 169.63C76.2322 170.018 70.4913 170.328 65.0211 169.741C59.5538 169.155 54.3918 167.677 50.089 164.514C45.8117 161.37 43.836 156.457 42.1037 151.112C41.8594 150.358 41.62 149.595 41.3792 148.828C39.9291 144.209 38.4325 139.442 35.5551 135.606C33.7591 133.212 31.3823 131.24 28.8292 129.455C27.219 128.33 25.5123 127.261 23.8293 126.208C22.8573 125.6 21.8932 124.996 20.9602 124.389C15.7996 121.033 11.4851 117.511 10.6367 111.986C9.79144 106.481 12.9849 101.894 16.9815 97.1773C17.5765 96.4752 18.1896 95.7695 18.8072 95.0588C20.2405 93.4093 21.6975 91.7324 23.0051 90.0096C24.8823 87.5362 26.4912 84.9198 27.3426 82.047C28.8618 76.9206 28.3342 71.3708 27.8231 65.9946C27.7557 65.2857 27.6886 64.5797 27.6265 63.8781C27.0885 57.7997 26.9207 52.0361 29.8951 47.1136C35.868 37.2286 47.784 31.615 59.1991 29.0586C70.1266 26.6113 81.576 29.4973 92.2825 33.2228Z" stroke="#C81426"/>
<path d="M91.5767 40.8837C95.6437 42.3027 99.032 44.9381 102.462 47.7011C102.644 47.8477 102.826 47.9946 103.008 48.1417C106.241 50.7507 109.546 53.4178 113.457 55.0804C117.501 56.7991 122.057 57.2309 126.474 57.6495C127.345 57.7321 128.211 57.8142 129.066 57.9055C134.31 58.4652 139.189 59.3691 142.927 62.6828C150.455 69.3561 155.176 80.5497 153.679 90.4665C152.92 95.4964 149.06 99.0802 144.855 102.765C144.666 102.93 144.476 103.096 144.287 103.262C140.31 106.738 136.162 110.364 134.743 115.395C133.963 118.16 134.18 121.059 134.81 123.954C135.323 126.31 136.12 128.702 136.899 131.041C137.075 131.569 137.25 132.094 137.42 132.615C138.353 135.467 139.158 138.213 139.337 140.786C139.515 143.344 139.072 145.703 137.535 147.809C134.623 151.798 129.803 152.512 124.25 152.472C122.87 152.462 121.458 152.407 120.029 152.347L119.746 152.335C118.412 152.28 117.066 152.223 115.733 152.202C112.881 152.157 110.054 152.272 107.466 152.91C103.789 153.816 100.31 155.33 96.8936 156.818C96.2022 157.119 95.5133 157.419 94.8259 157.712C90.72 159.466 86.6448 161.002 82.2457 161.316C77.447 161.658 72.3923 161.932 67.5772 161.414C62.7652 160.897 58.2273 159.593 54.4466 156.807C50.6936 154.04 48.9568 149.715 47.43 144.991C47.215 144.326 47.0042 143.653 46.7922 142.976C45.5145 138.894 44.1923 134.67 41.6499 131.272C40.0617 129.149 37.9613 127.403 35.7089 125.824C34.2889 124.828 32.7822 123.883 31.2979 122.951C30.4416 122.414 29.5927 121.881 28.7723 121.346C24.224 118.38 20.4434 115.28 19.6999 110.425C18.9593 105.588 21.7556 101.553 25.2787 97.3836C25.802 96.7643 26.3418 96.1413 26.8858 95.5136C28.1495 94.0553 29.4357 92.571 30.5893 91.0469C32.2456 88.8585 33.6682 86.54 34.4213 83.9918C35.7636 79.4501 35.2973 74.5337 34.8469 69.7842C34.7874 69.1577 34.7283 68.534 34.6736 67.9145C34.1994 62.542 34.0543 57.4663 36.6649 53.134C41.9167 44.4187 52.3993 39.4633 62.453 37.2056C72.0658 35.047 82.1422 37.5919 91.5767 40.8837Z" stroke="#C81426"/>
<path d="M90.8486 49.3163C94.3068 50.5265 97.1901 52.7748 100.119 55.1412C100.275 55.2672 100.431 55.3936 100.587 55.5201C103.345 57.7525 106.174 60.0422 109.523 61.4698C112.986 62.9464 116.889 63.3173 120.66 63.6756C121.403 63.7462 122.141 63.8163 122.869 63.8942C127.344 64.3734 131.487 65.1461 134.66 67.9665C141.07 73.6661 145.089 83.227 143.815 91.6913C143.171 95.9683 139.899 99.0204 136.306 102.178C136.143 102.321 135.979 102.464 135.816 102.608C132.425 105.58 128.869 108.698 127.652 113.026C126.981 115.41 127.169 117.905 127.708 120.389C128.147 122.41 128.829 124.463 129.494 126.466C129.644 126.917 129.793 127.366 129.938 127.812C130.735 130.254 131.419 132.597 131.571 134.791C131.722 136.97 131.346 138.971 130.046 140.757C127.584 144.141 123.504 144.754 118.765 144.72C117.589 144.711 116.384 144.664 115.165 144.613L114.923 144.603C113.785 144.555 112.635 144.507 111.496 144.489C109.059 144.45 106.638 144.548 104.419 145.097C101.274 145.874 98.2972 147.174 95.3806 148.447C94.7908 148.705 94.2035 148.962 93.6177 149.212C90.1134 150.713 86.6444 152.024 82.9024 152.292C78.8059 152.585 74.4969 152.819 70.3938 152.377C66.2938 151.935 62.4341 150.821 59.2208 148.445C56.0375 146.092 54.5602 142.41 53.2567 138.365C53.0737 137.797 52.894 137.221 52.7132 136.642C51.6228 133.148 50.49 129.518 48.3118 126.598C46.9494 124.771 45.1493 123.27 43.2238 121.917C42.0104 121.063 40.7208 120.252 39.4524 119.453C38.7218 118.993 37.9982 118.538 37.3003 118.081C33.4174 115.542 30.2169 112.903 29.5873 108.779C28.9604 104.673 31.3251 101.241 34.3337 97.6701C34.7792 97.1414 35.2392 96.6088 35.7032 96.0718C36.7827 94.8223 37.8833 93.5485 38.8695 92.2415C40.2859 90.3647 41.5059 88.3716 42.1523 86.1781C43.3023 82.2754 42.9027 78.0513 42.5182 73.9864C42.4674 73.4499 42.4169 72.9162 42.3703 72.3864C41.9654 67.7853 41.8449 63.4613 44.0603 59.7739C48.5286 52.3367 57.4534 48.1007 66.0279 46.1694C74.212 44.3261 82.7965 46.4984 90.8486 49.3163Z" stroke="#C81426"/>
<path d="M90.0592 58.5147C92.8578 59.4971 95.194 61.3231 97.58 63.2569C97.7079 63.3605 97.8358 63.4644 97.964 63.5685C100.207 65.39 102.52 67.268 105.259 68.4394C108.094 69.6517 111.29 69.9561 114.361 70.2486C114.964 70.3061 115.563 70.3632 116.154 70.4266C119.797 70.8179 123.144 71.4474 125.703 73.7297C130.902 78.3671 134.161 86.1469 133.128 93.0266C132.61 96.4823 129.973 98.9543 127.043 101.537C126.909 101.656 126.774 101.775 126.638 101.894C123.883 104.316 120.968 106.879 119.969 110.442C119.418 112.409 119.573 114.463 120.014 116.499C120.372 118.156 120.929 119.838 121.471 121.474C121.593 121.842 121.714 122.208 121.832 122.571C122.481 124.566 123.034 126.47 123.157 128.249C123.279 130.014 122.976 131.627 121.933 133.064C119.957 135.787 116.681 136.29 112.823 136.262C111.867 136.255 110.888 136.216 109.895 136.174L109.697 136.166C108.771 136.127 107.833 136.088 106.904 136.073C104.918 136.042 102.937 136.122 101.118 136.572C98.5482 137.209 96.1158 138.275 93.7408 139.315C93.2611 139.525 92.7837 139.735 92.308 139.939C89.4556 141.164 86.6432 142.229 83.613 142.447C80.2774 142.687 76.7762 142.877 73.4443 142.516C70.1156 142.156 66.9908 141.25 64.392 139.323C61.8259 137.42 60.6298 134.44 59.5683 131.135C59.4197 130.673 59.2738 130.203 59.1267 129.731C58.2393 126.878 57.3119 123.896 55.528 121.497C54.4102 119.994 52.9354 118.762 51.3641 117.653C50.3744 116.955 49.3202 116.29 48.2857 115.636C47.6913 115.261 47.1034 114.89 46.538 114.519C43.3761 112.444 40.8039 110.308 40.2979 106.984C39.7942 103.674 41.6913 100.9 44.1425 97.9819C44.5036 97.5519 44.8773 97.118 45.2547 96.68C46.1346 95.6584 47.034 94.6141 47.839 93.544C48.9954 92.007 49.996 90.3689 50.5267 88.5624C51.4684 85.3567 51.1411 81.8877 50.8279 78.5698C50.7866 78.1316 50.7455 77.696 50.7076 77.264C50.3777 73.5045 50.284 70.0005 52.0712 67.0167C55.6906 60.9738 62.9279 57.5225 69.8998 55.9473C76.5363 54.448 83.5045 56.2138 90.0592 58.5147Z" stroke="#C81426"/>
<path d="M89.2704 67.7134C91.4094 68.468 93.1985 69.8716 95.0418 71.3728C95.1414 71.454 95.2413 71.5355 95.3413 71.6171C97.07 73.0278 98.8668 74.494 100.997 75.4092C103.203 76.3575 105.692 76.5955 108.062 76.8221C108.527 76.8666 108.987 76.9106 109.44 76.9595C112.251 77.2629 114.801 77.7492 116.746 79.4931C120.735 83.0682 123.233 89.067 122.442 94.3626C122.049 96.9971 120.049 98.8891 117.782 100.897C117.676 100.991 117.569 101.086 117.462 101.18C115.342 103.053 113.067 105.062 112.287 107.858C111.855 109.408 111.978 111.022 112.32 112.61C112.598 113.901 113.031 115.213 113.449 116.482C113.543 116.767 113.636 117.05 113.727 117.331C114.227 118.878 114.651 120.343 114.744 121.709C114.838 123.06 114.606 124.283 113.82 125.371C112.331 127.433 109.858 127.826 106.882 127.804C106.146 127.799 105.392 127.769 104.625 127.737L104.473 127.73C103.758 127.7 103.033 127.669 102.314 127.658C100.778 127.633 99.2363 127.695 97.8176 128.049C95.8234 128.545 93.935 129.377 92.1016 130.184C91.732 130.346 91.3646 130.508 90.999 130.666C88.7984 131.616 86.6428 132.435 84.3246 132.602C81.7497 132.788 79.0564 132.935 76.496 132.657C73.9387 132.379 71.5487 131.68 69.5645 130.202C67.6155 128.749 66.7006 126.47 65.8809 123.906C65.7668 123.549 65.6546 123.187 65.5413 122.821C64.8569 120.609 64.1348 118.275 62.7455 116.397C61.8724 115.218 60.7229 114.254 59.5057 113.391C58.7399 112.848 57.921 112.328 57.1204 111.82C56.6622 111.529 56.21 111.242 55.7771 110.957C53.3362 109.348 51.3921 107.715 51.0095 105.189C50.6288 102.676 52.0589 100.56 53.9526 98.2939C54.2294 97.9627 54.5167 97.6274 54.8074 97.2883C55.4877 96.4946 56.186 95.6798 56.8098 94.8467C57.7061 93.6494 58.4873 92.3664 58.9022 90.9469C59.6356 88.4384 59.3804 85.7248 59.1387 83.1537C59.1068 82.8137 59.075 82.4763 59.0459 82.1422C58.7911 79.2242 58.724 76.5401 60.0832 74.2596C62.854 69.6111 68.4038 66.9446 73.773 65.7257C78.8614 64.5704 84.2132 65.9295 89.2704 67.7134Z" stroke="#C81426"/>
<path d="M88.3064 78.7884C89.6508 79.2667 90.7811 80.1585 91.9708 81.1357C92.0364 81.1896 92.1023 81.2438 92.1684 81.2982C93.2776 82.2113 94.4532 83.1789 95.8492 83.7839C97.2993 84.4123 98.9365 84.5699 100.463 84.7168C100.76 84.7454 101.053 84.7736 101.34 84.8048C103.15 85.0018 104.739 85.3145 105.946 86.4058C108.478 88.6938 110.06 92.5351 109.56 95.912C109.317 97.5521 108.082 98.7414 106.614 100.053C106.542 100.117 106.47 100.182 106.397 100.246C105.042 101.454 103.539 102.791 103.022 104.659C102.733 105.704 102.818 106.783 103.041 107.828C103.223 108.677 103.505 109.54 103.774 110.365C103.834 110.549 103.894 110.732 103.952 110.912C104.274 111.917 104.541 112.852 104.6 113.715C104.658 114.566 104.513 115.317 104.036 115.982C103.133 117.243 101.627 117.503 99.7134 117.489C99.243 117.485 98.7603 117.466 98.266 117.445L98.1672 117.441C97.7072 117.421 97.2377 117.401 96.7724 117.394C95.7778 117.378 94.7661 117.417 93.8289 117.653C92.5278 117.98 91.2946 118.527 90.1135 119.052C89.8764 119.157 89.6414 119.261 89.4085 119.363C87.9927 119.979 86.6282 120.5 85.1677 120.606C83.509 120.727 81.7886 120.821 80.1572 120.642C78.5292 120.464 77.0242 120.017 75.7803 119.082C74.5742 118.176 73.9976 116.746 73.4692 115.079C73.3967 114.85 73.3251 114.617 73.2525 114.38C72.8126 112.945 72.3378 111.396 71.4238 110.15C70.8454 109.362 70.0878 108.723 69.297 108.158C68.8007 107.803 68.2652 107.46 67.7463 107.128C67.4521 106.94 67.1634 106.755 66.8901 106.573C65.3179 105.528 64.1295 104.505 63.8953 102.945C63.6626 101.396 64.5309 100.077 65.753 98.6021C65.9284 98.3905 66.1117 98.1748 66.298 97.9556C66.7379 97.438 67.194 96.9012 67.5994 96.3551C68.1827 95.5695 68.6993 94.7167 68.9748 93.7662C69.4571 92.1026 69.289 90.3042 69.1333 88.6379C69.1126 88.417 69.0922 88.1985 69.0736 87.983C68.9092 86.0845 68.8741 84.3932 69.7183 82.9648C71.4672 80.0056 74.9851 78.2902 78.4237 77.5029C81.6477 76.7647 85.0526 77.6309 88.3064 78.7884Z" stroke="#C81426"/>
</g>
<path d="M73.401 136.584H73.7526L73.8716 136.254L84.47 106.777H131.489L142.243 136.256L142.362 136.584H142.712H158.124H158.849L158.591 135.906L115.017 21.6982L114.894 21.3765H114.55H101.407H101.063L100.94 21.6985L57.4444 135.906L57.1862 136.584H57.9116H73.401ZM89.3684 93.384L107.979 41.9339L126.666 93.384H89.3684Z" fill="#D1D1D1" stroke="#201C21"/>
<path d="M113.284 9.5C113.151 9.5 113.024 9.55268 112.93 9.64645L101.054 21.5225C100.911 21.6655 100.868 21.8806 100.946 22.0674C101.023 22.2542 101.205 22.3761 101.408 22.3761H114.55C114.683 22.3761 114.81 22.3234 114.904 22.2296L126.78 10.3536C126.923 10.2106 126.966 9.9955 126.888 9.80866C126.811 9.62182 126.629 9.5 126.426 9.5H113.284Z" fill="#D1D1D1" stroke="#C81426" stroke-linejoin="round"/>
<path d="M126.893 9.82177C126.833 9.66341 126.696 9.54644 126.53 9.51103C126.365 9.47562 126.192 9.5266 126.072 9.64645L114.196 21.5225C114.057 21.6619 114.012 21.8701 114.083 22.0543L157.656 136.262C157.717 136.421 157.853 136.538 158.019 136.573C158.185 136.608 158.357 136.557 158.477 136.438L170.353 124.562C170.493 124.422 170.537 124.214 170.467 124.03L126.893 9.82177Z" fill="#D1D1D1" stroke="#C81426" stroke-linejoin="round"/>
<path d="M139.61 82.3607C139.747 82.2234 139.792 82.019 139.726 81.8365L120.325 28.4192C120.267 28.2585 120.13 28.1388 119.963 28.1017C119.797 28.0647 119.622 28.1154 119.502 28.2363L107.625 40.1124C107.488 40.2497 107.443 40.4541 107.509 40.6366L126.91 94.0539C126.968 94.2146 127.105 94.3343 127.272 94.3713C127.438 94.4084 127.613 94.3576 127.733 94.2368L139.61 82.3607Z" fill="#201C21" stroke="#C81426" stroke-linejoin="round"/>
<path d="M120.325 28.7599C120.405 28.5396 120.321 28.2936 120.123 28.1679C119.926 28.0422 119.667 28.0706 119.501 28.2363L107.625 40.1124C107.574 40.1642 107.534 40.2269 107.509 40.2958L88.1861 93.7132C88.1064 93.9334 88.1903 94.1795 88.388 94.3052C88.5857 94.4309 88.8442 94.4024 89.0098 94.2368L100.886 82.3607C100.938 82.3089 100.978 82.2462 101.002 82.1772L120.325 28.7599Z" fill="#D1D1D1" stroke="#201C21" stroke-linejoin="round"/>
<path d="M154.942 124.562C155.08 124.424 155.125 124.22 155.059 124.037L144.185 94.23C144.126 94.0696 143.99 93.9501 143.823 93.9132C143.656 93.8763 143.482 93.927 143.361 94.0478L131.485 105.924C131.348 106.061 131.303 106.266 131.369 106.449L142.243 136.256C142.302 136.416 142.438 136.536 142.605 136.573C142.771 136.61 142.946 136.559 143.066 136.438L154.942 124.562Z" fill="#201C21" stroke="#C81426" stroke-linejoin="round"/>
<path d="M170.354 124.561C170.497 124.418 170.539 124.203 170.462 124.016C170.385 123.829 170.202 123.708 170 123.708H154.589C154.456 123.708 154.329 123.76 154.235 123.854L142.359 135.73C142.216 135.873 142.174 136.088 142.251 136.275C142.328 136.462 142.511 136.584 142.713 136.584H158.124C158.257 136.584 158.384 136.531 158.478 136.437L170.354 124.561Z" fill="#201C21" stroke="#C81426" stroke-linejoin="round"/>
<path d="M100.532 81.5073C100.4 81.5073 100.273 81.56 100.179 81.6538L88.3027 93.5298C88.1597 93.6728 88.1169 93.8879 88.1943 94.0747C88.2717 94.2616 88.454 94.3834 88.6562 94.3834H127.38C127.512 94.3834 127.64 94.3307 127.733 94.2369L139.609 82.3609C139.752 82.2179 139.795 82.0028 139.718 81.816C139.64 81.6291 139.458 81.5073 139.256 81.5073H100.532Z" fill="#D1D1D1" stroke="#201C21" stroke-linejoin="round"/>
<path d="M144.069 94.7549C144.212 94.6119 144.254 94.3969 144.177 94.21C144.1 94.0232 143.917 93.9014 143.715 93.9014H95.9952C95.8626 93.9014 95.7354 93.954 95.6416 94.0478L83.7656 105.924C83.6226 106.067 83.5798 106.282 83.6572 106.469C83.7346 106.656 83.9169 106.777 84.1191 106.777H131.839C131.972 106.777 132.099 106.725 132.193 106.631L144.069 94.7549Z" fill="#201C21" stroke="#C81426" stroke-linejoin="round"/>
<path d="M70.1412 124.562C70.1911 124.512 70.2298 124.452 70.2549 124.386L113.751 10.178C113.834 9.95756 113.753 9.70849 113.555 9.58031C113.357 9.45212 113.096 9.47969 112.93 9.64645L101.054 21.5225C101.004 21.5724 100.965 21.6322 100.94 21.6981L57.4444 135.906C57.3604 136.126 57.4419 136.376 57.6399 136.504C57.8378 136.632 58.0984 136.604 58.2652 136.438L70.1412 124.562Z" fill="#201C21" stroke="#C81426" stroke-linejoin="round"/>
<path d="M96.4659 94.5705C96.5451 94.3503 96.4608 94.1045 96.2632 93.9791C96.0655 93.8538 95.8073 93.8823 95.6418 94.0478L83.7657 105.924C83.7136 105.976 83.6737 106.039 83.6488 106.108L72.9313 135.915C72.8521 136.136 72.9364 136.381 73.134 136.507C73.3317 136.632 73.5899 136.604 73.7554 136.438L85.6315 124.562C85.6836 124.51 85.7235 124.447 85.7484 124.378L96.4659 94.5705Z" fill="#D1D1D1" stroke="#201C21" stroke-linejoin="round"/>
<path d="M85.6307 124.561C85.7737 124.418 85.8164 124.203 85.739 124.016C85.6617 123.829 85.4793 123.708 85.2771 123.708H69.7877C69.6551 123.708 69.5279 123.76 69.4341 123.854L57.5581 135.73C57.4151 135.873 57.3723 136.088 57.4497 136.275C57.5271 136.462 57.7094 136.584 57.9116 136.584H73.401C73.5337 136.584 73.6608 136.531 73.7546 136.437L85.6307 124.561Z" fill="#201C21" stroke="#C81426" stroke-linejoin="round"/>
<path d="M143.714 94.4009H95.9945L85.277 124.208H69.7876L113.283 10H126.426L169.999 124.208H154.588L143.714 94.4009ZM100.532 82.0075H139.255L119.854 28.5902L100.532 82.0075Z" fill="#C81426"/>
</svg>
