<svg xmlns="http://www.w3.org/2000/svg" width="180" height="180" viewBox="0 0 180 180"><title>B</title><g fill="none" fill-rule="evenodd"><g stroke="#C81426" opacity=".3"><path d="M96.02 31.253c4.841 1.685 8.871 4.812 12.939 8.08l.645.519c3.837 3.088 7.747 6.235 12.374 8.196 4.782 2.027 10.168 2.536 15.408 3.032 1.034.098 2.062.195 3.079.303 6.22.662 12.035 1.733 16.492 5.674 8.95 7.912 14.565 21.182 12.784 32.946-.907 5.988-5.514 10.248-10.497 14.603l-.667.582c-4.723 4.117-9.624 8.389-11.299 14.313-.92 3.252-.665 6.664.081 10.081.608 2.782 1.551 5.606 2.475 8.372.208.625.416 1.247.619 1.865 1.106 3.373 2.064 6.63 2.277 9.686.212 3.042-.315 5.855-2.154 8.368-3.484 4.759-9.247 5.601-15.834 5.554a148.605 148.605 0 0 1-5.01-.148l-.335-.014c-1.582-.066-3.178-.133-4.758-.158-3.38-.053-6.724.083-9.782.835-4.352 1.069-8.47 2.857-12.522 4.616-.821.357-1.639.712-2.455 1.059-4.871 2.075-9.717 3.898-14.952 4.27-5.692.406-11.695.73-17.415.117-5.718-.613-11.118-2.159-15.62-5.469-4.478-3.291-6.545-8.434-8.356-14.021-.255-.788-.505-1.586-.757-2.387-1.516-4.829-3.08-9.808-6.085-13.815-1.875-2.5-4.357-4.559-7.025-6.424-1.683-1.177-3.466-2.293-5.225-3.394a212.095 212.095 0 0 1-3-1.901c-5.395-3.508-9.913-7.195-10.802-12.982-.885-5.765 2.46-10.568 6.638-15.498.622-.734 1.263-1.472 1.909-2.215 1.498-1.724 3.02-3.476 4.387-5.276 1.961-2.585 3.641-5.317 4.53-8.316 1.587-5.355 1.036-11.151.501-16.772-.07-.74-.14-1.479-.205-2.212-.562-6.354-.739-12.386 2.375-17.539 6.248-10.34 18.711-16.21 30.646-18.883 11.43-2.56 23.403.459 34.596 4.353z"/><path d="M95.282 39.262c4.255 1.485 7.8 4.242 11.385 7.13l.571.46c3.38 2.728 6.832 5.514 10.918 7.25 4.223 1.796 8.981 2.247 13.599 2.685a230.6 230.6 0 0 1 2.711.267c5.481.585 10.588 1.53 14.501 5 7.874 6.98 12.814 18.688 11.247 29.063-.795 5.268-4.837 9.02-9.232 12.87l-.592.518c-4.158 3.635-8.49 7.421-9.971 12.673-.814 2.886-.588 5.912.071 8.936.536 2.462 1.368 4.961 2.182 7.405.184.552.367 1.102.546 1.647.975 2.982 1.816 5.854 2.004 8.547.186 2.678-.277 5.149-1.888 7.356-3.051 4.18-8.101 4.926-13.906 4.884-1.442-.01-2.919-.069-4.413-.131l-.296-.012c-1.394-.058-2.801-.117-4.194-.139-2.98-.047-5.933.073-8.636.739-3.841.946-7.476 2.528-11.047 4.083-.723.315-1.443.629-2.162.936-4.292 1.833-8.555 3.44-13.158 3.768-5.016.358-10.302.645-15.337.103-5.033-.541-9.78-1.905-13.737-4.821-3.93-2.896-5.747-7.424-7.343-12.362-.225-.695-.445-1.399-.667-2.108-1.336-4.266-2.716-8.677-5.372-12.226-1.658-2.217-3.851-4.041-6.205-5.69-1.484-1.041-3.058-2.029-4.609-3.002-.895-.562-1.783-1.119-2.641-1.679-4.754-3.1-8.715-6.346-9.494-11.432-.776-5.067 2.155-9.292 5.837-13.65.547-.648 1.112-1.3 1.68-1.956 1.321-1.524 2.665-3.074 3.87-4.667 1.731-2.287 3.216-4.708 4.003-7.368 1.401-4.743.915-9.877.444-14.843-.062-.654-.124-1.306-.181-1.954-.496-5.616-.649-10.929 2.084-15.464 5.495-9.119 16.46-14.3 26.972-16.661 10.055-2.258 20.593.404 30.456 3.845z"/><path d="M94.52 48.077c3.62 1.267 6.637 3.62 9.698 6.093l.489.395c2.883 2.334 5.838 4.726 9.335 6.217 3.617 1.542 7.693 1.93 11.635 2.304.777.074 1.548.147 2.31.229 4.678.5 9.016 1.309 12.338 4.262 6.706 5.962 10.911 15.964 9.578 24.82-.674 4.481-4.103 7.676-7.858 10.977l-.51.447c-3.545 3.108-7.258 6.363-8.529 10.882-.699 2.486-.504 5.09.06 7.685.458 2.112 1.17 4.256 1.865 6.349.157.472.313.942.465 1.408.833 2.553 1.549 5.004 1.708 7.301.158 2.281-.235 4.379-1.598 6.252-2.581 3.547-6.857 4.187-11.811 4.151-1.23-.009-2.49-.059-3.764-.112l-.253-.01c-1.19-.05-2.392-.101-3.582-.119-2.547-.041-5.075.062-7.392.634-3.286.812-6.395 2.17-9.444 3.502-.617.269-1.23.537-1.843.8-3.664 1.568-7.293 2.94-11.209 3.221-4.282.306-8.788.55-13.08.088-4.288-.462-8.327-1.628-11.69-4.114-3.334-2.465-4.88-6.32-6.242-10.549-.192-.594-.38-1.196-.569-1.802-1.14-3.652-2.323-7.442-4.597-10.492-1.422-1.906-3.302-3.473-5.314-4.888-1.268-.891-2.615-1.739-3.94-2.574-.764-.481-1.52-.957-2.25-1.435-4.06-2.654-7.414-5.418-8.074-9.739-.657-4.303 1.822-7.898 4.967-11.63.466-.554.947-1.11 1.432-1.672 1.129-1.306 2.278-2.637 3.309-4.002 1.48-1.961 2.753-4.042 3.428-6.331 1.2-4.075.783-8.486.381-12.736-.053-.56-.106-1.119-.154-1.673-.424-4.809-.55-9.336 1.77-13.197 4.675-7.783 14.012-12.213 22.977-14.232 8.562-1.928 17.54.344 25.959 3.29z"/><path d="M93.696 57.692c2.93 1.029 5.375 2.94 7.869 4.961l.401.325c2.345 1.905 4.76 3.866 7.621 5.09 2.96 1.265 6.296 1.583 9.506 1.889.631.06 1.258.12 1.876.186 3.808.409 7.313 1.067 9.994 3.458 5.44 4.852 8.85 12.992 7.77 20.192-.544 3.622-3.307 6.211-6.369 8.91l-.422.372c-2.881 2.533-5.924 5.208-6.966 8.926-.575 2.051-.413 4.194.047 6.32.375 1.731.957 3.488 1.523 5.198.127.385.254.768.377 1.148.678 2.085 1.258 4.078 1.387 5.941.128 1.848-.19 3.539-1.284 5.047-2.073 2.856-5.509 3.382-9.542 3.353a89.93 89.93 0 0 1-3.062-.092l-.206-.009c-.968-.04-1.948-.081-2.919-.097-2.076-.033-4.144.051-6.043.521-2.684.666-5.224 1.779-7.707 2.866-.502.22-1 .439-1.498.652-2.983 1.282-5.925 2.396-9.097 2.624-3.487.25-7.148.449-10.634.072-3.482-.376-6.752-1.324-9.473-3.342-2.69-1.994-3.941-5.116-5.05-8.57-.156-.484-.309-.975-.463-1.469-.927-2.983-1.896-6.095-3.758-8.6-1.166-1.568-2.706-2.855-4.347-4.013-1.034-.729-2.135-1.424-3.216-2.107-.622-.392-1.237-.781-1.829-1.169-3.305-2.168-6.002-4.406-6.533-7.892-.528-3.471 1.463-6.378 4.024-9.428.378-.45.77-.904 1.164-1.362.92-1.067 1.859-2.158 2.7-3.276 1.208-1.606 2.252-3.315 2.806-5.2.983-3.347.641-6.968.314-10.437-.043-.458-.086-.914-.126-1.365-.345-3.93-.444-7.6 1.428-10.726 3.789-6.324 11.361-9.934 18.652-11.581 6.944-1.57 14.233.279 21.085 2.684z"/><path d="M92.871 67.308c2.24.79 4.113 2.26 6.04 3.829l.312.255c1.808 1.475 3.684 3.005 5.907 3.96 2.303.99 4.901 1.239 7.378 1.476.486.046.968.092 1.442.144 2.939.317 5.61.825 7.65 2.654 4.175 3.741 6.79 10.02 5.962 15.563-.413 2.764-2.511 4.747-4.88 6.845l-.333.295c-2.217 1.958-4.59 4.054-5.403 6.971-.451 1.615-.323 3.297.034 4.956.291 1.348.742 2.718 1.179 4.045.099.298.196.594.291.887.523 1.618.967 3.152 1.065 4.582.098 1.416-.145 2.7-.97 3.843-1.564 2.166-4.161 2.576-7.272 2.553a66.25 66.25 0 0 1-2.359-.071l-.16-.006a84.405 84.405 0 0 0-2.256-.076c-1.605-.025-3.214.039-4.694.408-2.083.519-4.055 1.387-5.971 2.231-.387.17-.77.339-1.153.504-2.301.993-4.557 1.851-6.985 2.026-2.691.194-5.508.348-8.187.056-2.676-.29-5.179-1.021-7.257-2.57-2.044-1.523-3.002-3.912-3.859-6.592-.119-.374-.236-.753-.355-1.136-.715-2.312-1.469-4.748-2.919-6.707-.91-1.23-2.11-2.236-3.381-3.138-.8-.567-1.656-1.109-2.492-1.64-.479-.304-.952-.604-1.405-.903-2.552-1.682-4.592-3.394-4.994-6.045-.4-2.639 1.102-4.858 3.082-7.226.29-.347.59-.697.894-1.052.71-.83 1.44-1.68 2.091-2.55.937-1.251 1.752-2.59 2.184-4.07.765-2.617.5-5.45.247-8.138-.034-.355-.067-.708-.098-1.057-.266-3.05-.337-5.863 1.088-8.254 2.901-4.867 8.71-7.656 14.325-8.931 5.326-1.21 10.925.214 16.212 2.079z"/><path d="M91.864 78.885c1.41.501 2.594 1.436 3.837 2.457l.206.17c1.16.955 2.387 1.964 3.843 2.595 1.512.656 3.219.82 4.815.974.311.03.618.059.918.092 1.892.206 3.56.533 4.828 1.679 2.651 2.396 4.309 6.419 3.785 9.957-.256 1.724-1.553 2.972-3.087 4.343l-.225.2c-1.419 1.264-2.985 2.658-3.523 4.604-.301 1.087-.213 2.211.02 3.302.189.885.484 1.786.766 2.648l.185.573c.338 1.051.617 2.03.679 2.936.061.892-.092 1.683-.593 2.384-.952 1.328-2.537 1.599-4.538 1.584a41.943 41.943 0 0 1-1.514-.046l-.103-.004c-.481-.02-.971-.041-1.457-.049-1.04-.017-2.095.025-3.071.27-1.359.341-2.645.913-3.88 1.461l-.738.326c-1.48.644-2.91 1.19-4.44 1.301-1.734.127-3.534.225-5.242.038-1.704-.187-3.282-.655-4.586-1.636-1.267-.952-1.872-2.453-2.424-4.195-.076-.24-.151-.484-.227-.732-.46-1.5-.955-3.115-1.908-4.414-.602-.821-1.392-1.487-2.218-2.078a39.092 39.092 0 0 0-1.62-1.075c-.307-.197-.609-.39-.895-.581-1.644-1.092-2.894-2.167-3.14-3.807-.246-1.631.669-3.017 1.946-4.559.184-.221.376-.447.57-.676.46-.541.936-1.101 1.36-1.671.608-.82 1.147-1.71 1.434-2.7.502-1.734.327-3.61.165-5.352l-.063-.685c-.172-1.984-.21-3.759.677-5.259 1.833-3.1 5.518-4.896 9.114-5.72 3.377-.773 6.942.135 10.344 1.345z"/></g><path fill="#D1D1D1" fill-rule="nonzero" stroke="#201C21" stroke-linejoin="round" d="M152.896 14.648a.5.5 0 0 0-.67.034l-12.414 12.414a.5.5 0 0 0 .037.741c6.416 5.24 9.656 13.007 9.656 23.392a.5.5 0 0 0 .853.353l12.415-12.414a.499.499 0 0 0 .146-.354c0-10.606-3.32-18.691-10.023-24.166z"/><path fill="#D1D1D1" fill-rule="nonzero" stroke="#201C21" stroke-linejoin="round" d="M123.389 6.5a.5.5 0 00-.353.146l-12.414 12.415a.5.5 0 00.353.853c12.899 0 22.494 2.67 28.872 7.922a.5.5 0 00.672-.032l12.414-12.415a.498.498 0 00-.035-.74C146.266 9.19 136.401 6.5 123.389 6.5zM162.919 38.814a.5.5 0 00-.853-.354l-12.415 12.415a.499.499 0 00-.146.353c0 5.474-1.554 10.317-4.659 14.545a.5.5 0 00.757.65l12.414-12.414a.489.489 0 00.049-.058c3.237-4.408 4.853-9.46 4.853-15.137z"/><path fill="#201C21" fill-rule="nonzero" stroke="#C81426" stroke-linejoin="round" d="M146.948 39.086a.503.503 0 0 0 .146-.353c0-6.656-1.945-11.586-5.934-14.664a.5.5 0 0 0-.659.043l-12.415 12.414a.503.503 0 0 0 .049.75c3.663 2.826 5.545 7.407 5.545 13.87a.5.5 0 0 0 .853.354l12.415-12.414z"/><path fill="#201C21" fill-rule="nonzero" stroke="#C81426" stroke-linejoin="round" d="M141.208 24.818a.5.5 0 0 0-.045-.747c-3.954-3.106-9.908-4.616-17.774-4.616a.5.5 0 0 0-.353.147l-12.414 12.414a.5.5 0 0 0 .353.854c7.768 0 13.457 1.496 17.156 4.402a.5.5 0 0 0 .663-.04l12.414-12.414z"/><path fill="#D1D1D1" fill-rule="nonzero" stroke="#201C21" stroke-linejoin="round" d="M158.064 53.954a.5.5 0 0 0-.754-.652l-12.415 12.414a.465.465 0 0 0-.047.055 27.882 27.882 0 0 1-2.65 3.069s0 0 0 0a.5.5 0 1 0 .707.707h0l12.414-12.415h0a28.69 28.69 0 0 0 2.745-3.178z"/><path fill="#201C21" fill-rule="nonzero" stroke="#C81426" stroke-linejoin="round" d="M128.865 63.658l-.006.006h0a.499.499 0 0 0 .707.707h0l.006-.005h0l12.408-12.409s0 0 0 0c3.418-3.416 5.114-7.84 5.114-13.225a.5.5 0 0 0-.853-.354l-12.415 12.415a.503.503 0 0 0-.146.353c0 5.154-1.613 9.309-4.815 12.512 0 0 0 0 0 0s0 0 0 0 0 0 0 0z"/><path fill="#D1D1D1" fill-rule="nonzero" stroke="#201C21" stroke-linejoin="round" d="M84.36 6.5a.5.5 0 0 0-.354.146L71.592 19.061a.5.5 0 0 0 .353.853h39.03a.5.5 0 0 0 .354-.146l12.414-12.414a.499.499 0 0 0-.354-.854h-39.03z"/><path fill="#201C21" fill-rule="nonzero" stroke="#C81426" stroke-linejoin="round" d="M123.743 20.309a.499.499 0 0 0-.354-.854h-23.286a.5.5 0 0 0-.354.147L87.335 32.016a.5.5 0 0 0 .354.854h23.286a.5.5 0 0 0 .354-.147l12.414-12.414z"/><path fill="#201C21" fill-rule="nonzero" stroke="#201C21" stroke-linejoin="round" d="M154.612 56.425l-.011.01s0 0 0 0 0 0 0 0l-.001.002c-2.738 2.736-6.098 4.964-10.09 6.68a.503.503 0 0 0-.156.106L131.94 75.638a.499.499 0 0 0 .551.812c4.1-1.763 7.575-4.063 10.414-6.903 0 0 0 0 0 0l12.403-12.404h0s0 0 0 0l.011-.01h0a.5.5 0 0 0-.707-.708h0z"/><path fill="#D1D1D1" fill-rule="nonzero" stroke="#201C21" stroke-linejoin="round" d="M140.043 52.368a.48.48 0 00-.034.032l-12.415 12.414a.5.5 0 00.673.739c.457-.38.89-.773 1.298-1.181h0l12.415-12.415h0a.5.5 0 00-.707-.707s0 0 0 0h-.001c-.386.386-.796.759-1.229 1.118zM144.843 63.095a.502.502 0 00-.489.128L131.94 75.637a.5.5 0 00.219.835c6.349 1.776 11.335 5.158 14.982 10.145a.498.498 0 00.757.058l12.414-12.414a.5.5 0 00.051-.649c-3.788-5.18-8.97-8.685-15.52-10.517z"/><path fill="#D1D1D1" fill-rule="nonzero" stroke="#201C21" stroke-linejoin="round" d="M160.359 73.608a.5.5 0 00-.753-.053l-12.415 12.414a.5.5 0 00-.046.654c3.699 4.932 5.558 10.837 5.558 17.738a.498.498 0 00.853.354l12.415-12.414a.503.503 0 00.146-.354c0-7.092-1.914-13.213-5.758-18.339zM123.882 57.419a.5.5 0 00-.354.146L111.114 69.98a.5.5 0 00.353.854c6.971 0 12.59-1.744 16.803-5.283a.469.469 0 00.032-.03l12.414-12.414a.5.5 0 00-.675-.736c-3.986 3.349-9.355 5.049-16.159 5.049zM100.603 19.955a.5.5 0 00-.854-.353L87.335 32.016a.5.5 0 00-.146.354v37.963a.5.5 0 00.853.354l12.414-12.415a.5.5 0 00.147-.353V19.955z"/><path fill="#201C21" fill-rule="nonzero" stroke="#C81426" stroke-linejoin="round" d="M150.145 92.465a.5.5 0 0 0 .147-.354c0-7.276-1.98-12.823-6.024-16.541-4.037-3.712-10.043-5.524-17.927-5.524a.499.499 0 0 0-.353.147l-12.415 12.414a.499.499 0 0 0 .354.854c7.749 0 13.468 1.782 17.249 5.259 3.773 3.47 5.701 8.706 5.701 15.805a.499.499 0 0 0 .854.354l12.414-12.414z"/><path fill="#D1D1D1" fill-rule="nonzero" stroke="#201C21" stroke-linejoin="round" d="M166.117 91.947a.5.5 0 00-.854-.354l-12.414 12.415a.498.498 0 00-.147.353c0 9.087-2.521 16.459-7.527 22.162l-2.739 2.739a.5.5 0 00.684.729 31.27 31.27 0 002.785-2.784l9.641-9.641c7.059-6.232 10.571-14.793 10.571-25.62zM100.103 57.419a.5.5 0 00-.354.146L87.335 69.98a.5.5 0 00.354.853h23.778c.133 0 .26-.052.354-.146l12.414-12.414a.499.499 0 00-.354-.854h-23.778z"/><path fill="#201C21" fill-rule="nonzero" stroke="#C81426" stroke-linejoin="round" d="M136.878 104.525c0 5.744-1.606 10.37-4.782 13.922l-1.468 1.468a.5.5 0 00.688.725 19.634 19.634 0 001.507-1.505l10.917-10.918c4.381-3.936 6.552-9.326 6.552-16.106a.5.5 0 00-.854-.354l-12.414 12.415a.497.497 0 00-.146.353zM126.695 70.9a.499.499 0 00-.354-.854h-26.238a.5.5 0 00-.354.147L87.335 82.607a.5.5 0 00.354.854h26.238c.133 0 .26-.053.353-.147L126.695 70.9z"/><path fill="#D1D1D1" fill-rule="nonzero" stroke="#201C21" stroke-linejoin="round" d="M126.095 113.012a.5.5 0 0 0-.354.146l-12.414 12.414a.5.5 0 0 0 .354.854c7.41 0 13.309-1.909 17.634-5.785l.02-.019 12.415-12.414a.502.502 0 0 0-.688-.726c-4.093 3.667-9.728 5.53-16.967 5.53z"/><path fill="#201C21" fill-rule="nonzero" stroke="#201C21" stroke-linejoin="round" d="M155.557 117.555a.501.501 0 00-.685-.729c-6.821 6.016-16.5 9.059-29.105 9.059a.5.5 0 00-.354.146l-12.414 12.414a.5.5 0 00.354.854c12.758 0 22.704-3.08 29.766-9.308l.023-.022 12.415-12.414zM84.713 126.738a.498.498 0 00.147-.353V7a.5.5 0 00-.854-.354L71.592 19.061a.5.5 0 00-.147.353V138.8a.5.5 0 00.854.354l12.414-12.415z"/><path fill="#D1D1D1" fill-rule="nonzero" stroke="#201C21" stroke-linejoin="round" d="M100.603 70.546a.5.5 0 0 0-.854-.353L87.335 82.607a.5.5 0 0 0-.146.354v42.965a.5.5 0 0 0 .853.354l12.414-12.415a.498.498 0 0 0 .147-.353V70.546z"/><path fill="#D1D1D1" fill-rule="nonzero" stroke="#201C21" stroke-linejoin="round" d="M100.103 113.011a.5.5 0 0 0-.354.147l-12.414 12.414a.5.5 0 0 0 .354.854h25.992c.133 0 .26-.053.353-.147l12.415-12.414a.499.499 0 0 0-.354-.854h-25.992z"/><path fill="#201C21" fill-rule="nonzero" stroke="#201C21" stroke-linejoin="round" d="M126.121 126.738a.499.499 0 0 0-.354-.853H84.36a.499.499 0 0 0-.354.146l-12.414 12.415a.499.499 0 0 0 .353.853h41.408c.132 0 .26-.053.353-.146l12.415-12.415z"/><path fill="#C81426" fill-rule="nonzero" d="M84.36 126.385V7h39.029c12.955 0 22.685 2.679 29.19 8.036 6.56 5.357 9.84 13.283 9.84 23.778 0 5.576-1.586 10.523-4.756 14.841-3.171 4.264-7.489 7.571-12.955 9.922 6.45 1.803 11.534 5.247 15.251 10.331 3.772 5.029 5.657 11.042 5.657 18.039 0 10.714-3.471 19.132-10.413 25.254-6.942 6.123-16.754 9.184-29.436 9.184H84.359zm15.742-55.839v42.966h25.993c7.325 0 13.092-1.886 17.301-5.658 4.264-3.827 6.395-9.074 6.395-15.743 0-14.377-7.816-21.565-23.45-21.565h-26.239zm0-12.627h23.779c6.888 0 12.381-1.722 16.481-5.166 4.154-3.444 6.232-8.117 6.232-14.02 0-6.56-1.914-11.316-5.74-14.268-3.826-3.006-9.648-4.51-17.465-4.51h-23.287V57.92z"/></g></svg>