<?xml version="1.0" encoding="UTF-8"?>
<svg width="180px" height="180px" viewBox="0 0 180 180" version="1.1" xmlns="http://www.w3.org/2000/svg" xmlns:xlink="http://www.w3.org/1999/xlink">
    <title>B</title>
    <g stroke="none" stroke-width="1" fill="none" fill-rule="evenodd">
        <g transform="translate(10.000000, 6.000000)">
            <g opacity="0.3" transform="translate(0.000000, 19.000000)" stroke="#C81426">
                <path d="M86.0197,6.2532 C90.861,7.9378 94.891,11.0653 98.959,14.3328 C99.173,14.5054 99.388,14.6785 99.604,14.8518 C103.441,17.9398 107.351,21.0871 111.978,23.0484 C116.76,25.0752 122.146,25.5845 127.386,26.0799 C128.42,26.1777 129.448,26.2749 130.465,26.3832 C136.685,27.0453 142.5,28.1161 146.957,32.0571 C155.907,39.9687 161.522,53.239 159.741,65.0033 C158.834,70.991 154.227,75.251 149.244,79.606 C149.022,79.8 148.799,79.993 148.577,80.188 C143.854,84.305 138.953,88.577 137.278,94.501 C136.358,97.753 136.613,101.165 137.359,104.582 C137.967,107.364 138.91,110.188 139.834,112.954 C140.042,113.579 140.25,114.201 140.453,114.819 C141.559,118.192 142.517,121.449 142.73,124.505 C142.942,127.547 142.415,130.36 140.576,132.873 C137.092,137.632 131.329,138.474 124.742,138.427 C123.103,138.415 121.426,138.349 119.732,138.279 L119.397,138.265 C117.815,138.199 116.219,138.132 114.639,138.107 C111.259,138.054 107.915,138.19 104.857,138.942 C100.505,140.011 96.387,141.799 92.335,143.558 C91.514,143.915 90.696,144.27 89.8796,144.617 C85.0085,146.692 80.1625,148.515 74.9278,148.887 C69.236,149.293 63.2331,149.617 57.5127,149.004 C51.7952,148.391 46.3949,146.845 41.8927,143.535 C37.4151,140.244 35.3481,135.101 33.5373,129.514 C33.2818,128.726 33.0315,127.928 32.7798,127.127 C31.2637,122.298 29.7006,117.319 26.6953,113.312 C24.82,110.812 22.3377,108.753 19.6697,106.888 C17.9869,105.711 16.2038,104.595 14.445,103.494 C13.4288,102.858 12.4207,102.227 11.4447,101.593 C6.0503,98.085 1.5317,94.398 0.6432,88.611 C-0.24214,82.846 3.1033,78.043 7.2807,73.1134 C7.903,72.379 8.5442,71.6411 9.1899,70.8979 C10.6879,69.1739 12.2101,67.4221 13.5765,65.6217 C15.5381,63.0372 17.2181,60.3047 18.1069,57.3055 C19.6937,51.9512 19.1427,46.1546 18.6084,40.5342 C18.538,39.7931 18.4678,39.055 18.4029,38.3215 C17.8405,31.9678 17.6641,25.9359 20.7775,20.7834 C27.0258,10.4425 39.4893,4.5724 51.4242,1.8995 C62.8537,-0.6601 74.8273,2.3586 86.0197,6.2532 Z"></path>
                <path d="M85.2819,14.2622 C89.5375,15.747 93.082,18.5043 96.667,21.3924 C96.857,21.5454 97.047,21.6988 97.238,21.8524 C100.618,24.5802 104.07,27.3663 108.156,29.1029 C112.379,30.8981 117.137,31.3491 121.755,31.7868 C122.666,31.8731 123.571,31.9589 124.466,32.0544 C129.947,32.6395 135.054,33.5848 138.967,37.0539 C146.841,44.0341 151.781,55.7424 150.214,66.1173 C149.419,71.3847 145.377,75.1361 140.982,78.987 C140.785,79.159 140.588,79.332 140.39,79.505 C136.232,83.14 131.9,86.926 130.419,92.178 C129.605,95.064 129.831,98.09 130.49,101.114 C131.026,103.576 131.858,106.075 132.672,108.519 C132.856,109.071 133.039,109.621 133.218,110.166 C134.193,113.148 135.034,116.02 135.222,118.713 C135.408,121.391 134.945,123.862 133.334,126.069 C130.283,130.249 125.233,130.995 119.428,130.953 C117.986,130.943 116.509,130.884 115.015,130.822 L114.719,130.81 C113.325,130.752 111.918,130.693 110.525,130.671 C107.545,130.624 104.592,130.744 101.889,131.41 C98.048,132.356 94.413,133.938 90.842,135.493 C90.119,135.808 89.3987,136.122 88.6798,136.429 C84.3876,138.262 80.1247,139.869 75.5221,140.197 C70.5059,140.555 65.2202,140.842 60.1847,140.3 C55.1522,139.759 50.4043,138.395 46.4479,135.479 C42.5183,132.583 40.7011,128.055 39.1051,123.117 C38.8803,122.422 38.6598,121.718 38.4381,121.009 C37.1024,116.743 35.7215,112.332 33.0664,108.783 C31.4083,106.566 29.2149,104.742 26.8613,103.093 C25.3773,102.052 23.8032,101.064 22.2521,100.091 C21.3568,99.529 20.4692,98.972 19.6109,98.412 C14.8566,95.312 10.8961,92.066 10.1172,86.98 C9.3413,81.913 12.2716,77.688 15.954,73.3299 C16.5014,72.6821 17.0659,72.0306 17.6347,71.3743 C18.9554,69.8501 20.2991,68.2995 21.5045,66.7069 C23.2352,64.4204 24.7204,61.9992 25.5065,59.3393 C26.9084,54.5963 26.4215,49.4618 25.9506,44.4964 C25.8885,43.8415 25.8267,43.1895 25.7695,42.5417 C25.2738,36.926 25.121,31.6132 27.8542,27.0775 C33.3488,17.9593 44.3138,12.7773 54.8257,10.4167 C64.8808,8.1587 75.4193,10.821 85.2819,14.2622 Z"></path>
                <path d="M84.5206,23.0771 C88.1397,24.3436 91.157,26.6963 94.218,29.1698 C94.381,29.3014 94.544,29.4333 94.707,29.5654 C97.59,31.8994 100.545,34.291 104.042,35.7821 C107.659,37.324 111.735,37.7114 115.677,38.086 C116.454,38.1598 117.225,38.2331 117.987,38.3147 C122.665,38.8156 127.003,39.6237 130.325,42.5771 C137.031,48.5395 141.236,58.5411 139.903,67.3976 C139.229,71.878 135.8,75.0735 132.045,78.374 C131.876,78.523 131.706,78.672 131.535,78.821 C127.99,81.929 124.277,85.184 123.006,89.703 C122.307,92.189 122.502,94.793 123.066,97.388 C123.524,99.5 124.236,101.644 124.931,103.737 C125.088,104.209 125.244,104.679 125.396,105.145 C126.229,107.698 126.945,110.149 127.104,112.446 C127.262,114.727 126.869,116.825 125.506,118.698 C122.925,122.245 118.649,122.885 113.695,122.849 C112.465,122.84 111.205,122.79 109.931,122.737 L109.678,122.727 C108.488,122.677 107.286,122.626 106.096,122.608 C103.549,122.567 101.021,122.67 98.704,123.242 C95.418,124.054 92.309,125.412 89.2601,126.744 C88.6434,127.013 88.0292,127.281 87.4166,127.544 C83.7533,129.112 80.124,130.484 76.2083,130.765 C71.9261,131.071 67.42,131.315 63.1287,130.853 C58.8404,130.391 54.8015,129.225 51.4381,126.739 C48.1041,124.274 46.5582,120.419 45.1957,116.19 C45.0042,115.596 44.8163,114.994 44.6272,114.388 C43.4873,110.736 42.3045,106.946 40.03,103.896 C38.6079,101.99 36.7284,100.423 34.7165,99.008 C33.4484,98.117 32.1014,97.269 30.7759,96.434 C30.0121,95.953 29.2554,95.477 28.5251,94.999 C24.4664,92.345 21.1123,89.581 20.4525,85.26 C19.7955,80.957 22.2745,77.362 25.4191,73.6295 C25.8852,73.0763 26.3663,72.5194 26.8515,71.9578 C27.9797,70.652 29.1293,69.3213 30.1598,67.9558 C31.6396,65.9949 32.9131,63.9139 33.5877,61.6247 C34.7885,57.5496 34.3713,53.1388 33.9693,48.8891 C33.9163,48.3283 33.8635,47.7703 33.8148,47.2163 C33.3915,42.407 33.2645,37.88 35.5845,34.0185 C40.26,26.2363 49.5968,21.8062 58.5623,19.7869 C67.124,17.8585 76.1029,20.1313 84.5206,23.0771 Z"></path>
                <path d="M83.6963,32.6921 C86.6259,33.7206 89.0709,35.6319 91.565,37.6531 C91.698,37.7613 91.832,37.8697 91.966,37.9784 C94.311,39.8829 96.726,41.8441 99.587,43.0673 C102.547,44.333 105.883,44.6509 109.093,44.9567 C109.724,45.0168 110.351,45.0765 110.969,45.1429 C114.777,45.5519 118.282,46.2104 120.963,48.6013 C126.403,53.4533 129.813,61.5931 128.733,68.7932 C128.189,72.4149 125.426,75.0042 122.364,77.703 C122.224,77.827 122.083,77.951 121.942,78.075 C119.061,80.608 116.018,83.283 114.976,87.001 C114.401,89.052 114.563,91.195 115.023,93.321 C115.398,95.052 115.98,96.809 116.546,98.519 C116.673,98.904 116.8,99.287 116.923,99.667 C117.601,101.752 118.181,103.745 118.31,105.608 C118.438,107.456 118.12,109.147 117.026,110.655 C114.953,113.511 111.517,114.037 107.484,114.008 C106.485,114 105.461,113.96 104.422,113.916 L104.216,113.907 C103.248,113.867 102.268,113.826 101.297,113.81 C99.221,113.777 97.153,113.861 95.254,114.331 C92.57,114.997 90.03,116.11 87.5468,117.197 C87.0453,117.417 86.5461,117.636 86.0485,117.849 C83.0665,119.131 80.1237,120.245 76.9521,120.473 C73.4652,120.723 69.8035,120.922 66.3184,120.545 C62.8364,120.169 59.5655,119.221 56.8446,117.203 C54.1558,115.209 52.9039,112.087 51.7942,108.633 C51.6388,108.149 51.4861,107.658 51.3324,107.164 C50.4046,104.181 49.4364,101.069 47.5742,98.564 C46.4078,96.996 44.8684,95.709 43.2266,94.551 C42.1925,93.822 41.0916,93.127 40.0106,92.444 C39.3891,92.052 38.7742,91.663 38.1825,91.275 C34.8773,89.107 32.1801,86.869 31.6495,83.383 C31.1213,79.912 33.1115,77.005 35.6734,73.9552 C36.0513,73.5053 36.4422,73.0514 36.8367,72.5934 C37.7563,71.5257 38.6957,70.435 39.5368,69.3171 C40.7448,67.7114 41.789,66.0016 42.3427,64.1168 C43.3257,60.7704 42.984,57.1489 42.6567,53.68 C42.6135,53.2219 42.5705,52.7665 42.5309,52.3147 C42.1861,48.3851 42.087,44.7154 43.9594,41.5893 C47.7476,35.2646 55.3203,31.6548 62.6107,30.0077 C69.5546,28.4389 76.844,30.2868 83.6963,32.6921 Z"></path>
                <path d="M82.8712,42.3076 C85.1113,43.0978 86.9844,44.5676 88.9109,46.1367 C89.0149,46.2214 89.1191,46.3064 89.2234,46.3915 C91.031,47.8666 92.907,49.3974 95.13,50.3528 C97.433,51.3425 100.031,51.5909 102.508,51.8279 C102.994,51.8744 103.476,51.9205 103.95,51.9716 C106.889,52.2888 109.56,52.7975 111.6,54.6257 C115.775,58.3673 118.39,64.6454 117.562,70.1894 C117.149,72.9527 115.051,74.9357 112.682,77.034 C112.572,77.132 112.461,77.23 112.349,77.329 C110.132,79.287 107.759,81.383 106.946,84.3 C106.495,85.915 106.623,87.597 106.98,89.256 C107.271,90.604 107.722,91.974 108.159,93.301 C108.258,93.599 108.355,93.895 108.45,94.188 C108.973,95.806 109.417,97.34 109.515,98.77 C109.613,100.186 109.37,101.47 108.545,102.613 C106.981,104.779 104.384,105.189 101.273,105.166 C100.504,105.161 99.715,105.129 98.914,105.095 L98.754,105.089 C98.007,105.057 97.249,105.025 96.498,105.013 C94.893,104.988 93.284,105.052 91.804,105.421 C89.7212,105.94 87.7493,106.808 85.8328,107.652 C85.4463,107.822 85.0621,107.991 84.6796,108.156 C82.379,109.149 80.1227,110.007 77.6953,110.182 C75.0037,110.376 72.1865,110.53 69.5077,110.238 C66.8322,109.948 64.3294,109.217 62.251,107.668 C60.2073,106.145 59.2491,103.756 58.3923,101.076 C58.273,100.702 58.1556,100.323 58.0371,99.94 C57.3216,97.628 56.568,95.192 55.1182,93.233 C54.2076,92.003 53.0082,90.997 51.7366,90.095 C50.9365,89.528 50.0815,88.986 49.2451,88.455 C48.766,88.151 48.2929,87.851 47.8397,87.552 C45.2883,85.87 43.2477,84.158 42.8461,81.507 C42.4464,78.868 43.9483,76.649 45.9275,74.281 C46.2173,73.9344 46.5179,73.5837 46.8218,73.229 C47.5328,72.3996 48.2619,71.5488 48.9135,70.6786 C49.8497,69.428 50.6645,68.0894 51.0972,66.6092 C51.8625,63.9915 51.5963,61.1595 51.3436,58.4714 C51.3102,58.116 51.277,57.7632 51.2465,57.4137 C50.9802,54.3638 50.909,51.5511 52.334,49.1603 C55.235,44.2932 61.0438,41.5038 66.6587,40.229 C71.9846,39.0199 77.5843,40.4427 82.8712,42.3076 Z"></path>
                <path d="M81.8638,53.8848 C83.2734,54.3863 84.4578,55.3211 85.7011,56.3423 C85.7695,56.3985 85.8382,56.455 85.9071,56.5118 C87.0672,57.4666 88.2937,58.4762 89.7499,59.1073 C91.262,59.7626 92.969,59.927 94.565,60.0806 C94.876,60.1105 95.183,60.14 95.483,60.1727 C97.375,60.3786 99.043,60.7059 100.311,61.852 C102.962,64.2481 104.62,68.2709 104.096,71.8092 C103.84,73.533 102.543,74.7814 101.009,76.152 C100.934,76.218 100.859,76.285 100.784,76.352 C99.365,77.616 97.799,79.01 97.261,80.956 C96.96,82.043 97.048,83.167 97.281,84.258 C97.47,85.143 97.765,86.044 98.047,86.906 C98.11,87.099 98.172,87.29 98.232,87.479 C98.57,88.53 98.849,89.509 98.911,90.415 C98.972,91.307 98.819,92.098 98.318,92.799 C97.366,94.127 95.781,94.398 93.78,94.383 C93.288,94.38 92.783,94.359 92.266,94.337 L92.163,94.333 C91.682,94.313 91.192,94.292 90.706,94.284 C89.6666,94.267 88.6113,94.309 87.6346,94.554 C86.2765,94.895 84.9895,95.467 83.7549,96.015 C83.507,96.125 83.2612,96.234 83.0173,96.341 C81.5371,96.985 80.1077,97.531 78.5769,97.642 C76.843,97.769 75.0428,97.867 73.3352,97.68 C71.631,97.493 70.0534,97.025 68.7487,96.044 C67.4817,95.092 66.8773,93.591 66.3249,91.849 C66.249,91.609 66.174,91.365 66.0981,91.117 C65.6381,89.617 65.1431,88.002 64.1901,86.703 C63.5876,85.882 62.7978,85.216 61.972,84.625 C61.4536,84.255 60.8948,83.897 60.3528,83.55 C60.0452,83.353 59.743,83.16 59.4567,82.969 C57.8132,81.877 56.5626,80.802 56.3162,79.162 C56.0713,77.531 56.9859,76.145 58.2631,74.6035 C58.4468,74.3819 58.6387,74.1561 58.8335,73.9268 C59.2931,73.386 59.7691,72.8259 60.1925,72.2556 C60.8014,71.4354 61.3397,70.5464 61.6266,69.5565 C62.1294,67.822 61.9542,65.9467 61.7915,64.2043 C61.7699,63.9735 61.7485,63.745 61.729,63.5194 C61.5572,61.5352 61.5195,59.7604 62.4061,58.2603 C64.2389,55.1591 67.9236,53.3639 71.5205,52.5403 C74.8974,51.7671 78.462,52.6746 81.8638,53.8848 Z"></path>
            </g>
            <path d="M142.896,8.6484 C142.697,8.486 142.408,8.5006 142.226,8.6821 L129.812,21.0965 C129.712,21.1964 129.659,21.334 129.666,21.4752 C129.673,21.6163 129.74,21.7479 129.849,21.8373 C136.265,27.077 139.505,34.844 139.505,45.2286 C139.505,45.4308 139.627,45.6131 139.814,45.6905 C140,45.7679 140.215,45.7251 140.358,45.5821 L152.773,33.1678 C152.867,33.074 152.919,32.9468 152.919,32.8142 C152.919,22.2081 149.599,14.1227 142.896,8.6484 Z" stroke="#201C21" fill="#D1D1D1" fill-rule="nonzero" stroke-linejoin="round"></path>
            <path d="M113.389,0.5 C113.257,0.5 113.13,0.55268 113.036,0.64645 L100.622,13.0608 C100.479,13.2038 100.436,13.4189 100.513,13.6057 C100.591,13.7926 100.773,13.9144 100.975,13.9144 C113.874,13.9144 123.469,16.5831 129.847,21.8359 C130.046,21.9995 130.337,21.9855 130.519,21.8035 L142.933,9.3891 C143.033,9.2894 143.086,9.1522 143.079,9.0114 C143.072,8.8706 143.006,8.7392 142.898,8.6495 C136.266,3.18831 126.401,0.5 113.389,0.5 Z" stroke="#201C21" fill="#D1D1D1" fill-rule="nonzero" stroke-linejoin="round"></path>
            <path d="M152.919,32.814 C152.919,32.6117 152.797,32.4294 152.61,32.352 C152.424,32.2746 152.209,32.3174 152.066,32.4604 L139.651,44.8748 C139.557,44.9686 139.505,45.0957 139.505,45.2283 C139.505,50.7022 137.951,55.5446 134.846,59.7735 C134.691,59.9843 134.725,60.2786 134.923,60.4488 C135.122,60.6191 135.418,60.6078 135.603,60.423 L148.017,48.0086 C148.035,47.9907 148.051,47.9714 148.066,47.951 C151.303,43.5431 152.919,38.4914 152.919,32.814 Z" stroke="#201C21" fill="#D1D1D1" fill-rule="nonzero" stroke-linejoin="round"></path>
            <path d="M136.948,33.086 C137.041,32.9923 137.094,32.8651 137.094,32.7325 C137.094,26.0773 135.149,21.1471 131.16,18.0694 C130.961,17.9159 130.679,17.934 130.501,18.1118 L118.086,30.5262 C117.985,30.6278 117.932,30.7683 117.941,30.9118 C117.95,31.0552 118.021,31.1878 118.135,31.2756 C121.798,34.1016 123.68,38.6829 123.68,45.1469 C123.68,45.3491 123.801,45.5314 123.988,45.6088 C124.175,45.6862 124.39,45.6434 124.533,45.5004 L136.948,33.086 Z" stroke="#C81426" fill="#201C21" fill-rule="nonzero" stroke-linejoin="round"></path>
            <path d="M131.208,18.8184 C131.309,18.7173 131.362,18.5777 131.354,18.435 C131.345,18.2922 131.276,18.16 131.163,18.0716 C127.209,14.9651 121.255,13.4551 113.389,13.4551 C113.257,13.4551 113.13,13.5078 113.036,13.6015 L100.622,26.0159 C100.479,26.1589 100.436,26.374 100.513,26.5608 C100.591,26.7476 100.773,26.8695 100.975,26.8695 C108.743,26.8695 114.432,28.366 118.131,31.2723 C118.33,31.4287 118.615,31.4117 118.794,31.2327 L131.208,18.8184 Z" stroke="#C81426" fill="#201C21" fill-rule="nonzero" stroke-linejoin="round"></path>
            <path d="M148.064,47.9536 C148.221,47.7434 148.188,47.4481 147.99,47.2769 C147.792,47.1056 147.495,47.1165 147.31,47.3017 L134.895,59.7161 C134.878,59.7333 134.862,59.7518 134.848,59.7713 C134.04,60.8572 133.157,61.8799 132.198,62.8396 C132.198,62.8396 132.198,62.8397 132.198,62.8397 C132.002,63.035 132.002,63.3515 132.198,63.5467 C132.393,63.742 132.71,63.7419 132.905,63.5467 L132.905,63.5466 L145.319,51.1323 L145.319,51.1322 C146.313,50.1382 147.228,49.0786 148.064,47.9536 Z" stroke="#201C21" fill="#D1D1D1" fill-rule="nonzero" stroke-linejoin="round"></path>
            <path d="M118.865,57.6585 L118.859,57.6641 L118.859,57.6642 C118.669,57.8599 118.671,58.1722 118.865,58.3655 C119.058,58.5587 119.37,58.5607 119.566,58.3715 L119.566,58.3715 L119.572,58.3655 L119.572,58.3654 L131.98,45.9571 C131.98,45.9571 131.98,45.957 131.98,45.957 C135.398,42.541 137.094,38.1173 137.094,32.7319 C137.094,32.5297 136.972,32.3474 136.786,32.27 C136.599,32.1926 136.384,32.2354 136.241,32.3784 L123.826,44.7928 C123.733,44.8865 123.68,45.0137 123.68,45.1463 C123.68,50.2996 122.067,54.4548 118.865,57.6582 C118.865,57.6582 118.865,57.6583 118.865,57.6584 C118.865,57.6584 118.865,57.6584 118.865,57.6585 C118.865,57.6585 118.865,57.6585 118.865,57.6585 Z" stroke="#C81426" fill="#201C21" fill-rule="nonzero" stroke-linejoin="round"></path>
            <path d="M74.3597,0.5 C74.2271,0.5 74.0999,0.55268 74.0061,0.64645 L61.5918,13.0608 C61.4488,13.2038 61.406,13.4189 61.4834,13.6057 C61.5608,13.7926 61.7431,13.9144 61.9453,13.9144 L100.975,13.9144 C101.108,13.9144 101.235,13.8617 101.329,13.7679 L113.743,1.35355 C113.886,1.21055 113.929,0.9955 113.851,0.80866 C113.774,0.62182 113.592,0.5 113.389,0.5 L74.3597,0.5 Z" stroke="#201C21" fill="#D1D1D1" fill-rule="nonzero" stroke-linejoin="round"></path>
            <path d="M113.743,14.3086 C113.886,14.1656 113.929,13.9506 113.851,13.7637 C113.774,13.5769 113.592,13.4551 113.389,13.4551 L90.103,13.4551 C89.9703,13.4551 89.8431,13.5078 89.7493,13.6015 L77.3349,26.0159 C77.1919,26.1589 77.1491,26.374 77.2265,26.5608 C77.3039,26.7476 77.4862,26.8695 77.6885,26.8695 L100.975,26.8695 C101.108,26.8695 101.235,26.8168 101.329,26.723 L113.743,14.3086 Z" stroke="#C81426" fill="#201C21" fill-rule="nonzero" stroke-linejoin="round"></path>
            <path d="M144.612,50.4253 L144.601,50.4357 C144.601,50.4357 144.601,50.4357 144.601,50.4357 C144.601,50.4358 144.601,50.4358 144.601,50.4358 C144.601,50.4364 144.6,50.4369 144.6,50.4375 C141.862,53.1729 138.502,55.4009 134.51,57.1174 C134.452,57.1424 134.399,57.1783 134.354,57.2232 L121.94,69.6375 C121.77,69.8071 121.745,70.0732 121.88,70.2717 C122.014,70.4701 122.271,70.5452 122.491,70.4504 C126.591,68.6872 130.066,66.3874 132.905,63.5467 C132.905,63.5467 132.905,63.5467 132.905,63.5467 L145.308,51.1431 L145.308,51.1429 C145.308,51.1429 145.308,51.1429 145.308,51.1429 L145.319,51.1323 L145.319,51.1321 C145.504,50.9362 145.5,50.6276 145.309,50.4359 C145.117,50.2441 144.808,50.2406 144.612,50.4255 L144.612,50.4253 Z" stroke="#201C21" fill="#201C21" fill-rule="nonzero" stroke-linejoin="round"></path>
            <path d="M130.043,46.3682 C130.031,46.3781 130.02,46.3886 130.009,46.3996 L117.594,58.814 C117.405,59.0028 117.398,59.3068 117.578,59.5042 C117.758,59.7017 118.061,59.7229 118.267,59.5525 C118.724,59.1738 119.157,58.7801 119.565,58.3715 L119.565,58.3715 L131.98,45.9572 L131.98,45.9571 C132.175,45.7618 132.175,45.4453 131.98,45.25 C131.785,45.0547 131.468,45.0547 131.273,45.2499 C131.273,45.2499 131.273,45.2499 131.273,45.25 C131.272,45.2502 131.272,45.2504 131.272,45.2507 C130.886,45.6364 130.476,46.009 130.043,46.3682 Z" stroke="#201C21" fill="#D1D1D1" fill-rule="nonzero" stroke-linejoin="round"></path>
            <path d="M134.843,57.0946 C134.669,57.046 134.482,57.0949 134.354,57.2226 L121.94,69.637 C121.814,69.7626 121.765,69.9455 121.81,70.1173 C121.855,70.2892 121.988,70.4242 122.159,70.4721 C128.508,72.2478 133.494,75.6299 137.141,80.617 C137.227,80.7349 137.36,80.8092 137.506,80.8204 C137.652,80.8317 137.795,80.7787 137.898,80.6755 L150.312,68.2611 C150.487,68.0868 150.508,67.8114 150.363,67.6124 C146.575,62.4322 141.393,58.9267 134.843,57.0946 Z" stroke="#201C21" fill="#D1D1D1" fill-rule="nonzero" stroke-linejoin="round"></path>
            <path d="M150.359,67.6082 C150.272,67.4922 150.139,67.4197 149.995,67.4095 C149.85,67.3992 149.708,67.4522 149.606,67.5546 L137.191,79.969 C137.015,80.145 136.996,80.4235 137.145,80.6226 C140.844,85.5553 142.703,91.4599 142.703,98.361 C142.703,98.564 142.824,98.746 143.011,98.823 C143.198,98.901 143.413,98.858 143.556,98.715 L155.971,86.3007 C156.064,86.2069 156.117,86.0797 156.117,85.9471 C156.117,78.8549 154.203,72.7335 150.359,67.6082 Z" stroke="#201C21" fill="#D1D1D1" fill-rule="nonzero" stroke-linejoin="round"></path>
            <path d="M113.882,51.4186 C113.749,51.4186 113.622,51.4713 113.528,51.5651 L101.114,63.9794 C100.971,64.1224 100.928,64.3375 101.005,64.5243 C101.083,64.7112 101.265,64.833 101.467,64.833 C108.438,64.833 114.057,63.0891 118.27,59.5502 C118.281,59.5409 118.292,59.5311 118.302,59.5209 L130.716,47.1065 C130.906,46.9172 130.912,46.6124 130.731,46.415 C130.55,46.2177 130.246,46.1979 130.041,46.3701 C126.055,49.7187 120.686,51.4186 113.882,51.4186 Z" stroke="#201C21" fill="#D1D1D1" fill-rule="nonzero" stroke-linejoin="round"></path>
            <path d="M90.603,13.9551 C90.603,13.7528 90.481,13.5705 90.294,13.4931 C90.107,13.4157 89.8923,13.4585 89.7493,13.6015 L77.3349,26.0159 C77.2412,26.1097 77.1885,26.2369 77.1885,26.3695 L77.1885,64.3332 C77.1885,64.5354 77.3103,64.7177 77.4971,64.7951 C77.684,64.8725 77.899,64.8297 78.042,64.6867 L90.456,52.2723 C90.55,52.1786 90.603,52.0514 90.603,51.9188 L90.603,13.9551 Z" stroke="#201C21" fill="#D1D1D1" fill-rule="nonzero" stroke-linejoin="round"></path>
            <path d="M140.145,86.4646 C140.239,86.3709 140.292,86.2437 140.292,86.1111 C140.292,78.8345 138.312,73.2883 134.268,69.5695 C130.231,65.858 124.225,64.0464 116.341,64.0464 C116.209,64.0464 116.081,64.0991 115.988,64.1928 L103.573,76.6072 C103.43,76.7502 103.387,76.9653 103.465,77.1521 C103.542,77.3389 103.725,77.4608 103.927,77.4608 C111.676,77.4608 117.395,79.2433 121.176,82.72 C124.949,86.1894 126.877,91.4256 126.877,98.525 C126.877,98.728 126.999,98.91 127.186,98.987 C127.373,99.065 127.588,99.022 127.731,98.879 L140.145,86.4646 Z" stroke="#C81426" fill="#201C21" fill-rule="nonzero" stroke-linejoin="round"></path>
            <path d="M156.117,85.9468 C156.117,85.7445 155.995,85.5622 155.808,85.4848 C155.621,85.4074 155.406,85.4502 155.263,85.5932 L142.849,98.008 C142.755,98.101 142.702,98.229 142.702,98.361 C142.702,107.448 140.181,114.82 135.175,120.523 L132.436,123.262 C132.245,123.453 132.24,123.761 132.425,123.958 C132.609,124.155 132.917,124.169 133.12,123.991 C134.118,123.11 135.047,122.182 135.905,121.207 L145.546,111.566 C152.605,105.334 156.117,96.773 156.117,85.9468 Z" stroke="#201C21" fill="#D1D1D1" fill-rule="nonzero" stroke-linejoin="round"></path>
            <path d="M90.103,51.4189 C89.9703,51.4189 89.8431,51.4716 89.7493,51.5654 L77.3349,63.9798 C77.1919,64.1228 77.1491,64.3378 77.2265,64.5247 C77.3039,64.7115 77.4862,64.8333 77.6885,64.8333 L101.467,64.8333 C101.6,64.8333 101.727,64.7806 101.821,64.6869 L114.235,52.2725 C114.378,52.1295 114.421,51.9144 114.343,51.7276 C114.266,51.5408 114.084,51.4189 113.881,51.4189 L90.103,51.4189 Z" stroke="#201C21" fill="#D1D1D1" fill-rule="nonzero" stroke-linejoin="round"></path>
            <path d="M126.878,98.525 C126.878,104.269 125.272,108.895 122.096,112.447 L120.628,113.915 C120.437,114.106 120.433,114.416 120.619,114.612 C120.805,114.809 121.114,114.821 121.316,114.64 C121.85,114.161 122.353,113.659 122.823,113.135 L133.74,102.217 C138.121,98.281 140.292,92.8909 140.292,86.1108 C140.292,85.9086 140.17,85.7263 139.983,85.6489 C139.796,85.5715 139.581,85.6143 139.438,85.7573 L127.024,98.172 C126.93,98.265 126.878,98.393 126.878,98.525 Z" stroke="#C81426" fill="#201C21" fill-rule="nonzero" stroke-linejoin="round"></path>
            <path d="M116.695,64.8999 C116.838,64.7569 116.881,64.5419 116.803,64.355 C116.726,64.1682 116.544,64.0464 116.341,64.0464 L90.103,64.0464 C89.9703,64.0464 89.8431,64.0991 89.7493,64.1928 L77.3349,76.6072 C77.1919,76.7502 77.1491,76.9653 77.2265,77.1521 C77.3039,77.3389 77.4862,77.4608 77.6885,77.4608 L103.927,77.4608 C104.06,77.4608 104.187,77.4081 104.28,77.3143 L116.695,64.8999 Z" stroke="#C81426" fill="#201C21" fill-rule="nonzero" stroke-linejoin="round"></path>
            <path d="M116.095,107.012 C115.962,107.012 115.835,107.064 115.741,107.158 L103.327,119.572 C103.184,119.715 103.141,119.931 103.219,120.117 C103.296,120.304 103.478,120.426 103.681,120.426 C111.091,120.426 116.99,118.517 121.315,114.641 C121.322,114.635 121.329,114.628 121.335,114.622 L133.75,102.208 C133.941,102.016 133.945,101.707 133.759,101.51 C133.573,101.314 133.264,101.301 133.062,101.482 C128.969,105.149 123.334,107.012 116.095,107.012 Z" stroke="#201C21" fill="#D1D1D1" fill-rule="nonzero" stroke-linejoin="round"></path>
            <path d="M145.557,111.555 C145.748,111.364 145.752,111.056 145.568,110.859 C145.383,110.662 145.075,110.648 144.872,110.826 C138.051,116.842 128.372,119.885 115.767,119.885 C115.634,119.885 115.507,119.937 115.413,120.031 L102.999,132.445 C102.856,132.588 102.813,132.804 102.891,132.99 C102.968,133.177 103.15,133.299 103.353,133.299 C116.111,133.299 126.057,130.219 133.119,123.991 C133.127,123.984 133.135,123.976 133.142,123.969 L145.557,111.555 Z" stroke="#201C21" fill="#201C21" fill-rule="nonzero" stroke-linejoin="round"></path>
            <path d="M74.7132,120.738 C74.807,120.645 74.8597,120.517 74.8597,120.385 L74.8597,1 C74.8597,0.79777 74.7379,0.61545 74.551,0.53806 C74.3642,0.46067 74.1491,0.50345 74.0061,0.64645 L61.5918,13.0608 C61.498,13.1546 61.4453,13.2818 61.4453,13.4144 L61.4453,132.799 C61.4453,133.001 61.5671,133.184 61.754,133.261 C61.9408,133.339 62.1559,133.296 62.2989,133.153 L74.7132,120.738 Z" stroke="#201C21" fill="#201C21" fill-rule="nonzero" stroke-linejoin="round"></path>
            <path d="M90.603,64.5464 C90.603,64.3442 90.481,64.1618 90.294,64.0844 C90.107,64.0071 89.8923,64.0498 89.7493,64.1928 L77.3349,76.6072 C77.2412,76.701 77.1885,76.8282 77.1885,76.9608 L77.1885,119.926 C77.1885,120.128 77.3103,120.311 77.4971,120.388 C77.684,120.466 77.899,120.423 78.042,120.28 L90.456,107.865 C90.55,107.772 90.603,107.644 90.603,107.512 L90.603,64.5464 Z" stroke="#201C21" fill="#D1D1D1" fill-rule="nonzero" stroke-linejoin="round"></path>
            <path d="M90.103,107.011 C89.9703,107.011 89.8431,107.064 89.7493,107.158 L77.3349,119.572 C77.1919,119.715 77.1491,119.93 77.2265,120.117 C77.3039,120.304 77.4862,120.426 77.6885,120.426 L103.681,120.426 C103.814,120.426 103.941,120.373 104.034,120.279 L116.449,107.865 C116.592,107.722 116.635,107.507 116.557,107.32 C116.48,107.133 116.298,107.011 116.095,107.011 L90.103,107.011 Z" stroke="#201C21" fill="#D1D1D1" fill-rule="nonzero" stroke-linejoin="round"></path>
            <path d="M116.121,120.738 C116.264,120.595 116.307,120.38 116.229,120.193 C116.152,120.007 115.969,119.885 115.767,119.885 L74.3597,119.885 C74.2271,119.885 74.0999,119.937 74.0061,120.031 L61.5918,132.446 C61.4488,132.589 61.406,132.804 61.4834,132.99 C61.5608,133.177 61.7431,133.299 61.9453,133.299 L103.353,133.299 C103.485,133.299 103.613,133.246 103.706,133.153 L116.121,120.738 Z" stroke="#201C21" fill="#201C21" fill-rule="nonzero" stroke-linejoin="round"></path>
            <path d="M74.3594,120.385 L74.3594,1 L113.389,1 C126.344,1 136.074,3.6785 142.579,9.0355 C149.139,14.3925 152.419,22.3187 152.419,32.8141 C152.419,38.3897 150.833,43.3368 147.663,47.6552 C144.492,51.9189 140.174,55.2261 134.708,57.5766 C141.158,59.3805 146.242,62.8243 149.959,67.908 C153.731,72.937 155.616,78.95 155.616,85.9469 C155.616,96.661 152.145,105.079 145.203,111.201 C138.261,117.324 128.449,120.385 115.767,120.385 L74.3594,120.385 Z M90.102,64.5462 L90.102,107.512 L116.095,107.512 C123.42,107.512 129.187,105.626 133.396,101.854 C137.66,98.027 139.791,92.7798 139.791,86.1109 C139.791,71.7344 131.975,64.5462 116.341,64.5462 L90.102,64.5462 Z M90.102,51.9189 L113.881,51.9189 C120.769,51.9189 126.262,50.197 130.362,46.7532 C134.516,43.3094 136.594,38.6357 136.594,32.7321 C136.594,26.1725 134.68,21.4168 130.854,18.4649 C127.028,15.4585 121.206,13.9552 113.389,13.9552 L90.102,13.9552 L90.102,51.9189 Z" fill="#C81426" fill-rule="nonzero"></path>
        </g>
    </g>
</svg>