<svg width="180" height="180" viewBox="0 0 180 180" fill="none" xmlns="http://www.w3.org/2000/svg">
<g opacity="0.3">
<path d="M95.7137 26.2294C100.538 27.9079 104.553 31.0241 108.606 34.28C108.82 34.4521 109.035 34.6245 109.249 34.7972C113.072 37.8742 116.969 41.0105 121.58 42.9649C126.345 44.9846 131.712 45.4922 136.933 45.9858C137.964 46.0832 138.989 46.1801 140.002 46.288C146.2 46.9478 151.993 48.0148 156.435 51.9414C165.352 59.8246 170.946 73.0471 169.172 84.7691C168.269 90.7347 163.678 94.9792 158.713 99.3186C158.492 99.5117 158.27 99.7049 158.048 99.8986C153.342 104.001 148.458 108.258 146.789 114.162C145.872 117.402 146.126 120.802 146.87 124.208C147.475 126.98 148.415 129.794 149.336 132.55C149.544 133.173 149.751 133.793 149.952 134.408C151.055 137.77 152.009 141.015 152.221 144.06C152.433 147.09 151.908 149.893 150.075 152.397C146.605 157.138 140.863 157.978 134.299 157.93C132.666 157.919 130.995 157.853 129.307 157.783L128.975 157.769C127.398 157.703 125.807 157.637 124.232 157.612C120.864 157.559 117.532 157.695 114.485 158.443C110.147 159.509 106.044 161.29 102.006 163.044C101.189 163.399 100.374 163.753 99.5598 164.099C94.7061 166.166 89.8775 167.983 84.6617 168.354C78.9901 168.758 73.0086 169.081 67.3087 168.47C61.6117 167.859 56.2309 166.318 51.745 163.021C47.2838 159.742 45.2243 154.618 43.42 149.051C43.1654 148.265 42.9159 147.47 42.6651 146.672C41.1545 141.86 39.5968 136.898 36.602 132.906C34.7331 130.415 32.2595 128.362 29.6008 126.504C27.924 125.331 26.1472 124.219 24.3946 123.122C23.382 122.488 22.3775 121.86 21.405 121.227C16.0298 117.732 11.5279 114.059 10.6426 108.293C9.76061 102.549 13.0936 97.7643 17.2562 92.8517C17.8763 92.12 18.5152 91.3846 19.1586 90.6441C20.6513 88.9263 22.1682 87.1805 23.5298 85.3866C25.4844 82.8112 27.1586 80.0882 28.0444 77.0993C29.6256 71.7637 29.0765 65.9872 28.5441 60.3868C28.4739 59.6484 28.404 58.9129 28.3393 58.182C27.7789 51.8509 27.6032 45.841 30.7052 40.7072C36.931 30.4036 49.3497 24.5546 61.2421 21.8912C72.6304 19.3408 84.5612 22.3487 95.7137 26.2294Z" stroke="#C81426"/>
<path d="M94.9786 34.2098C99.2187 35.6893 102.751 38.4366 106.323 41.3144C106.512 41.4669 106.702 41.6198 106.891 41.7729C110.259 44.4909 113.7 47.2673 117.771 48.9979C121.98 50.7867 126.722 51.2362 131.323 51.6723C132.23 51.7583 133.132 51.8438 134.024 51.939C139.486 52.522 144.574 53.4639 148.473 56.9203C156.318 63.8753 161.24 75.5416 159.679 85.879C158.887 91.1269 154.86 94.8645 150.481 98.7017C150.284 98.8735 150.088 99.0455 149.891 99.2179C145.747 102.84 141.43 106.613 139.954 111.847C139.143 114.723 139.368 117.738 140.025 120.752C140.559 123.205 141.388 125.696 142.2 128.131C142.383 128.681 142.565 129.229 142.743 129.772C143.715 132.743 144.553 135.605 144.74 138.288C144.926 140.956 144.465 143.418 142.86 145.617C139.82 149.782 134.789 150.525 129.004 150.483C127.567 150.473 126.095 150.414 124.607 150.352L124.312 150.34C122.923 150.282 121.521 150.224 120.133 150.202C117.163 150.155 114.22 150.275 111.527 150.938C107.699 151.881 104.077 153.458 100.519 155.007C99.7984 155.321 99.0807 155.633 98.3643 155.939C94.0873 157.766 89.8398 159.367 85.2539 159.695C80.2555 160.051 74.9887 160.336 69.9712 159.797C64.9568 159.258 60.2261 157.899 56.284 154.993C52.3689 152.108 50.5583 147.597 48.968 142.676C48.7439 141.983 48.5243 141.282 48.3034 140.576C46.9724 136.324 45.5963 131.929 42.9505 128.392C41.2981 126.184 39.1123 124.366 36.767 122.722C35.2882 121.685 33.7196 120.701 32.174 119.73C31.2819 119.17 30.3974 118.615 29.5423 118.058C24.8048 114.969 20.8591 111.735 20.0831 106.668C19.31 101.619 22.2293 97.4097 25.8987 93.0673C26.4441 92.4218 27.0066 91.7727 27.5733 91.1187C28.8895 89.5999 30.2284 88.0548 31.4296 86.4678C33.1542 84.1893 34.6343 81.7765 35.4177 79.1257C36.8146 74.3992 36.3294 69.2826 35.8602 64.3349C35.7984 63.6822 35.7367 63.0326 35.6798 62.3871C35.1858 56.7913 35.0337 51.4979 37.7568 46.9789C43.2316 37.8937 54.1571 32.7302 64.6315 30.3781C74.6504 28.1282 85.151 30.7809 94.9786 34.2098Z" stroke="#C81426"/>
<path d="M94.2196 42.9924C97.8256 44.2544 100.831 46.5985 103.882 49.0633C104.044 49.1943 104.207 49.3258 104.369 49.4574C107.242 51.7831 110.187 54.1664 113.672 55.6523C117.276 57.1889 121.338 57.5749 125.266 57.9481C126.04 58.0217 126.809 58.0948 127.568 58.176C132.229 58.6752 136.551 59.4804 139.861 62.4229C146.542 68.3637 150.732 78.3293 149.404 87.1537C148.732 91.6174 145.317 94.8012 141.575 98.0897C141.406 98.2382 141.236 98.387 141.066 98.5361C137.534 101.633 133.834 104.877 132.567 109.379C131.871 111.858 132.065 114.452 132.627 117.038C133.084 119.143 133.793 121.279 134.486 123.365C134.642 123.836 134.798 124.304 134.949 124.768C135.779 127.312 136.492 129.754 136.65 132.042C136.808 134.315 136.416 136.405 135.059 138.271C132.487 141.805 128.228 142.443 123.291 142.407C122.065 142.398 120.81 142.348 119.54 142.295L119.289 142.285C118.103 142.235 116.905 142.185 115.719 142.166C113.181 142.126 110.662 142.228 108.353 142.799C105.079 143.608 101.98 144.961 98.9421 146.288C98.3277 146.556 97.7157 146.823 97.1052 147.085C93.4549 148.648 89.8388 150.015 85.9373 150.294C81.6703 150.6 77.1803 150.843 72.9044 150.382C68.6316 149.922 64.6073 148.761 61.2562 146.283C57.9346 143.828 56.3943 139.986 55.0366 135.773C54.8458 135.181 54.6585 134.581 54.4701 133.977C53.3343 130.338 52.1556 126.561 49.889 123.522C48.4717 121.622 46.5987 120.06 44.5939 118.651C43.3303 117.762 41.988 116.917 40.6672 116.086C39.9061 115.607 39.1521 115.132 38.4244 114.656C34.3801 112.011 31.0386 109.258 30.3813 104.953C29.7267 100.666 32.1965 97.0841 35.3299 93.3648C35.7943 92.8137 36.2737 92.2587 36.7571 91.6992C37.8813 90.398 39.0269 89.072 40.0538 87.7112C41.5284 85.7572 42.7976 83.6834 43.4698 81.4021C44.6665 77.3411 44.2507 72.9455 43.8502 68.711C43.7973 68.1522 43.7447 67.5962 43.6961 67.0441C43.2744 62.2519 43.1479 57.7415 45.4594 53.8942C50.1179 46.1403 59.4209 41.7261 68.3544 39.714C76.8853 37.7925 85.8319 40.0571 94.2196 42.9924Z" stroke="#C81426"/>
<path d="M93.3985 52.574C96.3174 53.5986 98.7535 55.503 101.239 57.5171C101.372 57.6248 101.505 57.7329 101.638 57.8412C103.975 59.7389 106.382 61.6933 109.232 62.9122C112.182 64.1736 115.507 64.4904 118.705 64.7951C119.335 64.8551 119.959 64.9145 120.574 64.9806C124.37 65.3882 127.861 66.0443 130.532 68.4263C135.953 73.2608 139.35 81.3711 138.274 88.545C137.732 92.1531 134.98 94.7327 131.929 97.4225C131.789 97.5456 131.649 97.669 131.508 97.7927C128.637 100.317 125.605 102.983 124.566 106.688C123.993 108.732 124.154 110.868 124.613 112.987C124.986 114.711 125.566 116.462 126.13 118.166C126.257 118.55 126.384 118.931 126.507 119.309C127.182 121.387 127.759 123.373 127.888 125.229C128.015 127.071 127.698 128.755 126.609 130.257C124.544 133.103 121.121 133.626 117.103 133.597C116.107 133.59 115.086 133.549 114.052 133.506L113.846 133.498C112.881 133.457 111.905 133.416 110.937 133.401C108.869 133.368 106.807 133.451 104.916 133.92C102.241 134.583 99.7091 135.692 97.2352 136.776C96.7355 136.995 96.238 137.213 95.7423 137.426C92.7709 138.702 89.8387 139.813 86.6787 140.04C83.2042 140.289 79.5556 140.487 76.0831 140.112C72.6137 139.737 69.3547 138.792 66.6438 136.782C63.9651 134.795 62.7177 131.685 61.6119 128.243C61.4571 127.761 61.305 127.272 61.1518 126.779C60.2273 123.807 59.2624 120.705 57.4067 118.21C56.2443 116.646 54.7101 115.364 53.0741 114.211C52.0437 113.484 50.9465 112.791 49.8694 112.111C49.2501 111.72 48.6374 111.333 48.0478 110.946C44.7544 108.785 42.0675 106.556 41.5389 103.083C41.0126 99.6256 42.9952 96.7295 45.5481 93.69C45.9246 93.2417 46.3141 92.7895 46.7072 92.3331C47.6235 91.2692 48.5597 90.1823 49.3978 89.0683C50.6016 87.4682 51.6422 85.7643 52.194 83.886C53.1737 80.551 52.8331 76.942 52.507 73.4855C52.4639 73.029 52.4211 72.5752 52.3816 72.1251C52.038 68.2094 51.9394 64.5532 53.8048 61.4388C57.5792 55.1372 65.1244 51.5404 72.3887 49.8992C79.3075 48.336 86.5706 50.1772 93.3985 52.574Z" stroke="#C81426"/>
<path d="M92.5761 62.1555C94.808 62.9428 96.6742 64.4072 98.5939 65.9707C98.6975 66.0551 98.8013 66.1398 98.9053 66.2246C100.707 67.6944 102.576 69.22 104.792 70.1721C107.087 71.1584 109.675 71.4059 112.144 71.6421C112.628 71.6884 113.108 71.7343 113.58 71.7852C116.509 72.1013 119.17 72.6082 121.202 74.4295C125.362 78.1575 127.967 84.4127 127.142 89.9364C126.731 92.6891 124.641 94.6646 122.281 96.7556C122.171 96.8532 122.06 96.9511 121.949 97.0493C119.74 99.0008 117.375 101.09 116.564 103.996C116.115 105.606 116.243 107.283 116.599 108.935C116.888 110.279 117.338 111.644 117.773 112.966C117.871 113.263 117.969 113.559 118.063 113.851C118.585 115.462 119.026 116.991 119.124 118.416C119.221 119.827 118.979 121.106 118.158 122.244C116.6 124.401 114.013 124.81 110.914 124.788C110.147 124.782 109.361 124.751 108.562 124.717L108.403 124.71C107.659 124.679 106.903 124.647 106.155 124.635C104.555 124.61 102.952 124.674 101.477 125.041C99.4018 125.558 97.4368 126.423 95.5271 127.264C95.142 127.434 94.7591 127.602 94.378 127.767C92.0855 128.756 89.8375 129.611 87.4191 129.785C84.737 129.979 81.9299 130.132 79.2609 129.842C76.595 129.552 74.1015 128.824 72.0307 127.281C69.9948 125.764 69.0402 123.383 68.1864 120.713C68.0675 120.341 67.9505 119.963 67.8325 119.581C67.1195 117.277 66.3685 114.85 64.9237 112.898C64.0161 111.671 62.8208 110.668 61.5537 109.77C60.7564 109.205 59.9044 108.665 59.0708 108.136C58.5934 107.833 58.1221 107.534 57.6706 107.236C55.1282 105.56 53.0955 103.855 52.6954 101.213C52.2973 98.5853 53.7934 96.3744 55.7656 94.0149C56.0543 93.6694 56.3538 93.32 56.6567 92.9666C57.3651 92.1401 58.0917 91.2923 58.741 90.4251C59.6739 89.1789 60.486 87.8448 60.9172 86.3696C61.6799 83.7609 61.4146 80.9386 61.1628 78.26C61.1295 77.9059 61.0965 77.5544 61.0661 77.2061C60.8007 74.167 60.7298 71.3648 62.1494 68.9831C65.0398 64.1339 70.8274 61.3545 76.4222 60.0843C81.7286 58.8796 87.308 60.2972 92.5761 62.1555Z" stroke="#C81426"/>
<path d="M91.5724 73.6914C92.9766 74.191 94.1565 75.1223 95.3955 76.1399C95.4637 76.1959 95.5321 76.2522 95.6008 76.3088C96.7567 77.2602 97.9791 78.2663 99.4304 78.8953C100.938 79.5484 102.639 79.7122 104.229 79.8653C104.539 79.8951 104.845 79.9245 105.144 79.9571C107.029 80.1623 108.69 80.4884 109.953 81.63C112.595 84.0172 114.246 88.0252 113.724 91.5503C113.47 93.2672 112.177 94.5108 110.649 95.8762C110.575 95.9426 110.5 96.0093 110.424 96.0763C109.011 97.335 107.45 98.7245 106.914 100.664C106.614 101.748 106.702 102.868 106.934 103.955C107.122 104.838 107.416 105.736 107.697 106.595C107.759 106.787 107.822 106.977 107.882 107.165C108.218 108.212 108.496 109.188 108.557 110.09C108.618 110.979 108.467 111.767 107.967 112.464C107.02 113.788 105.441 114.057 103.447 114.043C102.957 114.039 102.453 114.019 101.939 113.997L101.836 113.993C101.357 113.972 100.868 113.951 100.383 113.944C99.348 113.927 98.2963 113.969 97.3228 114.213C95.9695 114.553 94.6869 115.123 93.4566 115.669C93.2096 115.779 92.9646 115.887 92.7217 115.993C91.2467 116.635 89.8226 117.179 88.2975 117.29C86.5698 117.416 84.7762 117.514 83.0748 117.327C81.3769 117.141 79.8052 116.675 78.5055 115.698C77.2434 114.75 76.6413 113.255 76.0909 111.518C76.0153 111.28 75.9406 111.036 75.865 110.789C75.4066 109.294 74.9132 107.685 73.9634 106.391C73.3629 105.572 72.5758 104.908 71.7528 104.32C71.2362 103.95 70.6793 103.594 70.1392 103.248C69.8327 103.052 69.5316 102.859 69.2463 102.67C67.6087 101.581 66.3632 100.51 66.1178 98.8765C65.8739 97.2527 66.7847 95.8716 68.0574 94.336C68.2404 94.1152 68.4316 93.8902 68.6257 93.6618C69.0837 93.1229 69.5581 92.5647 69.98 91.9964C70.5868 91.179 71.1233 90.293 71.4093 89.3063C71.9105 87.5776 71.7358 85.7086 71.5736 83.9724C71.5521 83.7424 71.5309 83.5147 71.5114 83.29C71.3402 81.3128 71.3027 79.5449 72.1858 78.0506C74.0118 74.961 77.6828 73.1723 81.2668 72.3517C84.6311 71.5814 88.1827 72.4855 91.5724 73.6914Z" stroke="#C81426"/>
</g>
<path d="M155.755 98.66C154.311 111.016 149.738 120.563 142.035 127.302C134.387 133.988 124.197 137.331 111.467 137.331C97.6677 137.331 86.5958 132.384 78.2517 122.489C69.9612 112.593 65.8159 99.3553 65.8159 82.7742V71.5419C65.8159 60.6839 67.7415 51.1364 71.5926 42.8994C73.9867 37.8486 76.9842 33.5218 80.5851 29.919C82.8566 27.6462 85.3684 25.6614 88.1202 23.9648C95.234 19.5254 103.471 17.3057 112.831 17.3057C125.24 17.3057 135.189 20.7823 142.677 27.7357C150.166 34.6356 154.525 44.2098 155.755 56.4584H140.27C138.933 47.1516 136.018 40.4122 131.525 36.2402C127.086 32.0682 120.854 29.9822 112.831 29.9822C104.411 29.9822 97.5377 32.6444 92.2106 37.969C91.3111 38.868 90.4558 39.8428 89.6446 40.8936C84.0819 48.1679 81.3005 58.5177 81.3005 71.943V83.2556C81.3005 95.9321 83.9481 106.015 89.2434 113.503C94.5386 120.991 101.947 124.735 111.467 124.735C120.025 124.735 126.578 122.81 131.124 118.958C135.724 115.054 138.773 108.288 140.27 98.66H155.755Z" fill="black"/>
<path d="M167.061 45.1524C165.831 32.9038 161.472 23.3296 153.983 16.4297L142.678 27.7353C150.166 34.6351 154.525 44.2094 155.755 56.458L167.061 45.1524Z" fill="black"/>
<path d="M153.983 16.43C146.495 9.47668 136.546 6 124.137 6L112.832 17.3056C125.241 17.3056 135.189 20.7823 142.678 27.7356L153.983 16.43Z" fill="black"/>
<path d="M167.414 45.5064C167.557 45.3634 167.6 45.1483 167.523 44.9615C167.445 44.7747 167.263 44.6528 167.061 44.6528H151.576C151.443 44.6528 151.316 44.7055 151.223 44.7993L139.917 56.1049C139.774 56.2479 139.731 56.4629 139.809 56.6498C139.886 56.8366 140.068 56.9584 140.271 56.9584H155.755C155.888 56.9584 156.015 56.9057 156.109 56.812L167.414 45.5064Z" fill="black" stroke="#C81426" stroke-linejoin="round"/>
<path d="M151.93 45.5064C152.041 45.395 152.093 45.2376 152.071 45.0817C150.726 35.7191 147.782 28.85 143.171 24.5682C142.974 24.3852 142.668 24.3908 142.477 24.581L131.172 35.8866C131.076 35.9826 131.023 36.1136 131.025 36.2494C131.028 36.3852 131.086 36.5141 131.185 36.6065C135.56 40.6688 138.446 47.2785 139.776 56.5295C139.803 56.7169 139.933 56.873 140.113 56.9328C140.292 56.9926 140.49 56.9458 140.624 56.8119L151.93 45.5064Z" fill="black" stroke="#C81426" stroke-linejoin="round"/>
<path d="M143.185 25.2883C143.28 25.1927 143.333 25.0623 143.331 24.927C143.329 24.7917 143.272 24.6631 143.173 24.5704C138.615 20.2865 132.246 18.1768 124.137 18.1768C124.005 18.1768 123.877 18.2294 123.784 18.3232L112.478 29.6288C112.335 29.7718 112.292 29.9868 112.37 30.1737C112.447 30.3605 112.629 30.4823 112.832 30.4823C120.769 30.4823 126.863 32.5446 131.183 36.6047C131.38 36.7897 131.688 36.7849 131.879 36.5939L143.185 25.2883Z" fill="black" stroke="#C81426" stroke-linejoin="round"/>
<path d="M124.137 6C114.777 6 106.54 8.21973 99.4257 12.6592L88.1201 23.9648C95.2339 19.5253 103.471 17.3056 112.831 17.3056L124.137 6Z" fill="black"/>
<path d="M124.49 19.0303C124.633 18.8873 124.676 18.6723 124.599 18.4854C124.521 18.2986 124.339 18.1768 124.137 18.1768C115.601 18.1768 108.595 20.8802 103.163 26.3099L103.162 26.31L91.857 37.6155L91.8569 37.6156C91.6617 37.8108 91.6616 38.1274 91.8569 38.3227C92.0521 38.5179 92.3686 38.518 92.5639 38.3228C92.5639 38.3228 92.564 38.3227 92.564 38.3227C97.7859 33.1034 104.527 30.4823 112.831 30.4823C112.964 30.4823 113.091 30.4297 113.185 30.3359L124.49 19.0303Z" fill="black" stroke="#C81426" stroke-linejoin="round"/>
<path d="M99.4257 12.6592C96.6738 14.3558 94.1621 16.3405 91.8905 18.6134L80.6012 29.9027C82.8686 27.6366 85.3748 25.6573 88.1201 23.9648L99.4257 12.6592Z" fill="black"/>
<path d="M100.95 29.5877C101.758 28.5408 102.61 27.5692 103.506 26.6729L92.2105 37.9687C91.3111 38.8676 90.4558 39.8425 89.6445 40.8933L100.95 29.5877Z" fill="black"/>
<path d="M167.061 87.354H151.576L140.271 98.6596H155.755L167.061 87.354Z" fill="black"/>
<path d="M83.3497 31.8078C83.3251 31.8595 83.2919 31.9067 83.2514 31.9472L71.9458 43.2528C71.7738 43.4248 71.503 43.448 71.3042 43.3079C71.1054 43.1677 71.0363 42.9048 71.1405 42.685C73.5568 37.5876 76.5861 33.2124 80.2311 29.5654L80.2312 29.5653L91.5367 18.2598L91.5368 18.2597C91.732 18.0645 92.0486 18.0645 92.2439 18.2597C92.4391 18.4549 92.4392 18.7714 92.244 18.9667C92.244 18.9668 92.2439 18.9668 92.2439 18.9668L83.3497 31.8078ZM83.3497 31.8078C85.7214 26.8045 88.6865 22.5266 92.2424 18.9683L83.3497 31.8078Z" fill="black" stroke="#C81426" stroke-linejoin="round"/>
<path d="M167.061 87.354C165.617 99.7096 161.043 109.257 153.341 115.997L145.536 123.802C144.451 125.042 143.285 126.209 142.036 127.302L145.536 123.802C151.139 117.392 154.545 109.012 155.755 98.6596L167.061 87.354Z" fill="black"/>
<path d="M92.6059 60.6373C92.6059 47.212 95.3872 36.8622 100.95 29.5879L89.6443 40.8935C84.0816 48.1678 81.3003 58.5176 81.3003 71.9429L92.6059 60.6373Z" fill="black"/>
<path d="M151.576 87.354C150.078 96.9817 147.03 103.748 142.43 107.652L133.183 116.899C132.535 117.656 131.849 118.343 131.124 118.958L133.183 116.899C136.646 112.85 139.009 106.77 140.27 98.6596L151.576 87.354Z" fill="black"/>
<path d="M77.4751 60.5898C77.5688 60.496 77.6215 60.3689 77.6215 60.2362C77.6215 49.4375 79.5364 39.9647 83.3511 31.8055C83.4539 31.5856 83.3839 31.3236 83.1851 31.1843C82.9864 31.045 82.7162 31.0686 82.5446 31.2402L71.239 42.5458C71.1979 42.5869 71.1642 42.6349 71.1396 42.6876C67.2521 51.0025 65.3159 60.6247 65.3159 71.5418C65.3159 71.7441 65.4377 71.9264 65.6246 72.0038C65.8114 72.0812 66.0265 72.0384 66.1695 71.8954L77.4751 60.5898Z" fill="black" stroke="#C81426" stroke-linejoin="round"/>
<path d="M92.6059 71.9503V60.6377L81.3003 71.9433V83.2559L92.6059 71.9503Z" fill="black"/>
<path d="M142.429 107.653C137.883 111.504 131.331 113.429 122.773 113.429L111.467 124.735C120.025 124.735 126.577 122.81 131.124 118.958L142.429 107.653Z" fill="black"/>
<path d="M153.694 116.35C153.885 116.159 153.89 115.852 153.706 115.655C153.522 115.458 153.215 115.443 153.012 115.62C145.476 122.208 135.414 125.525 122.773 125.525C122.64 125.525 122.513 125.578 122.419 125.672L111.114 136.977C110.971 137.12 110.928 137.336 111.005 137.522C111.083 137.709 111.265 137.831 111.467 137.831C124.287 137.831 134.603 134.463 142.364 127.679C142.373 127.671 142.381 127.664 142.389 127.656L153.694 116.35Z" fill="black" stroke="#C81426" stroke-linejoin="round"/>
<path d="M77.4751 71.8222C77.5688 71.7285 77.6215 71.6013 77.6215 71.4687V60.2363C77.6215 60.0341 77.4997 59.8518 77.3128 59.7744C77.126 59.697 76.9109 59.7398 76.7679 59.8828L65.4624 71.1884C65.3686 71.2821 65.3159 71.4093 65.3159 71.5419V82.7743C65.3159 82.9765 65.4377 83.1588 65.6246 83.2362C65.8114 83.3136 66.0265 83.2708 66.1695 83.1278L77.4751 71.8222Z" fill="black" stroke="#C81426" stroke-linejoin="round"/>
<path d="M100.549 102.197C95.2535 94.7091 92.6059 84.6267 92.6059 71.9502L81.3003 83.2558C81.3003 95.9323 83.9479 106.015 89.2432 113.503L100.549 102.197Z" fill="black"/>
<path d="M122.773 113.43C113.252 113.43 105.844 109.686 100.549 102.197L89.2437 113.503C94.5389 120.991 101.947 124.735 111.468 124.735L122.773 113.43Z" fill="black"/>
<path d="M89.9109 111.536C90.0941 111.353 90.107 111.06 89.9406 110.862C81.7448 101.079 77.6215 87.966 77.6215 71.4683C77.6215 71.266 77.4997 71.0837 77.3128 71.0063C77.126 70.9289 76.9109 70.9717 76.7679 71.1147L65.4624 82.4203C65.3686 82.5141 65.3159 82.6412 65.3159 82.7738C65.3159 99.4383 69.4832 112.801 77.8685 122.809C77.9585 122.917 78.0896 122.982 78.2297 122.988C78.3699 122.994 78.5061 122.941 78.6053 122.842L89.9109 111.536Z" fill="black" stroke="#C81426" stroke-linejoin="round"/>
<path d="M123.127 126.379C123.27 126.236 123.313 126.021 123.235 125.835C123.158 125.648 122.975 125.526 122.773 125.526C109.11 125.526 98.1819 120.635 89.9398 110.861C89.8495 110.754 89.7186 110.689 89.5787 110.684C89.4389 110.678 89.303 110.731 89.204 110.83L77.8984 122.135C77.7148 122.319 77.7023 122.612 77.8697 122.811C86.3157 132.827 97.5316 137.831 111.468 137.831C111.6 137.831 111.727 137.779 111.821 137.685L123.127 126.379Z" fill="black" stroke="#C81426" stroke-linejoin="round"/>
<path d="M167.061 87.3543C165.616 99.7099 161.043 109.257 153.341 115.997C145.692 122.683 135.503 126.026 122.773 126.026C108.973 126.026 97.9014 121.078 89.5574 111.183C81.2669 101.288 77.1216 88.0497 77.1216 71.4686V60.2362C77.1216 49.3783 79.0471 39.8308 82.8982 31.5937C86.8028 23.3567 92.312 17.0451 99.4258 12.6592C106.54 8.21973 114.777 6 124.137 6C136.546 6 146.495 9.47668 153.983 16.43C161.471 23.3299 165.83 32.9042 167.061 45.1528H151.576C150.239 35.846 147.324 29.1066 142.831 24.9345C138.391 20.7625 132.16 18.6765 124.137 18.6765C114.295 18.6765 106.566 22.3137 100.95 29.5879C95.3875 36.8622 92.6062 47.212 92.6062 60.6374V71.95C92.6062 84.6265 95.2538 94.7088 100.549 102.197C105.844 109.685 113.252 113.429 122.773 113.429C131.331 113.429 137.883 111.504 142.43 107.653C147.03 103.748 150.078 96.9821 151.576 87.3543H167.061Z" fill="#C81426"/>
</svg>
