<svg xmlns="http://www.w3.org/2000/svg" width="400" height="400" fill="none" viewBox="0 0 400 400"><g opacity=".34"><mask id="a" fill="#fff"><path fill-rule="evenodd" d="M325.048 120.558c13.532 0 25.784-5.741 34.651-15.024 8.862-9.277 14.343-22.09 14.343-36.243 0-28.312-21.937-51.268-48.994-51.268-13.533 0-25.785 5.742-34.651 15.024-8.862 9.277-14.343 22.091-14.343 36.244.03 28.303 21.946 51.236 48.994 51.267zm-25.968-78.45c6.648-6.953 15.827-11.257 25.968-11.268 20.292 0 36.745 17.217 36.745 38.45 0 10.622-4.115 20.237-10.767 27.195-6.65 6.955-15.834 11.256-25.978 11.256-20.296 0-36.746-17.213-36.746-38.45.009-10.615 4.126-20.225 10.778-27.182zM115.947 168.071c7.165.012 14.043-2.961 19.108-8.268l8.634-9.035 18.995-19.878 18.996-19.879 8.634-9.037 36.886 38.598c10.55 11.039 27.652 11.039 38.202 0l.03-.029-.007.007-.016.015-.005.005.034-.033-.003.003.002-.002.002-.002c-.003.004-.005.006 0 .001l-.008.007-.008.008.007-.007-.018.017.011-.01c-.001.001-.003.003 0 0l-.018.017.036-.034-.011.01-.01.01.021-.021c10.52-11.045 10.52-28.916 0-39.961l-53.48-55.946c-11.955-12.51-31.338-12.51-43.297 0l-11.227 11.747-24.698 25.842-24.698 25.842-11.226 11.746c-7.721 8.092-10.024 20.255-5.837 30.819 4.19 10.56 14.039 17.448 24.969 17.448zm-10.472-39.18l11.224-11.749 24.698-25.85 24.699-25.853 11.228-11.753c7.174-7.504 18.804-7.504 25.98 0l53.477 55.98c5.747 6.036 5.747 15.802 0 21.838l-.006.006-.013.014-.014.014a.028.028 0 01-.006.006c-5.771 6.021-15.11 6.021-20.882 0L194.644 88.41c-2.392-2.504-6.267-2.504-8.66 0l-9.314 9.742-20.486 21.427-20.485 21.426-9.31 9.737c-5.852 5.86-15.083 5.845-20.914-.038-5.733-6.033-5.733-15.78 0-21.813zM288.302 184.642h61.243c13.528 0 24.497 11.478 24.497 25.634 0 7.081-2.744 13.491-7.178 18.13-4.433 4.636-10.556 7.504-17.319 7.504h-91.864c-10.149 0-18.373-8.605-18.373-19.226v-25.633a6.56 6.56 0 011.795-4.531l5.741-6.008 12.631-13.217 12.632-13.218 5.741-6.008c1.749-1.83 4.384-2.378 6.672-1.386 2.29.992 3.782 3.326 3.782 5.917v32.042zm-30.621 38.451h91.864c3.383 0 6.446-1.435 8.663-3.756 2.215-2.319 3.585-5.522 3.585-9.061 0-7.078-5.484-12.817-12.248-12.817h-67.367c-3.382 0-6.124-2.869-6.124-6.408v-22.98l-3.828 4.005-8.421 8.811-8.421 8.812-3.827 4.005v22.98c0 3.539 2.742 6.409 6.124 6.409zM164.152 268.593l-29.569-30.941c-2.431-2.403-6.232-2.403-8.66 0l-17.033 17.824-37.472 39.212L33.946 333.9l-17.033 17.824c-10.55 11.036-10.55 28.932 0 39.968v.032c10.552 11.023 27.642 11.023 38.195 0L72.141 373.9l37.473-39.211 37.472-39.211 17.033-17.823c2.401-2.494 2.413-6.549.033-9.062zm-29.355 21.653L98.81 327.899l-35.987 37.652-16.357 17.114c-5.765 6.02-15.104 6.02-20.87 0h-.023c-5.769-6.03-5.769-15.812 0-21.841l16.35-17.118 35.981-37.666 35.984-37.669 16.359-17.126 20.909 21.885-16.359 17.116z" clip-rule="evenodd"/><path fill-rule="evenodd" d="M157.501 201.567c3.331-3.484 7.531-6.059 12.249-7.356 9.434-2.591 19.476.335 26.27 7.657l70.901 74.191c6.744 7.056 9.961 17.001 8.702 26.892-.9 7.055-4.002 13.51-8.708 18.431a30.765 30.765 0 0 1-6.423 5.137l-9.799 5.889-75.537 42.509a25.578 25.578 0 0 1-13.217 3.677c-9.704.003-18.672-5.41-23.528-14.2l-.87-1.68c-6.129-11.281-4.007-25.117 4.361-33.871a27.19 27.19 0 0 1 5.701-4.549l58.022-32.354-47.849-50.057c-7-7.112-9.793-17.62-7.314-27.492 1.241-4.939 3.705-9.337 7.039-12.824zm96.909 113.81a18.314 18.314 0 0 0 3.887-3.101c2.806-2.937 4.653-6.79 5.182-10.999.796-5.939-1.124-11.925-5.185-16.156l-70.931-74.204c-5.781-6.048-15.152-6.048-20.933 0-5.78 6.049-5.78 15.856 0 21.904l53.689 56.171c1.376 1.436 2.016 3.467 1.732 5.476a6.515 6.515 0 0 1-1.727 3.59 6.122 6.122 0 0 1-1.449 1.122l-65.169 36.329a14.883 14.883 0 0 0-2.936 2.38c-4.593 4.808-5.732 12.402-2.354 18.57l.876 1.68c4.115 7.303 13.08 9.785 20.11 5.57l85.208-48.332z" clip-rule="evenodd"/></mask><path fill="#000" fill-rule="evenodd" d="M325.048 120.558c13.532 0 25.784-5.741 34.651-15.024 8.862-9.277 14.343-22.09 14.343-36.243 0-28.312-21.937-51.268-48.994-51.268-13.533 0-25.785 5.742-34.651 15.024-8.862 9.277-14.343 22.091-14.343 36.244.03 28.303 21.946 51.236 48.994 51.267zm-25.968-78.45c6.648-6.953 15.827-11.257 25.968-11.268 20.292 0 36.745 17.217 36.745 38.45 0 10.622-4.115 20.237-10.767 27.195-6.65 6.955-15.834 11.256-25.978 11.256-20.296 0-36.746-17.213-36.746-38.45.009-10.615 4.126-20.225 10.778-27.182zM115.947 168.071c7.165.012 14.043-2.961 19.108-8.268l8.634-9.035 18.995-19.878 18.996-19.879 8.634-9.037 36.886 38.598c10.55 11.039 27.652 11.039 38.202 0l.03-.029-.007.007-.016.015-.005.005.034-.033-.003.003.002-.002.002-.002c-.003.004-.005.006 0 .001l-.008.007-.008.008.007-.007-.018.017.011-.01c-.001.001-.003.003 0 0l-.018.017.036-.034-.011.01-.01.01.021-.021c10.52-11.045 10.52-28.916 0-39.961l-53.48-55.946c-11.955-12.51-31.338-12.51-43.297 0l-11.227 11.747-24.698 25.842-24.698 25.842-11.226 11.746c-7.721 8.092-10.024 20.255-5.837 30.819 4.19 10.56 14.039 17.448 24.969 17.448zm-10.472-39.18l11.224-11.749 24.698-25.85 24.699-25.853 11.228-11.753c7.174-7.504 18.804-7.504 25.98 0l53.477 55.98c5.747 6.036 5.747 15.802 0 21.838l-.006.006-.013.014-.014.014a.028.028 0 01-.006.006c-5.771 6.021-15.11 6.021-20.882 0L194.644 88.41c-2.392-2.504-6.267-2.504-8.66 0l-9.314 9.742-20.486 21.427-20.485 21.426-9.31 9.737c-5.852 5.86-15.083 5.845-20.914-.038-5.733-6.033-5.733-15.78 0-21.813zM288.302 184.642h61.243c13.528 0 24.497 11.478 24.497 25.634 0 7.081-2.744 13.491-7.178 18.13-4.433 4.636-10.556 7.504-17.319 7.504h-91.864c-10.149 0-18.373-8.605-18.373-19.226v-25.633a6.56 6.56 0 011.795-4.531l5.741-6.008 12.631-13.217 12.632-13.218 5.741-6.008c1.749-1.83 4.384-2.378 6.672-1.386 2.29.992 3.782 3.326 3.782 5.917v32.042zm-30.621 38.451h91.864c3.383 0 6.446-1.435 8.663-3.756 2.215-2.319 3.585-5.522 3.585-9.061 0-7.078-5.484-12.817-12.248-12.817h-67.367c-3.382 0-6.124-2.869-6.124-6.408v-22.98l-3.828 4.005-8.421 8.811-8.421 8.812-3.827 4.005v22.98c0 3.539 2.742 6.409 6.124 6.409zM164.152 268.593l-29.569-30.941c-2.431-2.403-6.232-2.403-8.66 0l-17.033 17.824-37.472 39.212L33.946 333.9l-17.033 17.824c-10.55 11.036-10.55 28.932 0 39.968v.032c10.552 11.023 27.642 11.023 38.195 0L72.141 373.9l37.473-39.211 37.472-39.211 17.033-17.823c2.401-2.494 2.413-6.549.033-9.062zm-29.355 21.653L98.81 327.899l-35.987 37.652-16.357 17.114c-5.765 6.02-15.104 6.02-20.87 0h-.023c-5.769-6.03-5.769-15.812 0-21.841l16.35-17.118 35.981-37.666 35.984-37.669 16.359-17.126 20.909 21.885-16.359 17.116z" clip-rule="evenodd"/><path fill="#000" fill-rule="evenodd" d="M157.501 201.567c3.331-3.484 7.531-6.059 12.249-7.356 9.434-2.591 19.476.335 26.27 7.657l70.901 74.191c6.744 7.056 9.961 17.001 8.702 26.892-.9 7.055-4.002 13.51-8.708 18.431a30.765 30.765 0 0 1-6.423 5.137l-9.799 5.889-75.537 42.509a25.578 25.578 0 0 1-13.217 3.677c-9.704.003-18.672-5.41-23.528-14.2l-.87-1.68c-6.129-11.281-4.007-25.117 4.361-33.871a27.19 27.19 0 0 1 5.701-4.549l58.022-32.354-47.849-50.057c-7-7.112-9.793-17.62-7.314-27.492 1.241-4.939 3.705-9.337 7.039-12.824zm96.909 113.81a18.314 18.314 0 0 0 3.887-3.101c2.806-2.937 4.653-6.79 5.182-10.999.796-5.939-1.124-11.925-5.185-16.156l-70.931-74.204c-5.781-6.048-15.152-6.048-20.933 0-5.78 6.049-5.78 15.856 0 21.904l53.689 56.171c1.376 1.436 2.016 3.467 1.732 5.476a6.515 6.515 0 0 1-1.727 3.59 6.122 6.122 0 0 1-1.449 1.122l-65.169 36.329a14.883 14.883 0 0 0-2.936 2.38c-4.593 4.808-5.732 12.402-2.354 18.57l.876 1.68c4.115 7.303 13.08 9.785 20.11 5.57l85.208-48.332z" clip-rule="evenodd"/><path stroke="#C81426" stroke-width="1.205" d="M325.048 120.558c13.532 0 25.784-5.741 34.651-15.024 8.862-9.277 14.343-22.09 14.343-36.243 0-28.312-21.937-51.268-48.994-51.268-13.533 0-25.785 5.742-34.651 15.024-8.862 9.277-14.343 22.091-14.343 36.244.03 28.303 21.946 51.236 48.994 51.267zm-25.968-78.45c6.648-6.953 15.827-11.257 25.968-11.268 20.292 0 36.745 17.217 36.745 38.45 0 10.622-4.115 20.237-10.767 27.195-6.65 6.955-15.834 11.256-25.978 11.256-20.296 0-36.746-17.213-36.746-38.45.009-10.615 4.126-20.225 10.778-27.182zM115.947 168.071c7.165.012 14.043-2.961 19.108-8.268l8.634-9.035 18.995-19.878 18.996-19.879 8.634-9.037 36.886 38.598c10.55 11.039 27.652 11.039 38.202 0l.03-.029-.007.007-.016.015-.005.005.034-.033-.003.003.002-.002.002-.002c-.003.004-.005.006 0 .001l-.008.007-.008.008.007-.007-.018.017.011-.01c-.001.001-.003.003 0 0l-.018.017.036-.034-.011.01-.01.01.021-.021c10.52-11.045 10.52-28.916 0-39.961l-53.48-55.946c-11.955-12.51-31.338-12.51-43.297 0l-11.227 11.747-24.698 25.842-24.698 25.842-11.226 11.746c-7.721 8.092-10.024 20.255-5.837 30.819 4.19 10.56 14.039 17.448 24.969 17.448zm-10.472-39.18l11.224-11.749 24.698-25.85 24.699-25.853 11.228-11.753c7.174-7.504 18.804-7.504 25.98 0l53.477 55.98c5.747 6.036 5.747 15.802 0 21.838l-.006.006-.013.014-.014.014a.028.028 0 01-.006.006c-5.771 6.021-15.11 6.021-20.882 0L194.644 88.41c-2.392-2.504-6.267-2.504-8.66 0l-9.314 9.742-20.486 21.427-20.485 21.426-9.31 9.737c-5.852 5.86-15.083 5.845-20.914-.038-5.733-6.033-5.733-15.78 0-21.813zM288.302 184.642h61.243c13.528 0 24.497 11.478 24.497 25.634 0 7.081-2.744 13.491-7.178 18.13-4.433 4.636-10.556 7.504-17.319 7.504h-91.864c-10.149 0-18.373-8.605-18.373-19.226v-25.633a6.56 6.56 0 011.795-4.531l5.741-6.008 12.631-13.217 12.632-13.218 5.741-6.008c1.749-1.83 4.384-2.378 6.672-1.386 2.29.992 3.782 3.326 3.782 5.917v32.042zm-30.621 38.451h91.864c3.383 0 6.446-1.435 8.663-3.756 2.215-2.319 3.585-5.522 3.585-9.061 0-7.078-5.484-12.817-12.248-12.817h-67.367c-3.382 0-6.124-2.869-6.124-6.408v-22.98l-3.828 4.005-8.421 8.811-8.421 8.812-3.827 4.005v22.98c0 3.539 2.742 6.409 6.124 6.409zM164.152 268.593l-29.569-30.941c-2.431-2.403-6.232-2.403-8.66 0l-17.033 17.824-37.472 39.212L33.946 333.9l-17.033 17.824c-10.55 11.036-10.55 28.932 0 39.968v.032c10.552 11.023 27.642 11.023 38.195 0L72.141 373.9l37.473-39.211 37.472-39.211 17.033-17.823c2.401-2.494 2.413-6.549.033-9.062zm-29.355 21.653L98.81 327.899l-35.987 37.652-16.357 17.114c-5.765 6.02-15.104 6.02-20.87 0h-.023c-5.769-6.03-5.769-15.812 0-21.841l16.35-17.118 35.981-37.666 35.984-37.669 16.359-17.126 20.909 21.885-16.359 17.116z" clip-rule="evenodd" mask="url(#a)"/><path stroke="#C81426" stroke-width="1.205" d="M157.501 201.567c3.331-3.484 7.531-6.059 12.249-7.356 9.434-2.591 19.476.335 26.27 7.657l70.901 74.191c6.744 7.056 9.961 17.001 8.702 26.892-.9 7.055-4.002 13.51-8.708 18.431a30.765 30.765 0 0 1-6.423 5.137l-9.799 5.889-75.537 42.509a25.578 25.578 0 0 1-13.217 3.677c-9.704.003-18.672-5.41-23.528-14.2l-.87-1.68c-6.129-11.281-4.007-25.117 4.361-33.871a27.19 27.19 0 0 1 5.701-4.549l58.022-32.354-47.849-50.057c-7-7.112-9.793-17.62-7.314-27.492 1.241-4.939 3.705-9.337 7.039-12.824zm96.909 113.81a18.314 18.314 0 0 0 3.887-3.101c2.806-2.937 4.653-6.79 5.182-10.999.796-5.939-1.124-11.925-5.185-16.156l-70.931-74.204c-5.781-6.048-15.152-6.048-20.933 0-5.78 6.049-5.78 15.856 0 21.904l53.689 56.171c1.376 1.436 2.016 3.467 1.732 5.476a6.515 6.515 0 0 1-1.727 3.59 6.122 6.122 0 0 1-1.449 1.122l-65.169 36.329a14.883 14.883 0 0 0-2.936 2.38c-4.593 4.808-5.732 12.402-2.354 18.57l.876 1.68c4.115 7.303 13.08 9.785 20.11 5.57l85.208-48.332z" clip-rule="evenodd" mask="url(#a)"/><path fill="#000" stroke="#C81426" stroke-linejoin="round" stroke-width=".602" d="M325.747 17.727l15.698-16.426c26.78.073 48.502 22.787 48.564 50.846l-15.671 16.398c-.378-27.88-21.915-50.43-48.591-50.818z"/><path fill="#000" stroke="#C81426" stroke-linejoin="round" stroke-width=".602" d="M325.746 30.546l15.699-16.428c20.016.073 36.253 17.048 36.315 38.029l-15.672 16.4c-.375-20.803-16.43-37.617-36.342-38.001zM375.75 88.303l-10.869 11.373c5.929-8.492 9.437-18.951 9.462-30.265l15.661-16.387c-.192 13.774-5.603 26.222-14.254 35.279zM324.919 17.722c-10.817.03-20.814 3.703-28.928 9.907l10.892-11.398h0c8.658-9.063 20.56-14.728 33.724-14.925l-15.688 16.416z"/><path fill="#000" stroke="#C81426" stroke-linejoin="round" stroke-width=".602" d="M303.941 37.457c5.955-4.33 13.182-6.882 20.978-6.918l15.685-16.413c-9.77.206-18.599 4.433-25.038 11.167l-11.625 12.164zm0 0l11.625-12.164-11.625 12.164zM367.076 79.253L355.498 91.37c4.139-6.234 6.573-13.8 6.596-21.958l15.659-16.386c-.19 10.242-4.236 19.49-10.677 26.228h0z"/><path fill="#000" stroke="#C81426" stroke-linejoin="round" stroke-width=".602" d="M310.874 30.203c.37-.558.754-1.105 1.151-1.641L299.08 42.108c-6.56 6.861-10.655 16.302-10.775 26.743l.306-.32m22.263-38.328l-11.577 12.113h0c-6.44 6.736-10.486 15.98-10.686 26.215m22.263-38.328l1.382-1.447c-4.812 6.5-7.678 14.655-7.686 23.511m6.304-22.064c-4.138 6.231-6.574 13.791-6.604 21.943m-15.659 16.385c-.003.147-.005.295-.006.442l15.965-16.706m-15.959 16.264l15.659-16.385m0 0l-.001.12.301.001m-.3-.121l.083-.087.217.208M362.435 84.11l-11.627 12.166s0 0 0 0c-6.441 6.737-15.275 10.961-25.049 11.157l15.686-16.414c7.801-.028 15.032-2.578 20.99-6.909z"/><path fill="#000" stroke="#C81426" stroke-linejoin="round" stroke-width=".602" d="M359.481 105.325h0c-8.658 9.065-20.56 14.729-33.724 14.926l15.688-16.416c10.817-.029 20.814-3.703 28.928-9.907l-10.892 11.397zM290.615 33.254l10.868-11.373c-5.929 8.492-9.437 18.952-9.462 30.265L276.36 68.533c.192-13.773 5.603-26.222 14.255-35.279zM288.604 69.41l15.672-16.399c.375 20.805 16.427 37.616 36.342 38.001l-15.699 16.427c-20.019-.072-36.253-17.045-36.315-38.028z"/><path fill="#000" stroke="#C81426" stroke-linejoin="round" stroke-width=".602" d="M292.027 53.012c.406 27.87 21.923 50.4 48.59 50.818l-15.698 16.426c-26.771-.103-48.472-22.796-48.564-50.845l15.672-16.399zM350.24 184.351l15.702-16.431c13.252.072 24.005 11.309 24.067 25.212l-15.676 16.403c-.368-13.727-10.944-24.806-24.093-25.184z"/><path fill="#000" stroke="#C81426" stroke-linejoin="round" stroke-width=".602" d="M281.293 83.549l-15.852 16.587-53.063-55.51L228.23 28.04l53.063 55.51zM350.231 197.177l15.71-16.44c6.489.072 11.758 5.571 11.819 12.395l-15.685 16.413c-.35-6.657-5.454-12.009-11.844-12.368zM374.343 210.397l15.655-16.382c-.189 6.699-2.861 12.742-7.084 17.159h0l-12.437 13.014c2.429-3.989 3.844-8.718 3.866-13.791zM374.259 202.106l-13.56 14.189a13.542 13.542 0 001.395-5.898l15.644-16.37c-.184 3.152-1.479 5.985-3.479 8.079z"/><path fill="#000" stroke="#C81426" stroke-linejoin="round" stroke-width=".602" d="M203.721 53.685l15.852-16.587 53.06 55.544-15.852 16.587-53.06-55.544zM281.491 123.303l-12.271 12.841c6.846-10.996 5.725-25.834-3.364-35.571l15.852-16.587c10.192 10.947 10.12 28.464-.217 39.317zM227.812 27.605L211.96 44.192c-10.62-10.898-26.894-12.165-38.831-3.802l12.021-12.578s0 0 0 0c11.774-12.317 30.81-12.386 42.662-.207zM285.025 146.589l15.833-16.567c2.033.97 3.367 3.079 3.41 5.435l-15.701 16.43c-.232-2.271-1.561-4.277-3.542-5.298zM365.943 206.37a12.055 12.055 0 005.641-1.465l-13.593 14.224h0c-2.004 2.098-4.713 3.451-7.72 3.64l15.672-16.399zM289.007 184.341L304.7 167.92h60.409l-15.693 16.421h-60.409z"/><path fill="#000" stroke="#C81426" stroke-linejoin="round" stroke-width=".602" d="M272.831 114.272l-13.308 13.926c3.114-5.902 2.338-13.448-2.328-18.531l15.852-16.586c5.42 5.935 5.348 15.348-.216 21.191zM294.334 131.254c1.561-1.633 3.856-2.19 5.925-1.477l-15.815 16.549a6.173 6.173 0 00-4.499-.016l14.389-15.056zM180.823 50.46l12.987-13.589s0 0 0 0c6.989-7.31 18.272-7.379 25.345-.207l-15.852 16.588c-6.158-6.233-15.403-7.163-22.48-2.791zM379.128 215.136l-12.482 13.061s0 0 0 0c-4.223 4.417-9.995 7.206-16.386 7.4l15.682-16.41c4.852-.026 9.374-1.509 13.186-4.051z"/><mask id="b" fill="#fff"><path d="M281.707 123.513c-.003.003-.005.005 0 0l-16.268 17.023c-.005.005-.003.003 0 0l16.268-17.023z"/></mask><path fill="#000" d="M281.707 123.513c-.003.003-.005.005 0 0l-16.268 17.023c-.005.005-.003.003 0 0l16.268-17.023z"/><path fill="#C81426" d="M281.707 123.513l.218.208v-.001l-.218-.207zm-.219-.207l.437.414-.437-.414zm.001-.001l-16.268 17.023.436.416 16.268-17.023-.436-.416zm.218.208l-.413-.438-.005.005.418.433zm0 0l.418.434v-.001l-.418-.433zm0 0l.42.432a.603.603 0 0 0-.833-.871l.413.439zm-16.268 17.023l.418.433a.601.601 0 0 0-.832-.871l.414.438zm0 0l-.414-.438-.005.005.419.433zm15.85-17.456l-.003.002-.002.002-.001.001-.001.001-.003.003-.005.005-.006.007-.008.008-.02.023a1.136 1.136 0 0 0-.122.244c.178.584.852.68.923.639a.965.965 0 0 0 .047-.035l.012-.01.009-.009a.014.014 0 0 0 .004-.003l.005-.005.001-.001.006-.005-.836-.867c-.003.002-.002.002-.001 0l.002-.001.004-.005.004-.003a.092.092 0 0 1 .009-.008.15.15 0 0 1 .013-.011l.046-.035c.072-.041.745.055.923.639a1.148 1.148 0 0 1-.121.244l-.02.023-.008.008-.007.007-.005.005-.003.003-.001.001-.001.001s0 .001 0 0l.002-.002-.836-.866zm.836.866l.002-.001-.839-.864v-.001l.837.866zm-.831-.872v.001l.826.876-.826-.877zm-16.273 17.029l-.002.001.001-.001.003-.003.005-.004a.06.06 0 0 1 .007-.006.232.232 0 0 1 .035-.029 1.17 1.17 0 0 1 .663-.046c.286.374.194.872.171.903l-.025.029a.065.065 0 0 0-.008.009l-.01.009-.004.004-.002.002v.001l.002-.002-.837-.867-.003.003-.001.001-.002.002-.004.004-.01.01-.008.009a.455.455 0 0 0-.025.028c-.023.031-.115.529.171.903.307.078.638-.027.663-.045l.027-.022.008-.007.007-.007.005-.004.003-.002.001-.002.005-.005-.836-.866zm.831.871l.001-.001-.828-.875.827.876z" mask="url(#b)"/><path fill="#000" stroke="#C81426" stroke-linejoin="round" stroke-width=".602" d="M281.496 123.298h0l-.001.001-.002.003-.002.001-.003.003-.006.007h-.001l-.002.002.017-.017z"/><mask id="c" fill="#fff"><path d="M281.707 123.514l-.004.003-16.268 17.023.003-.003 16.269-17.023z"/></mask><path fill="#000" d="M281.707 123.514l-.004.003-16.268 17.023.003-.003 16.269-17.023z"/><path fill="#C81426" d="M281.703 123.517l-.418-.433a.137.137 0 0 0-.017.017l.435.416zm.004-.003l-.419-.434-.017.017.436.417zm-16.269 17.023l.419.433.017-.017-.436-.416zm-.003.003l-.435-.416a.602.602 0 0 0 .853.849l-.418-.433zm16.687-16.59l.003-.003v-.001.001l-.001.001-.001.001-.003.003a.032.032 0 0 0-.008.007l-.02.017c-.04.031-.829-.057-.877-.811l.056-.068a.03.03 0 0 0 .008-.008l.005-.004a.012.012 0 0 1 .002-.003l.001-.001.001-.001h0l.837.867.001-.001v-.001h.001l.001-.001.001-.001.002-.002.005-.005.008-.008c.005-.006.034-.039.056-.068-.048-.753-.837-.842-.877-.811a.53.53 0 0 0-.02.018l-.008.006-.003.004-.001.001h-.001l-.001.001-.004.005.837.866zm-.851-.853l-16.268 17.024.871.832 16.268-17.023-.871-.833zm-16.251 17.006l-.003.004.836.866.004-.003-.837-.867zm.85.853l16.269-17.023-.871-.832L265 140.124l.87.832z" mask="url(#c)"/><mask id="d" fill="#fff"><path d="M281.703 123.517l.003-.003-16.269 17.023-.002.003c-.001 0-.002.001 0 0l16.268-17.023z"/></mask><path fill="#000" d="M281.703 123.517l.003-.003-16.269 17.023-.002.003c-.001 0-.002.001 0 0l16.268-17.023z"/><path fill="#C81426" d="M281.706 123.514l.435.416a.601.601 0 0 0-.854-.849l.419.433zm-.003.003l.435.416a.602.602 0 0 0-.853-.85l.418.434zm-16.268 17.023l.418.433.017-.017-.435-.416zm.002-.003l.419.434.017-.018-.436-.416zm15.85-17.456l-.007.007-.002.002-.009.009a.082.082 0 0 0-.008.009l-.025.028a.654.654 0 0 0-.049.07 1.113 1.113 0 0 0-.078.205c.003.225.298.631.578.708a1.08 1.08 0 0 0 .292-.067.709.709 0 0 0 .061-.036l.037-.027a.425.425 0 0 0 .021-.018l.008-.006.005-.006.005-.003.001-.002.002-.001.002-.003-.836-.867.001-.001.002-.001.001-.002.004-.004.006-.005.007-.007a.186.186 0 0 0 .021-.017l.038-.028.061-.036c.038-.018.183-.06.292-.067.279.077.575.484.577.709a1.04 1.04 0 0 1-.077.204.555.555 0 0 1-.082.107l-.009.009-.002.003c-.003.002-.004.004-.001 0l-.837-.866zm-.019.02L265 140.123l.87.833 16.268-17.023-.87-.832zm-16.269 17.023l.871.832h.001l-.872-.832zm.018-.018l.002-.001.001-.002.004-.004.01-.008.021-.019s.026-.021.06-.042l.059-.033a1.11 1.11 0 0 1 .186-.054c.142-.001.483.155.622.348.047.154.039.385.018.455a.963.963 0 0 1-.076.145l-.025.033-.02.022-.012.013-.007.007-.004.004-.001.001-.001.001-.838-.865-.003.002-.001.002-.004.004-.007.007-.012.013a.382.382 0 0 0-.019.022.564.564 0 0 0-.102.178 1.06 1.06 0 0 0 .018.455c.139.193.48.349.622.348.063-.011.156-.041.187-.055a.58.58 0 0 0 .058-.032c.034-.021.06-.042.06-.042a.644.644 0 0 0 .022-.019l.009-.008.004-.004.002-.002.001-.001.002-.002-.836-.867zm.837.867l.002-.002-.837-.867-.003.003.838.866zm.019-.02l16.268-17.023-.871-.832-16.268 17.023.871.832z" mask="url(#d)"/><mask id="e" fill="#fff"><path d="M281.709 123.511l-.01.01-16.269 17.023.011-.01 16.268-17.023z"/></mask><path fill="#000" d="M281.709 123.511l-.01.01-16.269 17.023.011-.01 16.268-17.023z"/><path fill="#C81426" d="M281.699 123.521l-.419-.433-.017.017.436.416zm.01-.01l.436.416a.603.603 0 0 0-.854-.849l.418.433zm-16.268 17.023l.418.433.017-.017-.435-.416zm-.011.01l-.435-.416a.601.601 0 0 0 .854.849l-.419-.433zm16.687-16.59l.011-.01-.837-.866-.011.01.837.866zm-.843-.859l-16.268 17.023.87.832 16.269-17.023-.871-.832zm-16.252 17.006l-.01.01.837.866.01-.01-.837-.866zm.844.859l16.268-17.023-.871-.832-16.268 17.023.871.832z" mask="url(#e)"/><mask id="f" fill="#fff"><path d="M281.707 123.514l-.008.007-16.268 17.023.008-.007 16.268-17.023z"/></mask><path fill="#000" d="M281.707 123.514l-.008.007-16.268 17.023.008-.007 16.268-17.023z"/><path fill="#C81426" d="M281.699 123.521l-.418-.433-.017.017.435.416zm.008-.007l.435.416a.602.602 0 0 0-.854-.85l.419.434zm-16.268 17.023l.418.433.017-.017-.435-.416zm-.008.007l-.436-.416a.603.603 0 0 0 .854.849l-.418-.433zm16.687-16.59l.007-.007-.837-.867-.007.008.837.866zm-.846-.856l-16.269 17.023.871.832 16.268-17.023-.87-.832zm-16.252 17.006l-.008.007.837.866.008-.007-.837-.866zm.846.856l16.269-17.023-.871-.832-16.269 17.023.871.832z" mask="url(#f)"/><path fill="#000" stroke="#C81426" stroke-linejoin="round" stroke-width=".602" d="M281.688 123.531l.021-.02m-.021.02l-.098.103.001.001.118-.124m-.021.02l.001.001.02-.021m-.021.02l.001.001.02-.021"/><path fill="#000" stroke="#C81426" stroke-linejoin="round" stroke-width=".602" d="M281.693 123.527l.008-.008-.008.008m0 0l-.127.134-.001-.001.128-.133m0 0h0m0 0h0"/><mask id="g" fill="#fff"><path d="M281.692 123.528l.007-.007c.003-.003.006-.006 0 0l-16.268 17.023-.008.007 16.269-17.023z"/></mask><path fill="#000" d="M281.692 123.528l.007-.007c.003-.003.006-.006 0 0l-16.268 17.023-.008.007 16.269-17.023z"/><path fill="#C81426" d="M281.692 123.528l-.419-.433-.017.017.436.416zm.007-.007l-.418-.433-.018.017.436.416zm-16.268 17.023l-.435-.416a.602.602 0 0 0 .853.849l-.418-.433zm-.008.007l-.435-.416a.601.601 0 0 0 .854.849l-.419-.433zm16.687-16.59l.008-.007-.838-.866-.007.007.837.866zm.008-.007a.014.014 0 0 1 .003-.004l.002-.002.002-.002.003-.002a.014.014 0 0 0 .003-.004l.009-.008.013-.015a.42.42 0 0 0 .068-.093c.049-.105-.063-.701-.52-.909a1.133 1.133 0 0 0-.336.104c-.013.008-.031.022-.038.027l-.014.012-.016.014-.005.005-.005.004-.006.007.837.866c.002-.003.001-.002 0 0l-.002.001-.003.004-.005.004-.017.014-.013.012-.038.027a1.133 1.133 0 0 1-.336.104c-.457-.208-.569-.803-.52-.909.016-.026.043-.063.051-.074l.017-.019.013-.014.008-.009.004-.003a.012.012 0 0 1 .002-.003l.002-.002.001-.001-.002.002.838.866zm-.855-.849l.872.832v-.001l-.872-.831zm.001 0l-16.268 17.023.87.832 16.268-17.023-.87-.832zm-15.415 17.872l.002-.002-.001.002-.001.001-.004.003-.005.005-.008.007-.026.021a.81.81 0 0 1-.08.054c-.195.067-.821-.24-.848-.758.029-.061.077-.134.089-.15a.543.543 0 0 1 .033-.036l.005-.006.006-.006.001-.001.002-.002-.009.009.837.866.012-.012.002-.001.002-.002.006-.006.005-.005.013-.014a1.094 1.094 0 0 0 .108-.172c-.026-.519-.653-.826-.848-.758a1 1 0 0 0-.106.075l-.007.006-.006.005-.003.004-.002.001-.002.002a.014.014 0 0 0-.003.004l.836.866zm.01-.01l16.268-17.023-.871-.832-16.268 17.023.871.832z" mask="url(#g)"/><path fill="#000" stroke="#C81426" stroke-linejoin="round" stroke-width=".602" d="M265.424 140.551h0zm.004.005l-.004-.005.004.005.205.212h0l-.205-.212z"/><mask id="h" fill="#fff"><path d="M281.688 123.531a.046.046 0 0 0 .01-.01h.001c.004-.003.006-.006-.001 0l-16.268 17.024-.01.009 16.268-17.023z"/></mask><path fill="#000" d="M281.688 123.531a.046.046 0 0 0 .01-.01h.001c.004-.003.006-.006-.001 0l-16.268 17.024-.01.009 16.268-17.023z"/><path fill="#C81426" d="M281.688 123.531l-.418-.433-.017.017.435.416zm.011-.01l-.419-.433-.017.018.436.415zm-16.269 17.024l-.435-.417a.602.602 0 0 0 .854.85l-.419-.433zm-.01.009l-.435-.416a.602.602 0 0 0 .854.849l-.419-.433zm16.687-16.59l.01-.009-.837-.867a.046.046 0 0 1-.01.01l.837.866zm.01-.009l.003-.004.002-.001.001-.001.001-.001.004-.004.009-.009.026-.029c.1-.168-.177-.92-.82-.872l-.041.034-.008.007-.004.004-.003.003h-.001l-.001.002-.005.004.837.867.003-.003-.001.001-.001.001-.003.002-.004.004-.008.007-.041.034c-.643.048-.92-.704-.82-.872a1.34 1.34 0 0 1 .027-.029l.008-.009.004-.003.001-.002h.001v-.001l-.003.003.837.867zm-.854-.849l.871.831-.871-.831zm0-.001l-16.268 17.023.871.833 16.268-17.023-.871-.833zm-15.414 17.873l.003-.003c0-.001 0-.001 0 0l-.001.001-.002.001-.002.002-.004.004-.02.017c-.234.123-.959-.265-.837-.861a.711.711 0 0 1 .02-.022l.006-.005.002-.003.001-.001-.013.013.837.866.014-.013v-.001h.001l.001-.001.002-.002.006-.006a.3.3 0 0 1 .02-.021c.121-.597-.603-.984-.838-.862a.592.592 0 0 0-.026.023l-.001.002h-.001l-.001.001-.001.001-.003.003.837.867zm.007-.008l16.268-17.023-.871-.832-16.268 17.023.871.832z" mask="url(#h)"/><mask id="i" fill="#fff"><path d="M281.691 123.528v.001c-.003.003-.001.001 0 0v-.001zM265.423 140.551v.001c-.001.001-.003.003 0-.001z"/></mask><path fill="#000" d="M281.691 123.528v.001c-.003.003-.001.001 0 0v-.001zM265.423 140.551v.001c-.001.001-.003.003 0-.001z"/><path fill="#C81426" d="M281.473 123.321l.436.415-.436-.415zm.218.207l.418.434a.602.602 0 0 0-.83-.873l.412.439zm0 .001l-.417-.435-.001.001.418.434zm0 0l-.412-.439-.006.005.418.434zm-16.268 17.022l.418.434a.603.603 0 0 0-.83-.873l.412.439zm0 .001l-.412-.44-.006.006.418.434zm15.851-17.458l.835.869v-.001l-.835-.868zm-.001.001l-.001.001.001-.001.003-.002.002-.002.006-.006.011-.01.021-.017c.015-.012.111-.07.197-.104.616.165.704.867.658.938l-.034.042a4408855056.343 4408855056.343 0 0 1-.023.023l-.002.002-.002.002-.001.001v.001-.001l-.836-.867-.003.003-.001.001-.002.002-.003.003-.007.007-.015.016-.034.042c-.046.071.042.773.658.937a1.2 1.2 0 0 0 .197-.103l.02-.017.012-.01.006-.006.002-.002.003-.003.001-.001.002-.002-.836-.867zm-16.262 17.017l.824.879-.824-.879zm-.006.006l-.003.003-.001.001-.001.001-.002.002-.002.002-.003.003-.008.008-.01.01-.033.041c-.048.074.054.791.691.928a1.09 1.09 0 0 0 .184-.11l.007-.006.006-.005.004-.004.002-.002.001-.001.002-.002.002-.002-.836-.867-.001.001.001-.001.002-.002.001-.001.004-.004a.038.038 0 0 1 .006-.005l.007-.006a.383.383 0 0 1 .018-.016c.014-.01.095-.062.166-.094.637.137.74.854.692.928l-.034.04-.01.011-.007.008-.003.003-.003.002-.002.002-.001.001v.001-.001l-.836-.867zm17.099-16.151l-.825-.878v.001l.825.877z" mask="url(#i)"/><mask id="j" fill="#fff"><path d="M281.673 123.545l.036-.034-16.268 17.023-.036.034 16.268-17.023z"/></mask><path fill="#000" d="M281.673 123.545l.036-.034-16.268 17.023-.036.034 16.268-17.023z"/><path fill="#C81426" d="M281.709 123.511l.436.416a.603.603 0 0 0-.854-.849l.418.433zm-.036.034l-.418-.433-.017.017.435.416zm-16.268 17.023l-.435-.416a.602.602 0 0 0 .854.85l-.419-.434zm.036-.034l.418.433.017-.017-.435-.416zm15.85-17.456l-.036.034.837.867.036-.035-.837-.866zm-.053.051l-16.268 17.023.87.833 16.269-17.024-.871-.832zm-15.414 17.873l.035-.035-.837-.866-.035.034.837.867zm.052-.052l16.269-17.023-.871-.832-16.269 17.023.871.832z" mask="url(#j)"/><path stroke="#C81426" stroke-linejoin="round" stroke-width=".602" d="M273.043 114.486a.028.028 0 0 0 .006-.006l-16.268 17.023-.006.007 16.268-17.024z"/><mask id="k" fill="#fff"><path d="M281.673 123.546l.034-.032-16.269 17.023-.034.033 16.269-17.024z"/></mask><path fill="#000" d="M281.673 123.546l.034-.032-16.269 17.023-.034.033 16.269-17.024z"/><path fill="#C81426" d="M281.707 123.514l.435.416a.602.602 0 0 0-.854-.85l.419.434zm-.034.032l-.419-.433-.017.017.436.416zm-16.269 17.024l-.435-.417a.602.602 0 0 0 .854.85l-.419-.433zm.034-.033l.419.433.017-.017-.436-.416zm15.85-17.457l-.034.033.837.867.034-.033-.837-.867zm-.051.05l-16.268 17.023.871.833 16.268-17.023-.871-.833zm-15.414 17.873l.034-.033-.837-.866-.034.032.837.867zm.051-.05l16.268-17.023-.871-.832-16.268 17.023.871.832z" mask="url(#k)"/><mask id="l" fill="#fff"><path d="M281.698 123.522l-.017.017-16.269 17.023.018-.017 16.268-17.023z"/></mask><path fill="#000" d="M281.698 123.522l-.017.017-16.269 17.023.018-.017 16.268-17.023z"/><path fill="#C81426" d="M281.681 123.539l-.419-.433-.017.017.436.416zm.017-.017l.436.416a.603.603 0 0 0-.854-.849l.418.433zm-16.268 17.023l.419.433.016-.017-.435-.416zm-.018.017l-.435-.416a.601.601 0 0 0 .854.849l-.419-.433zm16.687-16.59l.018-.017-.837-.866-.018.017.837.866zm-.836-.866l-16.268 17.023.87.832 16.269-17.023-.871-.832zm-16.252 17.006l-.017.017.837.866.018-.017-.838-.866zm.837.866l16.268-17.023-.871-.832-16.268 17.023.871.832z" mask="url(#l)"/><mask id="m" fill="#fff"><path d="M281.691 123.528c.003-.002.003-.002 0 0l-16.268 17.023-.011.011 16.269-17.023.01-.011z"/></mask><path fill="#000" d="M281.691 123.528c.003-.002.003-.002 0 0l-16.268 17.023-.011.011 16.269-17.023.01-.011z"/><path fill="#C81426" d="M281.691 123.528l-.418-.433-.017.017.435.416zm-.01.011l-.419-.434-.017.017.436.417zm-16.269 17.023l-.435-.416a.601.601 0 0 0 .854.849l-.419-.433zm.011-.011l-.435-.416a.602.602 0 0 0 .853.85l-.418-.434zm16.687-16.59l.001-.001v.001h-.001l-.001.002-.003.002-.003.003-.004.004a.053.053 0 0 0-.011.009l-.015.012a.722.722 0 0 1-.065.047c-.169.071-.834-.208-.859-.773a1.12 1.12 0 0 1 .101-.148l.007-.008.007-.007.004-.004.002-.002c.003-.003.006-.006.002-.003l.838.866.002-.001v-.001l.001-.001.001-.001.002-.002.002-.002.005-.005.006-.006.007-.008.017-.019a1.16 1.16 0 0 0 .084-.13c-.025-.564-.69-.843-.859-.772a1.56 1.56 0 0 0-.09.068l-.004.004-.004.003-.002.002-.002.002-.001.001-.002.002.837.866zm-.838-.866l-.01.01.837.867.011-.011-.838-.866zm-.027.027l-16.268 17.024.871.832 16.268-17.023-.871-.833zm-15.414 17.873l.011-.011.002-.002.001-.001.002-.002.004-.004.006-.006.009-.009c.005-.006.027-.031.042-.051.099-.514-.547-.958-.835-.848a.512.512 0 0 0-.044.035l-.013.011-.005.005-.002.002-.002.001-.001.001-.001.002.836.867.002-.002-.001.001-.001.001-.002.002-.005.005-.013.011a.512.512 0 0 1-.044.035c-.288.11-.934-.334-.835-.848.015-.02.037-.045.042-.051l.009-.009.006-.006.003-.004.002-.002.001-.001s.001 0 0 0l-.001.001a.045.045 0 0 1-.01.01l.837.867zm.027-.028l16.269-17.023-.871-.832-16.268 17.023.87.832zm16.268-17.022l-.87-.833.87.833z" mask="url(#m)"/><mask id="n" fill="#fff"><path d="M281.671 123.549l.03-.029-16.268 17.023-.031.029 16.269-17.023z"/></mask><path fill="#000" d="M281.671 123.549l.03-.029-16.268 17.023-.031.029 16.269-17.023z"/><path fill="#C81426" d="M281.701 123.52l.435.416a.603.603 0 0 0-.854-.85l.419.434zm-.03.029l-.419-.433-.017.017.436.416zm-16.269 17.023l-.435-.416a.601.601 0 0 0 .854.849l-.419-.433zm.031-.029l.418.433.017-.017-.435-.416zm15.849-17.457l-.03.03.837.866.03-.029-.837-.867zm-.047.047l-16.268 17.023.871.832 16.268-17.023-.871-.832zm-15.414 17.872l.03-.029-.837-.867-.03.03.837.866zm.047-.046l16.268-17.023-.871-.833-16.268 17.024.871.832z" mask="url(#n)"/><mask id="o" fill="#fff"><path d="M281.678 123.541l.015-.015c.005-.004.007-.007 0 0l-16.268 17.023-.016.015 16.269-17.023z"/></mask><path fill="#000" d="M281.678 123.541l.015-.015c.005-.004.007-.007 0 0l-16.268 17.023-.016.015 16.269-17.023z"/><path fill="#C81426" d="M281.678 123.541l-.419-.433-.017.017.436.416zm.015-.015l-.418-.433-.015.015.433.418zm-16.268 17.023l-.436-.416a.603.603 0 0 0 .854.85l-.418-.434zm-.016.015l-.435-.416a.601.601 0 0 0 .854.849l-.419-.433zm16.687-16.59a.144.144 0 0 1 .015-.014l-.837-.867-.015.015.837.866zm.015-.014l.004-.004.001-.001.001-.001.001-.001.001-.001.002-.002.003-.003.014-.014c.045-.055-.054-.873-.823-.876a.475.475 0 0 0-.03.026l-.002.002-.001.001-.001.001-.001.001h-.001l-.004.005.836.867.003-.003.001-.001v.001l-.002.001-.001.001-.002.002-.004.003a.475.475 0 0 1-.026.023c-.769-.003-.868-.821-.823-.876l.014-.014.003-.003.002-.002.001-.001.001-.001.001-.001-.001.001-.004.003.837.867zm-.851-.852l.866.837-.866-.837zm-.002.002l-16.269 17.023.871.833 16.268-17.023-.87-.833zm-15.415 17.873l.004-.004-.001.001h-.001l-.001.002-.003.003-.006.006c-.006.005-.09.067-.177.111-.72-.208-.671-.966-.662-.975a.03.03 0 0 1 .008-.008l.003-.004.001-.001.002-.001c0-.001 0-.001 0 0l-.019.018.837.866.02-.019.001-.001.001-.001.001-.001.004-.004.008-.008c.009-.009.057-.767-.663-.975-.086.044-.17.106-.176.112l-.006.005-.004.004-.001.001-.001.001h-.001v.001h-.001l-.004.004.837.867zm.002-.003l16.268-17.023-.871-.832-16.268 17.023.871.832z" mask="url(#o)"/><mask id="p" fill="#fff"><path d="M281.691 123.528l-.018.018-16.268 17.023.018-.018 16.268-17.023z"/></mask><path fill="#000" d="M281.691 123.528l-.018.018-16.268 17.023.018-.018 16.268-17.023z"/><path fill="#C81426" d="M281.673 123.546l-.418-.433a.137.137 0 0 0-.017.017l.435.416zm.018-.018l.436.416a.602.602 0 0 0-.854-.849l.418.433zm-16.268 17.023l.419.434a.137.137 0 0 1 .017-.017l-.436-.417zm-.018.018l-.435-.416a.602.602 0 0 0 .853.849l-.418-.433zm16.687-16.59l.018-.017-.837-.867-.018.018.837.866zm-.836-.867l-16.268 17.023.871.833 16.268-17.024-.871-.832zm-16.251 17.006l-.018.018.836.866.019-.017-.837-.867zm.835.867l16.269-17.023-.871-.832-16.268 17.023.87.832z" mask="url(#p)"/><path stroke="#C81426" stroke-linejoin="round" stroke-width=".602" d="M273.03 114.501l.013-.014-16.268 17.023-.014.014 16.269-17.023z"/><path fill="#000" stroke="#C81426" stroke-linejoin="round" stroke-width=".602" d="M281.673 123.547l.005-.005-.005.005h0zm0 0l-.08.083v.001l.08-.084h0zm-16.046 17.225v.001l.002-.002h0l-.002.001zm.015-.015l16.244-16.998.001-.001-16.245 16.999z"/><path stroke="#C81426" stroke-linejoin="round" stroke-width=".602" d="M273.017 114.515l.013-.014-16.268 17.023-.013.014 16.268-17.023z"/><path stroke="#C81426" stroke-linejoin="round" stroke-width=".602" d="M273.01 114.521l.007-.006-16.269 17.023a.028.028 0 01-.006.006l16.268-17.023zM294.116 131.046l-5.741 6.008-16.268 17.023 5.741-6.008 16.268-17.023z"/><path fill="#000" stroke="#C81426" stroke-linejoin="round" stroke-width=".602" d="M282.883 197.158l15.692-16.421h66.534l-15.693 16.421h-66.533zM288.604 152.721l15.666-16.393v31.17l-15.666 16.393v-31.17zM269.866 117.375l-13.341 13.961c-5.587 5.827-14.579 5.896-20.246.206l15.852-16.588c4.867 4.878 12.089 5.685 17.735 2.421z"/><path fill="#000" d="M184.932 27.604L173.706 39.35l-16.269 17.024 11.227-11.747 16.268-17.024z"/><path fill="#000" d="M173.706 39.35l11.226-11.747-16.268 17.024-11.227 11.747 16.269-17.024z"/><path stroke="#C81426" stroke-linejoin="round" stroke-width=".602" d="M173.706 39.35l11.226-11.747-16.268 17.024-11.227 11.747 16.269-17.024z"/><path fill="#000" d="M182.364 48.415l11.229-11.753-16.269 17.023-11.228 11.753 16.268-17.023z"/><path fill="#000" d="M193.593 36.662l-11.229 11.753-16.268 17.023 11.228-11.753 16.269-17.023z"/><path stroke="#C81426" stroke-linejoin="round" stroke-width=".602" d="M193.593 36.662l-11.229 11.753-16.268 17.023 11.228-11.753 16.269-17.023zM288.375 137.054l-12.631 13.217-16.269 17.023 12.632-13.217 16.268-17.023z"/><path fill="#000" stroke="#C81426" stroke-linejoin="round" stroke-width=".602" d="M243.47 123.983c9.299 9.518 23.485 10.695 33.993 3.532l-12.278 12.848c-10.365 10.846-27.121 10.915-37.567.207l15.852-16.587z"/><path stroke="#C81426" stroke-linejoin="round" stroke-width=".602" d="M288.495 155.052l3.827-4.005-16.268 17.023-3.828 4.005 16.269-17.023z"/><path fill="#000" stroke="#C81426" stroke-linejoin="round" stroke-width=".602" d="M251.712 114.521l-15.852 16.588-40.799-42.7 15.852-16.586 40.799 42.698zM210.491 71.39l-15.852 16.588c-1.82-1.733-4.362-2.177-6.552-1.333l14.383-15.051c2.207-2.31 5.737-2.377 8.021-.203zM292.021 173.906l-15.666 16.393v-22.108l15.666-16.393v22.108z"/><path stroke="#C81426" stroke-linejoin="round" stroke-width=".602" d="M280.074 163.864l8.421-8.811-16.269 17.023a46869.96 46869.96 0 0 1-8.421 8.811l16.269-17.023z"/><path fill="#000" stroke="#C81426" stroke-linejoin="round" stroke-width=".602" d="M276.356 191.17l15.701-16.429c.318 3.131 2.702 5.634 5.719 5.96l-15.725 16.455c-3.107-.07-5.635-2.701-5.695-5.986zM190.731 101.974l15.852-16.587 36.469 38.162-15.852 16.587-36.469-38.162z"/><mask id="q" fill="#fff"><path d="M202.253 71.387l-9.315 9.742-16.268 17.023 9.314-9.742 16.269-17.023z"/></mask><path fill="#000" d="M202.253 71.387l-9.315 9.742-16.268 17.023 9.314-9.742 16.269-17.023z"/><path fill="#C81426" d="M192.938 81.129l-.435-.417.435.417zm9.315-9.742l.435.416a.602.602 0 1 0-.871-.832l.436.416zM185.984 88.41l.436.416-.436-.416zm-9.314 9.742l-.435-.416a.602.602 0 1 0 .871.832l-.436-.416zm16.704-16.607l9.314-9.742-.871-.832-9.314 9.741.871.833zm8.443-10.574l-16.268 17.023.871.832 16.268-17.023-.871-.832zm-16.268 17.023l-9.314 9.742.871.832 9.314-9.742-.871-.832zm-8.443 10.574l16.268-17.023-.871-.832-16.268 17.023.871.832z" mask="url(#q)"/><path fill="#000" stroke="#C81426" stroke-linejoin="round" stroke-width=".602" d="M258.385 222.791l15.693-16.421h91.031l-15.693 16.421h-91.031z"/><path stroke="#C81426" stroke-linejoin="round" stroke-width=".602" d="M275.744 150.271l-12.632 13.218-16.268 17.023 12.631-13.217 16.269-17.024z"/><path fill="#000" d="M197.948 93.987l8.635-9.036-16.269 17.023-8.634 9.037 16.268-17.023z"/><path fill="#000" d="M206.583 84.951l-8.635 9.037-16.268 17.023 8.634-9.037 16.269-17.023z"/><path stroke="#C81426" stroke-linejoin="round" stroke-width=".602" d="M206.583 84.951l-8.635 9.037-16.268 17.023 8.634-9.037 16.269-17.023zM271.653 172.675l8.421-8.811-16.269 17.023-8.42 8.811 16.268-17.023z"/><path fill="#000" d="M173.705 39.35l-24.698 25.843-16.268 17.023 24.698-25.842 16.268-17.023z"/><path fill="#000" d="M149.007 65.193l24.698-25.842-16.268 17.023-24.698 25.842 16.268-17.023z"/><path stroke="#C81426" stroke-linejoin="round" stroke-width=".602" d="M149.007 65.193l24.698-25.842-16.268 17.023-24.698 25.842 16.268-17.023z"/><path fill="#000" d="M157.665 74.268l24.699-25.852-16.268 17.023-24.699 25.852 16.268-17.023z"/><path fill="#000" d="M182.364 48.416l-24.699 25.852-16.268 17.023 24.699-25.852 16.268-17.023z"/><path stroke="#C81426" stroke-linejoin="round" stroke-width=".602" d="M182.364 48.416l-24.699 25.852-16.268 17.023 24.699-25.852 16.268-17.023z"/><path fill="#000" stroke="#C81426" stroke-linejoin="round" stroke-width=".602" d="M258.385 235.608l15.693-16.421h91.031l-15.693 16.421h-91.031z"/><path stroke="#C81426" stroke-linejoin="round" stroke-width=".602" d="M267.825 176.681l3.828-4.005-16.268 17.023-3.828 4.005 16.268-17.023zM263.112 163.488l-5.741 6.008-16.268 17.023 5.741-6.008 16.268-17.023z"/><mask id="r" fill="#fff"><path d="M192.938 81.128l-20.486 21.427-16.268 17.023 20.486-21.427 16.268-17.023z"/></mask><path fill="#000" d="M192.938 81.128l-20.486 21.427-16.268 17.023 20.486-21.427 16.268-17.023z"/><path fill="#C81426" d="M172.452 102.555l-.435-.416h-.001l.436.416zm20.486-21.427l.436.416a.602.602 0 1 0-.871-.832l.435.416zM176.67 98.15l.435.416h.001l-.436-.416zm-20.486 21.427l-.436-.416a.603.603 0 0 0 .871.833l-.435-.417zm16.703-16.606l20.487-21.428-.871-.832-20.486 21.427.87.833zm19.616-22.26l-16.268 17.023.871.832 16.268-17.023-.871-.832zm-16.268 17.023l-20.487 21.427.871.833 20.486-21.428-.87-.832zm-19.616 22.26l16.268-17.024-.871-.832-16.268 17.023.871.833z" mask="url(#r)"/><path fill="#000" stroke="#C81426" stroke-linejoin="round" stroke-width=".602" d="M255.277 173.905l-15.617 16.341a6.23 6.23 0 0 1 1.66-3.519l14.351-15.016a6.963 6.963 0 0 0-.394 2.194z"/><path fill="#000" d="M178.953 113.867l18.995-19.88-16.268 17.024-18.996 19.879 16.269-17.023z"/><path fill="#000" d="M197.948 93.988l-18.995 19.879-16.269 17.023 18.996-19.879 16.268-17.023z"/><path stroke="#C81426" stroke-linejoin="round" stroke-width=".602" d="M197.948 93.988l-18.995 19.879-16.269 17.023 18.996-19.879 16.268-17.023z"/><path fill="#000" stroke="#C81426" stroke-linejoin="round" stroke-width=".602" d="M251.858 193.825l15.666-16.393v22.108l-15.666 16.393v-22.108z"/><path fill="#000" stroke="#C81426" stroke-linejoin="round" stroke-width=".602" d="M255.275 199.54l-15.666 16.393v-24.762l15.666-16.393v24.762zM251.859 216.804l15.701-16.43c.318 3.132 2.702 5.635 5.719 5.961l-15.725 16.455c-3.107-.07-5.635-2.701-5.695-5.986z"/><path fill="#000" stroke="#C81426" stroke-linejoin="round" stroke-width=".602" d="M239.61 216.805l15.679-16.407c.361 10.194 8.196 18.405 17.969 18.776l-15.705 16.434c-9.873-.072-17.882-8.437-17.943-18.803z"/><path fill="#000" d="M149.007 65.193l-24.698 25.842-16.268 17.023 24.698-25.842 16.268-17.023z"/><path fill="#000" d="M124.309 91.035l24.698-25.842-16.268 17.023-24.698 25.842 16.268-17.023z"/><path stroke="#C81426" stroke-linejoin="round" stroke-width=".602" d="M124.309 91.035l24.698-25.842-16.268 17.023-24.698 25.842 16.268-17.023z"/><path fill="#000" d="M132.968 100.119l24.697-25.851-16.268 17.023-24.698 25.851 16.269-17.023z"/><path fill="#000" d="M157.665 74.268l-24.697 25.851-16.269 17.023 24.698-25.851 16.268-17.023z"/><path stroke="#C81426" stroke-linejoin="round" stroke-width=".602" d="M157.665 74.268l-24.697 25.851-16.269 17.023 24.698-25.851 16.268-17.023z"/><mask id="s" fill="#fff"><path d="M172.452 102.556l-20.485 21.425-16.268 17.023 20.485-21.425 16.268-17.023z"/></mask><path fill="#000" d="M172.452 102.556l-20.485 21.425-16.268 17.023 20.485-21.425 16.268-17.023z"/><path fill="#C81426" d="M151.967 123.981l-.435-.416.435.416zm20.485-21.425l.435.416a.602.602 0 1 0-.87-.833l.435.417zm-16.268 17.023l.435.416-.435-.416zm-20.485 21.425l-.436-.416a.603.603 0 0 0 .871.833l-.435-.417zm16.703-16.606l20.485-21.426-.87-.833-20.485 21.426.87.833zm19.614-22.258l-16.268 17.023.871.832 16.268-17.023-.871-.832zm-16.268 17.023l-20.485 21.425.871.833 20.485-21.426-.871-.832zm-19.614 22.258l16.268-17.023-.87-.833-16.269 17.023.871.833z" mask="url(#s)"/><path fill="#000" d="M159.957 133.745l18.995-19.879-16.268 17.023-18.995 19.879 16.268-17.023z"/><path fill="#000" d="M178.952 113.866l-18.995 19.879-16.268 17.023 18.995-19.879 16.268-17.023z"/><path stroke="#C81426" stroke-linejoin="round" stroke-width=".602" d="M178.952 113.866l-18.995 19.879-16.268 17.023 18.995-19.879 16.268-17.023z"/><path fill="#000" stroke="#C81426" stroke-linejoin="round" stroke-width=".602" d="M196.437 201.868l15.851-16.587 70.485 73.755-15.852 16.587-70.484-73.755zM267.337 276.06l15.852-16.587c6.509 6.95 9.617 16.654 8.416 26.318l-15.581 16.305c.962-9.585-2.215-19.141-8.687-26.036zM170.691 193.661l15.487-16.205c9.211-2.498 18.999.317 25.696 7.386l-15.852 16.588c-6.617-6.972-16.189-9.891-25.331-7.769z"/><path fill="#000" d="M124.309 91.035l-11.226 11.745-16.268 17.024 11.226-11.746 16.268-17.023z"/><path fill="#000" d="M113.083 102.78l11.226-11.745-16.268 17.023-11.226 11.746 16.268-17.024z"/><path stroke="#C81426" stroke-linejoin="round" stroke-width=".602" d="M113.083 102.78l11.226-11.745-16.268 17.023-11.226 11.746 16.268-17.024z"/><path fill="#000" d="M121.743 111.867l11.225-11.748-16.269 17.023-11.224 11.749 16.268-17.024z"/><path fill="#000" d="M132.968 100.119l-11.225 11.748-16.268 17.024 11.224-11.749 16.269-17.023z"/><path stroke="#C81426" stroke-linejoin="round" stroke-width=".602" d="M132.968 100.119l-11.225 11.748-16.268 17.024 11.224-11.749 16.269-17.023z"/><mask id="t" fill="#fff"><path d="M151.967 123.981l-9.309 9.737-16.269 17.023 9.31-9.737 16.268-17.023z"/></mask><path fill="#000" d="M151.967 123.981l-9.309 9.737-16.269 17.023 9.31-9.737 16.268-17.023z"/><path fill="#C81426" d="M142.658 133.718l-.436-.416.436.416zm9.309-9.737l.435.416a.601.601 0 1 0-.87-.832l.435.416zm-16.268 17.023l.435.416-.435-.416zm-9.31 9.737l-.435-.416a.602.602 0 1 0 .871.832l-.436-.416zm16.704-16.607l9.309-9.737-.87-.832-9.31 9.737.871.832zm8.439-10.569l-16.269 17.023.871.832 16.268-17.023-.87-.832zm-16.269 17.023l-9.309 9.737.871.832 9.309-9.737-.871-.832zm-8.438 10.569l16.268-17.023-.871-.832-16.268 17.023.871.832z" mask="url(#t)"/><path fill="#000" d="M151.324 142.78l8.633-9.035-16.268 17.023-8.634 9.035 16.269-17.023z"/><path fill="#000" d="M159.957 133.745l-8.633 9.035-16.269 17.023 8.634-9.035 16.268-17.023z"/><path stroke="#C81426" stroke-linejoin="round" stroke-width=".602" d="M159.957 133.745l-8.633 9.035-16.269 17.023 8.634-9.035 16.268-17.023z"/><path fill="#000" stroke="#C81426" stroke-linejoin="round" stroke-width=".602" d="M274.146 268.098l-15.852 16.587-70.515-73.768 15.852-16.587 70.515 73.768zM279.462 284.116l-15.585 16.308c.502-5.633-1.377-11.232-5.167-15.302l15.851-16.587c3.826 4.125 5.637 9.869 4.901 15.581zM203.213 193.896l-15.852 16.587c-4.871-4.897-12.111-5.71-17.769-2.439l13.324-13.942c5.596-5.855 14.621-5.924 20.297-.206zM161.688 197.62a26.788 26.788 0 017.901-3.678l15.426-16.141c-4.223 1.361-7.991 3.773-11.029 6.951l-12.298 12.868zm0 0l12.298-12.868-12.298 12.868zM282.965 304.151l-11.996 12.553a33.247 33.247 0 004.94-13.617l15.553-16.274c-1.036 6.63-4.042 12.678-8.497 17.338h0zM105.897 150.698l15.852-16.588c4.972 4.825 12.245 5.585 17.944 2.275l-13.519 14.146c-5.665 5.671-14.555 5.724-20.277.167zM121.329 133.678l-15.851 16.587c-5.406-5.932-5.334-15.327.215-21.167l13.319-13.936c-3.111 5.896-2.339 13.434 2.317 18.516zM134.838 159.595h0c-4.842 5.073-11.355 7.987-18.178 8.166l15.684-16.413c5.29-.017 10.419-1.641 14.787-4.616l-12.293 12.863zM274.348 295.046l-12.975 13.576a19.948 19.948 0 002.393-7.209l15.543-16.264c-.661 3.781-2.409 7.224-4.961 9.897z"/><path fill="#000" stroke="#C81426" stroke-linejoin="round" stroke-width=".602" d="M97.033 120.012l12.27-12.84c-4.818 7.743-5.819 17.584-2.408 26.358l-15.807 16.542c-3.91-10.353-1.587-22.167 5.945-30.06zM258.08 312.068c-.361.377-.737.739-1.128 1.084l13.915-14.561.219-.133-13.006 13.61h0zM166.458 197.217l-15.393 16.106c1.306-4.425 3.615-8.37 6.653-11.548h0l12.252-12.82a29.24 29.24 0 00-3.512 8.262zM182.284 215.796l-15.851 16.587c-5.453-5.949-5.381-15.402.215-21.258l13.287-13.903c-3.123 5.917-2.34 13.485 2.349 18.574zM278.745 308.567l-12.048 12.607a30.651 30.651 0 01-4.137 3.617l14.39-15.058a30.117 30.117 0 001.795-1.166zM107.142 134.144c4.236 10.202 13.748 16.914 24.378 17.195l-15.701 16.43c-10.687-.054-20.32-6.769-24.49-17.079l15.813-16.546zM166.847 232.821l15.852-16.587 53.272 55.735-15.852 16.587-53.272-55.735zM220.532 288.996l15.85-16.586c1.143 1.326 1.677 3.115 1.452 4.897l-15.617 16.341a6.88 6.88 0 00-1.685-4.652zM252.46 330.995l14.691-15.373 7.842-4.713-14.691 15.373-7.842 4.713zM237.584 278.439a6.151 6.151 0 01-1.41 2.387h0l-14.351 15.017c.141-.398.245-.812.311-1.237l15.45-16.167z"/><path fill="#000" stroke="#C81426" stroke-linejoin="round" stroke-width=".602" d="M173.626 224.862l-15.852 16.587c-6.748-7.013-9.434-17.26-7.039-26.908l15.454-16.172c-2.027 9.557.762 19.568 7.437 26.493z"/><mask id="u" fill="#fff"><path d="M236.392 281.035a6.128 6.128 0 0 1-1.449 1.122l-16.268 17.023c.54-.3 1.027-.68 1.449-1.122l16.268-17.023z"/></mask><path fill="#000" d="M236.392 281.035a6.128 6.128 0 0 1-1.449 1.122l-16.268 17.023c.54-.3 1.027-.68 1.449-1.122l16.268-17.023z"/><path fill="#C81426" d="M234.943 282.157l-.293-.526a.601.601 0 0 0-.142.11l.435.416zm1.449-1.122l.436.416a.602.602 0 0 0-.871-.832l.435.416zm-16.268 17.023l.435.416-.435-.416zm-1.449 1.122l-.435-.416a.602.602 0 0 0 .728.942l-.293-.526zm16.561-16.497a6.7 6.7 0 0 0 1.592-1.232l-.871-.832a5.555 5.555 0 0 1-1.307 1.012l.586 1.052zm.721-2.064l-16.268 17.023.87.832 16.269-17.023-.871-.832zm-16.268 17.023a5.555 5.555 0 0 1-1.307 1.012l.586 1.052a6.695 6.695 0 0 0 1.591-1.232l-.87-.832zm-.579 1.954l16.269-17.023-.871-.832-16.268 17.023.87.832z" mask="url(#u)"/><path fill="#000" stroke="#C81426" stroke-linejoin="round" stroke-width=".602" d="M221.477 274.916l-15.852 16.587-47.432-49.62 15.852-16.587 47.432 49.62z"/><path fill="#000" stroke="#C81426" stroke-linejoin="round" stroke-width=".602" d="M180.004 251.57l-15.852 16.587L135 237.652l15.852-16.587 29.152 30.505zM127.931 235.987l14.475-15.147c2.24-2.214 5.702-2.281 8.018-.2l-15.852 16.588c-1.872-1.692-4.433-2.105-6.641-1.241zM180.413 252.012c2.055 2.408 1.973 6.109-.243 8.41l-.001.001-14.332 14.997c.801-2.28.376-4.924-1.274-6.822l15.85-16.586z"/><path fill="#000" stroke="#C81426" stroke-linejoin="round" stroke-width=".602" d="M130.664 251.245l15.851-16.587 20.492 21.449-15.851 16.587-20.492-21.449zM170.835 362.437l14.823-15.511 83.388-47.3-14.823 15.511-83.388 47.3zM155.103 334.274l14.858-15.547 63.386-35.335-14.858 15.547-63.386 35.335zM149.2 323.058l14.858-15.547 56.238-31.36-14.857 15.547-56.239 31.36z"/><path fill="#000" d="M142.192 220.629l-17.033 17.823-16.268 17.023 17.032-17.823 16.269-17.023z"/><path fill="#000" d="M125.159 238.452l17.033-17.823-16.269 17.023-17.032 17.823 16.268-17.023z"/><path stroke="#C81426" stroke-linejoin="round" stroke-width=".602" d="M125.159 238.452l17.033-17.823-16.269 17.023-17.032 17.823 16.268-17.023zM180.387 260.631l-17.033 17.824-16.268 17.023 17.033-17.824 16.268-17.023z"/><path fill="#000" stroke="#C81426" stroke-linejoin="round" stroke-width=".602" d="M176.772 373.662l14.839-15.528 73.734-41.494-14.839 15.527-73.734 41.495z"/><mask id="v" fill="#fff"><path d="M130.156 251.347l16.359-17.125-16.268 17.023-16.359 17.126 16.268-17.024z"/></mask><path fill="#000" d="M130.156 251.347l16.359-17.125-16.268 17.023-16.359 17.126 16.268-17.024z"/><path fill="#C81426" d="M146.515 234.222l.436.416a.602.602 0 1 0-.871-.832l.435.416zm-16.359 17.125l.435.417-.435-.417zm-16.268 17.024l-.436-.416a.601.601 0 1 0 .871.832l-.435-.416zm16.359-17.126l-.435-.416.435.416zm15.833-17.439l-16.36 17.125.871.833 16.36-17.126-.871-.832zm-16.359 17.125l-16.269 17.023.871.833 16.268-17.023-.87-.833zm-15.398 17.856l16.36-17.126-.871-.832-16.36 17.126.871.832zm16.36-17.126l16.268-17.023-.871-.832-16.268 17.023.871.832z" mask="url(#v)"/><path fill="#000" d="M167.424 256.106l-16.359 17.116-16.268 17.023 16.359-17.115 16.268-17.024z"/><path fill="#000" d="M151.065 273.222l16.359-17.116-16.268 17.024-16.359 17.115 16.268-17.023z"/><path stroke="#C81426" stroke-linejoin="round" stroke-width=".602" d="M151.065 273.222l16.359-17.116-16.268 17.024-16.359 17.115 16.268-17.023z"/><path fill="#000" stroke="#C81426" stroke-linejoin="round" stroke-width=".602" d="M146.073 324.914l12.315-12.886s0 0 0 0a26.826 26.826 0 013.37-2.981l-14.345 15.01c-.457.274-.903.56-1.34.857zM153.506 335.509c-.223.138-.442.282-.656.43l.528-.553.128.123zm0 0l15.249-15.956a14.51 14.51 0 00-1.699 1.521h0l-13.646 14.279.096.156zm13.46-14.521l-13.651 14.285c-.225.14-.446.286-.662.436l14.185-14.843a14.797 14.797 0 011.715-1.538l-1.586 1.66h-.001z"/><path fill="#000" d="M125.159 238.452l-37.473 39.212-16.268 17.023 37.472-39.212 16.269-17.023z"/><path fill="#000" d="M87.686 277.664l37.473-39.212-16.269 17.023-37.472 39.212 16.268-17.023z"/><path stroke="#C81426" stroke-linejoin="round" stroke-width=".602" d="M87.686 277.664l37.473-39.212-16.269 17.023-37.472 39.212 16.268-17.023zM163.354 278.455l-37.472 39.211-16.268 17.023 37.472-39.211 16.268-17.023z"/><path fill="#000" d="M151.065 273.223l-35.987 37.653-16.268 17.023 35.987-37.653 16.268-17.023z"/><path fill="#000" d="M115.078 310.876l35.987-37.653-16.268 17.023-35.987 37.653 16.268-17.023z"/><path stroke="#C81426" stroke-linejoin="round" stroke-width=".602" d="M115.078 310.876l35.987-37.653-16.268 17.023-35.987 37.653 16.268-17.023z"/><mask id="w" fill="#fff"><path d="M94.173 289.017l35.983-37.669-16.268 17.023-35.984 37.669 16.269-17.023z"/></mask><path fill="#000" d="M94.173 289.017l35.983-37.669-16.268 17.023-35.984 37.669 16.269-17.023z"/><path fill="#C81426" d="M130.156 251.348l.436.416a.603.603 0 0 0-.871-.832l.435.416zm-35.983 37.669l.435.416-.435-.416zM77.904 306.04l-.435-.416a.602.602 0 1 0 .871.832l-.436-.416zm35.984-37.669l-.436-.416.436.416zm15.832-17.439l-35.983 37.669.871.832 35.984-37.669-.872-.832zM93.737 288.6L77.47 305.624l.871.832 16.268-17.023-.87-.833zM78.34 306.456l35.983-37.669-.871-.832-35.983 37.669.871.832zm35.983-37.669l16.268-17.023-.87-.832-16.269 17.023.871.832z" mask="url(#w)"/><path fill="#000" stroke="#C81426" stroke-linejoin="round" stroke-width=".602" d="M150.788 338.097l13.315-13.933c-2.418 4.59-2.581 10.329.013 15.222l-15.829 16.563c-3.075-5.983-1.912-13.233 2.501-17.852zM149.465 358.184l15.836-16.57c3.959 6.634 11.932 9.18 18.699 6.175l-14.987 15.682c-6.812 4.059-15.472 1.713-19.548-5.287z"/><path fill="#000" stroke="#C81426" stroke-linejoin="round" stroke-width=".602" d="M153.44 345.64l-15.83 16.565c-5.824-11.097-3.679-24.588 4.51-33.154h0l12.276-12.845c-5.337 8.589-6.046 19.896-.956 29.434zM162.652 378.284l15.684-16.412a25.826 25.826 0 0011.516-2.768l-14.885 15.576a25.314 25.314 0 01-12.315 3.604zM148.583 356.51l15.829-16.563.582 1.116-15.829 16.564-.582-1.117z"/><path fill="#000" stroke="#C81426" stroke-linejoin="round" stroke-width=".602" d="M138.782 364.441l15.834-16.568c4.832 8.463 13.478 13.744 22.895 13.99l-15.7 16.429c-9.469-.044-18.221-5.306-23.029-13.851zM154.313 347.318l-15.829 16.563-.577-1.115 15.828-16.563.578 1.115z"/><path fill="#000" d="M87.686 277.664l-37.472 39.212-16.268 17.023 37.472-39.212 16.268-17.023z"/><path fill="#000" d="M50.214 316.876l37.472-39.212-16.268 17.023-37.472 39.212 16.268-17.023z"/><path stroke="#C81426" stroke-linejoin="round" stroke-width=".602" d="M50.214 316.876l37.472-39.212-16.268 17.023-37.472 39.212 16.268-17.023zM125.882 317.666L88.41 356.877 72.14 373.9l37.473-39.211 16.268-17.023z"/><path fill="#000" d="M115.078 310.875l-35.987 37.653-16.268 17.023 35.986-37.652 16.269-17.024z"/><path fill="#000" d="M79.091 348.528l35.987-37.653-16.269 17.024-35.986 37.652 16.268-17.023z"/><path stroke="#C81426" stroke-linejoin="round" stroke-width=".602" d="M79.091 348.528l35.987-37.653-16.269 17.024a988266.423 988266.423 0 0 0-35.986 37.652l16.268-17.023z"/><mask id="x" fill="#fff"><path d="M58.192 326.683l35.98-37.666-16.267 17.023-35.98 37.666 16.267-17.023z"/></mask><path fill="#000" d="M58.192 326.683l35.98-37.666-16.267 17.023-35.98 37.666 16.267-17.023z"/><path fill="#C81426" d="M94.173 289.017l.435.416a.603.603 0 0 0-.87-.833l.435.417zm-35.98 37.666l.435.416-.436-.416zm-16.269 17.023l-.435-.416a.602.602 0 1 0 .87.832l-.435-.416zm35.98-37.666l-.435-.416.436.416zm15.833-17.439l-35.98 37.666.87.832 35.981-37.666-.87-.832zm-35.98 37.666L41.489 343.29l.87.832 16.269-17.023-.871-.832zM42.36 344.122l35.98-37.666-.87-.832-35.981 37.666.87.832zm35.98-37.666l16.268-17.023-.87-.833-16.269 17.024.871.832z" mask="url(#x)"/><path fill="#000" d="M50.214 316.876L33.181 334.7l-16.268 17.024L33.946 333.9l16.268-17.024z"/><path fill="#000" d="M33.18 334.7l17.034-17.824L33.946 333.9l-17.033 17.824L33.18 334.7z"/><path stroke="#C81426" stroke-linejoin="round" stroke-width=".602" d="M33.18 334.7l17.034-17.824L33.946 333.9l-17.033 17.824L33.18 334.7zM88.41 356.877A1305893.9 1305893.9 0 0171.376 374.7l-16.269 17.023L72.141 373.9l16.268-17.023z"/><path fill="#000" d="M79.091 348.527l-16.356 17.114-16.269 17.023 16.357-17.114 16.268-17.023z"/><path fill="#000" d="M62.735 365.641l16.356-17.114-16.268 17.023-16.357 17.114 16.269-17.023z"/><path stroke="#C81426" stroke-linejoin="round" stroke-width=".602" d="M62.735 365.641l16.356-17.114-16.268 17.023a417628.5 417628.5 0 0 1-16.357 17.114l16.269-17.023z"/><mask id="y" fill="#fff"><path d="M41.84 343.8l16.352-17.118-16.268 17.023-16.351 17.118L41.84 343.8z"/></mask><path fill="#000" d="M41.84 343.8l16.352-17.118-16.268 17.023-16.351 17.118L41.84 343.8z"/><path fill="#C81426" d="M58.192 326.682l.436.416a.602.602 0 1 0-.871-.832l.435.416zM41.841 343.8l.435.416-.435-.416zm-16.268 17.023l-.436-.416a.602.602 0 1 0 .87.832l-.434-.416zm16.35-17.118l-.435-.416.436.416zm15.834-17.439l-16.352 17.118.871.832 16.352-17.118-.871-.832zm-16.352 17.117l-16.268 17.024.87.832 16.27-17.023-.872-.833zm-15.397 17.856l16.351-17.118-.87-.832-16.352 17.118.871.832zm16.351-17.118l16.269-17.023-.871-.832-16.269 17.023.871.832z" mask="url(#y)"/><path fill="#000" stroke="#C81426" stroke-linejoin="round" stroke-width=".602" d="M59.587 368.499l-13.338 13.957c-5.58 5.828-14.573 5.896-20.234.206l15.852-16.587c4.86 4.875 12.078 5.684 17.72 2.424zM25.575 382.226c-5.44-5.929-5.369-15.357.215-21.194v-.001l13.287-13.902c-3.11 5.898-2.327 13.44 2.35 18.511l-15.852 16.586z"/><path fill="#000" stroke="#C81426" stroke-linejoin="round" stroke-width=".602" d="M17.13 351.932h0l12.24-12.807c-6.841 10.99-5.71 25.824 3.395 35.543l-15.851 16.587c-10.222-10.937-10.15-28.479.216-39.323zM33.182 375.135c9.306 9.509 23.493 10.681 34.002 3.516l-12.293 12.864c-10.368 10.831-27.111 10.9-37.56.207l15.851-16.587z"/><mask id="z" fill="#fff"><path d="M41.865 365.642h-.024l-16.268 17.023h.023l16.269-17.023z"/></mask><path fill="#000" d="M41.865 365.642h-.024l-16.268 17.023h.023l16.269-17.023z"/><path fill="#C81426" d="M41.84 365.642v-.603a.606.606 0 0 0-.435.186l.436.417zm.025 0l.435.416a.603.603 0 0 0-.435-1.019v.603zm-16.269 17.023v.602a.602.602 0 0 0 .436-.186l-.436-.416zm-.023 0l-.436-.416a.6.6 0 0 0 .436 1.018v-.602zm16.268-16.421h.024v-1.205h-.024v1.205zm-.412-1.019l-16.268 17.024.87.832 16.27-17.023-.872-.833zm-15.833 16.837h-.023v1.205h.023v-1.205zm.412 1.019l16.268-17.023-.87-.833-16.269 17.024.87.832z" mask="url(#z)"/><mask id="A" fill="#fff"><path d="M33.18 374.669v.031l-16.267 17.023v-.031l16.268-17.023z"/></mask><path fill="#000" d="M33.18 374.669v.031l-16.267 17.023v-.031l16.268-17.023z"/><path fill="#C81426" d="M33.18 374.7l.436.416a.602.602 0 0 0 .167-.416h-.602zm0-.031h.603a.603.603 0 0 0-1.038-.416l.436.416zm-16.267 17.023l-.436-.416a.602.602 0 0 0-.167.416h.603zm0 .031h-.603a.602.602 0 0 0 1.038.416l-.435-.416zm16.87-17.023v-.031H32.58v.031h1.204zm-1.038-.447l-16.268 17.023.871.832 16.268-17.023-.87-.832zM16.31 391.692v.031h1.205v-.031H16.31zm1.038.447l16.268-17.023-.87-.832-16.269 17.023.871.832z" mask="url(#A)"/><path fill="#C81426" fill-rule="evenodd" d="M341.316 103.535c13.533 0 25.784-5.742 34.651-15.024 8.862-9.277 14.343-22.09 14.343-36.244C390.31 23.955 368.373 1 341.316 1c-13.533 0-25.784 5.742-34.651 15.023-8.862 9.278-14.343 22.092-14.343 36.244.03 28.303 21.946 51.236 48.994 51.268zm-25.968-78.45c6.648-6.953 15.828-11.257 25.968-11.268 20.293 0 36.746 17.216 36.746 38.45 0 10.621-4.116 20.236-10.768 27.194-6.65 6.956-15.834 11.257-25.978 11.257-20.295 0-36.745-17.213-36.745-38.45.009-10.616 4.126-20.226 10.777-27.183zM132.215 151.047c7.165.013 14.043-2.96 19.109-8.267l27.628-28.914 27.631-28.915 36.886 38.598c10.55 11.039 27.651 11.039 38.201 0l.036-.035-.007.007a5877690646.508 5877690646.508 0 00-.026.025l.036-.035c10.52-11.046 10.52-28.916 0-39.962L228.23 27.604c-11.956-12.51-31.339-12.51-43.298 0l-35.925 37.589-35.924 37.588c-7.721 8.091-10.024 20.254-5.837 30.818 4.189 10.561 14.04 17.448 24.969 17.448zm-10.472-39.179l35.922-37.6 35.928-37.605c7.173-7.504 18.803-7.504 25.98 0l53.476 55.98c5.748 6.035 5.748 15.801 0 21.837l-.019.021-.02.02c-5.771 6.02-15.11 6.02-20.881 0l-41.216-43.135c-2.393-2.503-6.268-2.503-8.66 0l-29.801 31.17a736654.748 736654.748 0 00-29.794 31.162c-5.852 5.861-15.084 5.845-20.915-.037-5.732-6.033-5.732-15.781 0-21.813zM304.571 167.619h61.242c13.529 0 24.497 11.477 24.497 25.634 0 7.081-2.743 13.49-7.178 18.129-4.433 4.637-10.556 7.504-17.319 7.504h-91.864c-10.149 0-18.372-8.605-18.372-19.225v-25.634c0-1.699.646-3.329 1.794-4.531l18.373-19.225 18.372-19.225c1.75-1.831 4.384-2.378 6.672-1.386 2.29.992 3.783 3.326 3.783 5.917v32.042zm-30.622 38.45h91.864c3.384 0 6.447-1.435 8.664-3.755 2.215-2.319 3.585-5.522 3.585-9.061 0-7.079-5.485-12.817-12.249-12.817h-67.367c-3.382 0-6.124-2.87-6.124-6.409v-22.98l-12.248 12.817-12.249 12.817v22.98c0 3.539 2.742 6.408 6.124 6.408zM180.42 251.57l-29.569-30.941c-2.431-2.403-6.232-2.403-8.66 0l-54.505 57.035-54.505 57.037c-10.55 11.036-10.55 28.931 0 39.968v.031c10.553 11.024 27.643 11.024 38.196 0l54.505-57.034 54.505-57.035c2.401-2.493 2.413-6.549.033-9.061zm-65.342 59.306l-52.344 54.765c-5.765 6.021-15.104 6.021-20.87 0h-.023c-5.769-6.03-5.769-15.811 0-21.841l52.332-54.783 52.342-54.795 20.909 21.885-52.346 54.769z" clip-rule="evenodd"/><path fill="#C81426" fill-rule="evenodd" d="M173.769 184.544c3.331-3.485 7.532-6.06 12.249-7.356 9.435-2.591 19.476.335 26.27 7.657l70.902 74.191c6.743 7.056 9.96 17 8.702 26.891-.9 7.055-4.003 13.51-8.709 18.432a30.765 30.765 0 0 1-6.423 5.137l-9.799 5.889-75.536 42.509a25.594 25.594 0 0 1-13.218 3.677c-9.704.003-18.672-5.411-23.528-14.2l-.87-1.681c-6.129-11.28-4.007-25.117 4.362-33.87a27.158 27.158 0 0 1 5.7-4.549l58.022-32.355-47.848-50.056c-7.001-7.113-9.794-17.62-7.315-27.493 1.242-4.939 3.705-9.337 7.039-12.823zm96.909 113.809a18.372 18.372 0 0 0 3.888-3.1c2.805-2.938 4.653-6.79 5.182-11 .795-5.939-1.125-11.925-5.186-16.155l-70.931-74.204c-5.78-6.049-15.152-6.049-20.932 0-5.781 6.049-5.781 15.855 0 21.904l53.689 56.17c1.375 1.437 2.015 3.467 1.731 5.476a6.52 6.52 0 0 1-1.727 3.591 6.128 6.128 0 0 1-1.449 1.122l-65.169 36.329a14.847 14.847 0 0 0-2.936 2.38c-4.592 4.807-5.731 12.402-2.354 18.569l.877 1.681c4.114 7.303 13.079 9.784 20.11 5.569l85.207-48.332z" clip-rule="evenodd"/></g></svg>