<svg width="580" height="446" viewBox="0 0 580 446" fill="none" xmlns="http://www.w3.org/2000/svg">
<path fill-rule="evenodd" clip-rule="evenodd" d="M0 8.81735V28.5361H13.6454C21.1796 28.5361 24.6956 24.0473 24.6956 18.3561C24.6956 12.2641 20.6773 8.81735 13.6454 8.81735H0V8.81735ZM0 61H16.2405L3.76712 46.0105H0V61ZM55 0H42.8615C46.0426 4.40867 47.8006 10.0197 47.968 16.5926C47.968 33.5059 39.6804 40.3193 29.2998 43.7661L44.5358 61H55V0Z" fill="#C81426" fill-opacity="0.2"/>
<path fill-rule="evenodd" clip-rule="evenodd" d="M75 8.81735V28.5361H88.6454C96.1796 28.5361 99.6956 24.0473 99.6956 18.3561C99.6956 12.2641 95.6773 8.81735 88.6454 8.81735H75V8.81735ZM75 61H91.2405L78.7671 46.0105H75V61ZM130 0H117.861C121.043 4.40867 122.801 10.0197 122.968 16.5926C122.968 33.5059 114.68 40.3193 104.3 43.7661L119.536 61H130V0Z" fill="#C81426" fill-opacity="0.2"/>
<path fill-rule="evenodd" clip-rule="evenodd" d="M150 8.81735V28.5361H163.645C171.18 28.5361 174.696 24.0473 174.696 18.3561C174.696 12.2641 170.677 8.81735 163.645 8.81735H150V8.81735ZM150 61H166.241L153.767 46.0105H150V61ZM205 0H192.861C196.043 4.40867 197.801 10.0197 197.968 16.5926C197.968 33.5059 189.68 40.3193 179.3 43.7661L194.536 61H205V0Z" fill="#C81426" fill-opacity="0.2"/>
<path fill-rule="evenodd" clip-rule="evenodd" d="M225 8.81735V28.5361H238.645C246.18 28.5361 249.696 24.0473 249.696 18.3561C249.696 12.2641 245.677 8.81735 238.645 8.81735H225V8.81735ZM225 61H241.241L228.767 46.0105H225V61ZM280 0H267.861C271.043 4.40867 272.801 10.0197 272.968 16.5926C272.968 33.5059 264.68 40.3193 254.3 43.7661L269.536 61H280V0Z" fill="#C81426" fill-opacity="0.2"/>
<path fill-rule="evenodd" clip-rule="evenodd" d="M300 8.81735V28.5361H313.645C321.18 28.5361 324.696 24.0473 324.696 18.3561C324.696 12.2641 320.677 8.81735 313.645 8.81735H300V8.81735ZM300 61H316.241L303.767 46.0105H300V61ZM355 0H342.861C346.043 4.40867 347.801 10.0197 347.968 16.5926C347.968 33.5059 339.68 40.3193 329.3 43.7661L344.536 61H355V0Z" fill="#C81426" fill-opacity="0.2"/>
<path fill-rule="evenodd" clip-rule="evenodd" d="M375 8.81735V28.5361H388.645C396.18 28.5361 399.696 24.0473 399.696 18.3561C399.696 12.2641 395.677 8.81735 388.645 8.81735H375V8.81735ZM375 61H391.241L378.767 46.0105H375V61ZM430 0H417.861C421.043 4.40867 422.801 10.0197 422.968 16.5926C422.968 33.5059 414.68 40.3193 404.3 43.7661L419.536 61H430V0Z" fill="#C81426" fill-opacity="0.2"/>
<path fill-rule="evenodd" clip-rule="evenodd" d="M450 8.81735V28.5361H463.645C471.18 28.5361 474.696 24.0473 474.696 18.3561C474.696 12.2641 470.677 8.81735 463.645 8.81735H450V8.81735ZM450 61H466.241L453.767 46.0105H450V61ZM505 0H492.861C496.043 4.40867 497.801 10.0197 497.968 16.5926C497.968 33.5059 489.68 40.3193 479.3 43.7661L494.536 61H505V0Z" fill="#C81426" fill-opacity="0.2"/>
<path fill-rule="evenodd" clip-rule="evenodd" d="M525 8.81735V28.5361H538.645C546.18 28.5361 549.696 24.0473 549.696 18.3561C549.696 12.2641 545.677 8.81735 538.645 8.81735H525V8.81735ZM525 61H541.241L528.767 46.0105H525V61ZM580 0H567.861C571.043 4.40867 572.801 10.0197 572.968 16.5926C572.968 33.5059 564.68 40.3193 554.3 43.7661L569.536 61H580V0Z" fill="#C81426" fill-opacity="0.2"/>
<path fill-rule="evenodd" clip-rule="evenodd" d="M0 85.8173V105.536H13.6454C21.1796 105.536 24.6956 101.047 24.6956 95.3561C24.6956 89.2641 20.6773 85.8173 13.6454 85.8173H0V85.8173ZM0 138H16.2405L3.76712 123.011H0V138ZM55 77H42.8615C46.0426 81.4087 47.8006 87.0197 47.968 93.5926C47.968 110.506 39.6804 117.319 29.2998 120.766L44.5358 138H55V77Z" fill="#C81426" fill-opacity="0.2"/>
<path fill-rule="evenodd" clip-rule="evenodd" d="M75 85.8173V105.536H88.6454C96.1796 105.536 99.6956 101.047 99.6956 95.3561C99.6956 89.2641 95.6773 85.8173 88.6454 85.8173H75V85.8173ZM75 138H91.2405L78.7671 123.011H75V138ZM130 77H117.861C121.043 81.4087 122.801 87.0197 122.968 93.5926C122.968 110.506 114.68 117.319 104.3 120.766L119.536 138H130V77Z" fill="#C81426" fill-opacity="0.2"/>
<path fill-rule="evenodd" clip-rule="evenodd" d="M150 85.8173V105.536H163.645C171.18 105.536 174.696 101.047 174.696 95.3561C174.696 89.2641 170.677 85.8173 163.645 85.8173H150V85.8173ZM150 138H166.241L153.767 123.011H150V138ZM205 77H192.861C196.043 81.4087 197.801 87.0197 197.968 93.5926C197.968 110.506 189.68 117.319 179.3 120.766L194.536 138H205V77Z" fill="#C81426" fill-opacity="0.2"/>
<path fill-rule="evenodd" clip-rule="evenodd" d="M225 85.8173V105.536H238.645C246.18 105.536 249.696 101.047 249.696 95.3561C249.696 89.2641 245.677 85.8173 238.645 85.8173H225V85.8173ZM225 138H241.241L228.767 123.011H225V138ZM280 77H267.861C271.043 81.4087 272.801 87.0197 272.968 93.5926C272.968 110.506 264.68 117.319 254.3 120.766L269.536 138H280V77Z" fill="#C81426" fill-opacity="0.2"/>
<path fill-rule="evenodd" clip-rule="evenodd" d="M300 85.8173V105.536H313.645C321.18 105.536 324.696 101.047 324.696 95.3561C324.696 89.2641 320.677 85.8173 313.645 85.8173H300V85.8173ZM300 138H316.241L303.767 123.011H300V138ZM355 77H342.861C346.043 81.4087 347.801 87.0197 347.968 93.5926C347.968 110.506 339.68 117.319 329.3 120.766L344.536 138H355V77Z" fill="#C81426" fill-opacity="0.2"/>
<path fill-rule="evenodd" clip-rule="evenodd" d="M375 85.8173V105.536H388.645C396.18 105.536 399.696 101.047 399.696 95.3561C399.696 89.2641 395.677 85.8173 388.645 85.8173H375V85.8173ZM375 138H391.241L378.767 123.011H375V138ZM430 77H417.861C421.043 81.4087 422.801 87.0197 422.968 93.5926C422.968 110.506 414.68 117.319 404.3 120.766L419.536 138H430V77Z" fill="#C81426" fill-opacity="0.2"/>
<path fill-rule="evenodd" clip-rule="evenodd" d="M450 85.8173V105.536H463.645C471.18 105.536 474.696 101.047 474.696 95.3561C474.696 89.2641 470.677 85.8173 463.645 85.8173H450V85.8173ZM450 138H466.241L453.767 123.011H450V138ZM505 77H492.861C496.043 81.4087 497.801 87.0197 497.968 93.5926C497.968 110.506 489.68 117.319 479.3 120.766L494.536 138H505V77Z" fill="#C81426" fill-opacity="0.2"/>
<path fill-rule="evenodd" clip-rule="evenodd" d="M525 85.8173V105.536H538.645C546.18 105.536 549.696 101.047 549.696 95.3561C549.696 89.2641 545.677 85.8173 538.645 85.8173H525V85.8173ZM525 138H541.241L528.767 123.011H525V138ZM580 77H567.861C571.043 81.4087 572.801 87.0197 572.968 93.5926C572.968 110.506 564.68 117.319 554.3 120.766L569.536 138H580V77Z" fill="#C81426" fill-opacity="0.2"/>
<path fill-rule="evenodd" clip-rule="evenodd" d="M0 162.817V182.536H13.6454C21.1796 182.536 24.6956 178.047 24.6956 172.356C24.6956 166.264 20.6773 162.817 13.6454 162.817H0V162.817ZM0 215H16.2405L3.76712 200.011H0V215ZM55 154H42.8615C46.0426 158.409 47.8006 164.02 47.968 170.593C47.968 187.506 39.6804 194.319 29.2998 197.766L44.5358 215H55V154Z" fill="#C81426" fill-opacity="0.2"/>
<path fill-rule="evenodd" clip-rule="evenodd" d="M75 162.817V182.536H88.6454C96.1796 182.536 99.6956 178.047 99.6956 172.356C99.6956 166.264 95.6773 162.817 88.6454 162.817H75V162.817ZM75 215H91.2405L78.7671 200.011H75V215ZM130 154H117.861C121.043 158.409 122.801 164.02 122.968 170.593C122.968 187.506 114.68 194.319 104.3 197.766L119.536 215H130V154Z" fill="#C81426" fill-opacity="0.2"/>
<path fill-rule="evenodd" clip-rule="evenodd" d="M150 162.817V182.536H163.645C171.18 182.536 174.696 178.047 174.696 172.356C174.696 166.264 170.677 162.817 163.645 162.817H150V162.817ZM150 215H166.241L153.767 200.011H150V215ZM205 154H192.861C196.043 158.409 197.801 164.02 197.968 170.593C197.968 187.506 189.68 194.319 179.3 197.766L194.536 215H205V154Z" fill="#C81426" fill-opacity="0.2"/>
<path fill-rule="evenodd" clip-rule="evenodd" d="M225 162.817V182.536H238.645C246.18 182.536 249.696 178.047 249.696 172.356C249.696 166.264 245.677 162.817 238.645 162.817H225V162.817ZM225 215H241.241L228.767 200.011H225V215ZM280 154H267.861C271.043 158.409 272.801 164.02 272.968 170.593C272.968 187.506 264.68 194.319 254.3 197.766L269.536 215H280V154Z" fill="#C81426" fill-opacity="0.2"/>
<path fill-rule="evenodd" clip-rule="evenodd" d="M300 162.817V182.536H313.645C321.18 182.536 324.696 178.047 324.696 172.356C324.696 166.264 320.677 162.817 313.645 162.817H300V162.817ZM300 215H316.241L303.767 200.011H300V215ZM355 154H342.861C346.043 158.409 347.801 164.02 347.968 170.593C347.968 187.506 339.68 194.319 329.3 197.766L344.536 215H355V154Z" fill="#C81426" fill-opacity="0.2"/>
<path fill-rule="evenodd" clip-rule="evenodd" d="M375 162.817V182.536H388.645C396.18 182.536 399.696 178.047 399.696 172.356C399.696 166.264 395.677 162.817 388.645 162.817H375V162.817ZM375 215H391.241L378.767 200.011H375V215ZM430 154H417.861C421.043 158.409 422.801 164.02 422.968 170.593C422.968 187.506 414.68 194.319 404.3 197.766L419.536 215H430V154Z" fill="#C81426" fill-opacity="0.2"/>
<path fill-rule="evenodd" clip-rule="evenodd" d="M450 162.817V182.536H463.645C471.18 182.536 474.696 178.047 474.696 172.356C474.696 166.264 470.677 162.817 463.645 162.817H450V162.817ZM450 215H466.241L453.767 200.011H450V215ZM505 154H492.861C496.043 158.409 497.801 164.02 497.968 170.593C497.968 187.506 489.68 194.319 479.3 197.766L494.536 215H505V154Z" fill="#C81426" fill-opacity="0.2"/>
<path fill-rule="evenodd" clip-rule="evenodd" d="M525 162.817V182.536H538.645C546.18 182.536 549.696 178.047 549.696 172.356C549.696 166.264 545.677 162.817 538.645 162.817H525V162.817ZM525 215H541.241L528.767 200.011H525V215ZM580 154H567.861C571.043 158.409 572.801 164.02 572.968 170.593C572.968 187.506 564.68 194.319 554.3 197.766L569.536 215H580V154Z" fill="#C81426" fill-opacity="0.2"/>
<path fill-rule="evenodd" clip-rule="evenodd" d="M0 239.817V259.536H13.6454C21.1796 259.536 24.6956 255.047 24.6956 249.356C24.6956 243.264 20.6773 239.817 13.6454 239.817H0V239.817ZM0 292H16.2405L3.76712 277.011H0V292ZM55 231H42.8615C46.0426 235.409 47.8006 241.02 47.968 247.593C47.968 264.506 39.6804 271.319 29.2998 274.766L44.5358 292H55V231Z" fill="#C81426" fill-opacity="0.2"/>
<path fill-rule="evenodd" clip-rule="evenodd" d="M75 239.817V259.536H88.6454C96.1796 259.536 99.6956 255.047 99.6956 249.356C99.6956 243.264 95.6773 239.817 88.6454 239.817H75V239.817ZM75 292H91.2405L78.7671 277.011H75V292ZM130 231H117.861C121.043 235.409 122.801 241.02 122.968 247.593C122.968 264.506 114.68 271.319 104.3 274.766L119.536 292H130V231Z" fill="#C81426" fill-opacity="0.2"/>
<path fill-rule="evenodd" clip-rule="evenodd" d="M150 239.817V259.536H163.645C171.18 259.536 174.696 255.047 174.696 249.356C174.696 243.264 170.677 239.817 163.645 239.817H150V239.817ZM150 292H166.241L153.767 277.011H150V292ZM205 231H192.861C196.043 235.409 197.801 241.02 197.968 247.593C197.968 264.506 189.68 271.319 179.3 274.766L194.536 292H205V231Z" fill="#C81426" fill-opacity="0.2"/>
<path fill-rule="evenodd" clip-rule="evenodd" d="M225 239.817V259.536H238.645C246.18 259.536 249.696 255.047 249.696 249.356C249.696 243.264 245.677 239.817 238.645 239.817H225V239.817ZM225 292H241.241L228.767 277.011H225V292ZM280 231H267.861C271.043 235.409 272.801 241.02 272.968 247.593C272.968 264.506 264.68 271.319 254.3 274.766L269.536 292H280V231Z" fill="#C81426" fill-opacity="0.2"/>
<path fill-rule="evenodd" clip-rule="evenodd" d="M300 239.817V259.536H313.645C321.18 259.536 324.696 255.047 324.696 249.356C324.696 243.264 320.677 239.817 313.645 239.817H300V239.817ZM300 292H316.241L303.767 277.011H300V292ZM355 231H342.861C346.043 235.409 347.801 241.02 347.968 247.593C347.968 264.506 339.68 271.319 329.3 274.766L344.536 292H355V231Z" fill="#C81426" fill-opacity="0.2"/>
<path fill-rule="evenodd" clip-rule="evenodd" d="M375 239.817V259.536H388.645C396.18 259.536 399.696 255.047 399.696 249.356C399.696 243.264 395.677 239.817 388.645 239.817H375V239.817ZM375 292H391.241L378.767 277.011H375V292ZM430 231H417.861C421.043 235.409 422.801 241.02 422.968 247.593C422.968 264.506 414.68 271.319 404.3 274.766L419.536 292H430V231Z" fill="#C81426" fill-opacity="0.2"/>
<path fill-rule="evenodd" clip-rule="evenodd" d="M450 239.817V259.536H463.645C471.18 259.536 474.696 255.047 474.696 249.356C474.696 243.264 470.677 239.817 463.645 239.817H450V239.817ZM450 292H466.241L453.767 277.011H450V292ZM505 231H492.861C496.043 235.409 497.801 241.02 497.968 247.593C497.968 264.506 489.68 271.319 479.3 274.766L494.536 292H505V231Z" fill="#C81426" fill-opacity="0.2"/>
<path fill-rule="evenodd" clip-rule="evenodd" d="M525 239.817V259.536H538.645C546.18 259.536 549.696 255.047 549.696 249.356C549.696 243.264 545.677 239.817 538.645 239.817H525V239.817ZM525 292H541.241L528.767 277.011H525V292ZM580 231H567.861C571.043 235.409 572.801 241.02 572.968 247.593C572.968 264.506 564.68 271.319 554.3 274.766L569.536 292H580V231Z" fill="#C81426" fill-opacity="0.2"/>
<path fill-rule="evenodd" clip-rule="evenodd" d="M0 316.817V336.536H13.6454C21.1796 336.536 24.6956 332.047 24.6956 326.356C24.6956 320.264 20.6773 316.817 13.6454 316.817H0V316.817ZM0 369H16.2405L3.76712 354.011H0V369ZM55 308H42.8615C46.0426 312.409 47.8006 318.02 47.968 324.593C47.968 341.506 39.6804 348.319 29.2998 351.766L44.5358 369H55V308Z" fill="#C81426" fill-opacity="0.2"/>
<path fill-rule="evenodd" clip-rule="evenodd" d="M75 316.817V336.536H88.6454C96.1796 336.536 99.6956 332.047 99.6956 326.356C99.6956 320.264 95.6773 316.817 88.6454 316.817H75V316.817ZM75 369H91.2405L78.7671 354.011H75V369ZM130 308H117.861C121.043 312.409 122.801 318.02 122.968 324.593C122.968 341.506 114.68 348.319 104.3 351.766L119.536 369H130V308Z" fill="#C81426" fill-opacity="0.2"/>
<path fill-rule="evenodd" clip-rule="evenodd" d="M150 316.817V336.536H163.645C171.18 336.536 174.696 332.047 174.696 326.356C174.696 320.264 170.677 316.817 163.645 316.817H150V316.817ZM150 369H166.241L153.767 354.011H150V369ZM205 308H192.861C196.043 312.409 197.801 318.02 197.968 324.593C197.968 341.506 189.68 348.319 179.3 351.766L194.536 369H205V308Z" fill="#C81426" fill-opacity="0.2"/>
<path fill-rule="evenodd" clip-rule="evenodd" d="M225 316.817V336.536H238.645C246.18 336.536 249.696 332.047 249.696 326.356C249.696 320.264 245.677 316.817 238.645 316.817H225V316.817ZM225 369H241.241L228.767 354.011H225V369ZM280 308H267.861C271.043 312.409 272.801 318.02 272.968 324.593C272.968 341.506 264.68 348.319 254.3 351.766L269.536 369H280V308Z" fill="#C81426" fill-opacity="0.2"/>
<path fill-rule="evenodd" clip-rule="evenodd" d="M300 316.817V336.536H313.645C321.18 336.536 324.696 332.047 324.696 326.356C324.696 320.264 320.677 316.817 313.645 316.817H300V316.817ZM300 369H316.241L303.767 354.011H300V369ZM355 308H342.861C346.043 312.409 347.801 318.02 347.968 324.593C347.968 341.506 339.68 348.319 329.3 351.766L344.536 369H355V308Z" fill="#C81426" fill-opacity="0.2"/>
<path fill-rule="evenodd" clip-rule="evenodd" d="M375 316.817V336.536H388.645C396.18 336.536 399.696 332.047 399.696 326.356C399.696 320.264 395.677 316.817 388.645 316.817H375V316.817ZM375 369H391.241L378.767 354.011H375V369ZM430 308H417.861C421.043 312.409 422.801 318.02 422.968 324.593C422.968 341.506 414.68 348.319 404.3 351.766L419.536 369H430V308Z" fill="#C81426" fill-opacity="0.2"/>
<path fill-rule="evenodd" clip-rule="evenodd" d="M450 316.817V336.536H463.645C471.18 336.536 474.696 332.047 474.696 326.356C474.696 320.264 470.677 316.817 463.645 316.817H450V316.817ZM450 369H466.241L453.767 354.011H450V369ZM505 308H492.861C496.043 312.409 497.801 318.02 497.968 324.593C497.968 341.506 489.68 348.319 479.3 351.766L494.536 369H505V308Z" fill="#C81426" fill-opacity="0.2"/>
<path fill-rule="evenodd" clip-rule="evenodd" d="M525 316.817V336.536H538.645C546.18 336.536 549.696 332.047 549.696 326.356C549.696 320.264 545.677 316.817 538.645 316.817H525V316.817ZM525 369H541.241L528.767 354.011H525V369ZM580 308H567.861C571.043 312.409 572.801 318.02 572.968 324.593C572.968 341.506 564.68 348.319 554.3 351.766L569.536 369H580V308Z" fill="#C81426" fill-opacity="0.2"/>
<path fill-rule="evenodd" clip-rule="evenodd" d="M0 393.817V413.536H13.6454C21.1796 413.536 24.6956 409.047 24.6956 403.356C24.6956 397.264 20.6773 393.817 13.6454 393.817H0V393.817ZM0 446H16.2405L3.76712 431.011H0V446ZM55 385H42.8615C46.0426 389.409 47.8006 395.02 47.968 401.593C47.968 418.506 39.6804 425.319 29.2998 428.766L44.5358 446H55V385Z" fill="#C81426" fill-opacity="0.2"/>
<path fill-rule="evenodd" clip-rule="evenodd" d="M75 393.817V413.536H88.6454C96.1796 413.536 99.6956 409.047 99.6956 403.356C99.6956 397.264 95.6773 393.817 88.6454 393.817H75V393.817ZM75 446H91.2405L78.7671 431.011H75V446ZM130 385H117.861C121.043 389.409 122.801 395.02 122.968 401.593C122.968 418.506 114.68 425.319 104.3 428.766L119.536 446H130V385Z" fill="#C81426" fill-opacity="0.2"/>
<path fill-rule="evenodd" clip-rule="evenodd" d="M150 393.817V413.536H163.645C171.18 413.536 174.696 409.047 174.696 403.356C174.696 397.264 170.677 393.817 163.645 393.817H150V393.817ZM150 446H166.241L153.767 431.011H150V446ZM205 385H192.861C196.043 389.409 197.801 395.02 197.968 401.593C197.968 418.506 189.68 425.319 179.3 428.766L194.536 446H205V385Z" fill="#C81426" fill-opacity="0.2"/>
<path fill-rule="evenodd" clip-rule="evenodd" d="M225 393.817V413.536H238.645C246.18 413.536 249.696 409.047 249.696 403.356C249.696 397.264 245.677 393.817 238.645 393.817H225V393.817ZM225 446H241.241L228.767 431.011H225V446ZM280 385H267.861C271.043 389.409 272.801 395.02 272.968 401.593C272.968 418.506 264.68 425.319 254.3 428.766L269.536 446H280V385Z" fill="#C81426" fill-opacity="0.2"/>
<path fill-rule="evenodd" clip-rule="evenodd" d="M300 393.817V413.536H313.645C321.18 413.536 324.696 409.047 324.696 403.356C324.696 397.264 320.677 393.817 313.645 393.817H300V393.817ZM300 446H316.241L303.767 431.011H300V446ZM355 385H342.861C346.043 389.409 347.801 395.02 347.968 401.593C347.968 418.506 339.68 425.319 329.3 428.766L344.536 446H355V385Z" fill="#C81426" fill-opacity="0.2"/>
<path fill-rule="evenodd" clip-rule="evenodd" d="M375 393.817V413.536H388.645C396.18 413.536 399.696 409.047 399.696 403.356C399.696 397.264 395.677 393.817 388.645 393.817H375V393.817ZM375 446H391.241L378.767 431.011H375V446ZM430 385H417.861C421.043 389.409 422.801 395.02 422.968 401.593C422.968 418.506 414.68 425.319 404.3 428.766L419.536 446H430V385Z" fill="#C81426" fill-opacity="0.2"/>
<path fill-rule="evenodd" clip-rule="evenodd" d="M450 393.817V413.536H463.645C471.18 413.536 474.696 409.047 474.696 403.356C474.696 397.264 470.677 393.817 463.645 393.817H450V393.817ZM450 446H466.241L453.767 431.011H450V446ZM505 385H492.861C496.043 389.409 497.801 395.02 497.968 401.593C497.968 418.506 489.68 425.319 479.3 428.766L494.536 446H505V385Z" fill="#C81426" fill-opacity="0.2"/>
<path fill-rule="evenodd" clip-rule="evenodd" d="M525 393.817V413.536H538.645C546.18 413.536 549.696 409.047 549.696 403.356C549.696 397.264 545.677 393.817 538.645 393.817H525V393.817ZM525 446H541.241L528.767 431.011H525V446ZM580 385H567.861C571.043 389.409 572.801 395.02 572.968 401.593C572.968 418.506 564.68 425.319 554.3 428.766L569.536 446H580V385Z" fill="#C81426" fill-opacity="0.2"/>
</svg>
