<svg width="56" height="56" viewBox="0 0 56 56" fill="none" xmlns="http://www.w3.org/2000/svg">
<circle cx="28" cy="28" r="27.5" fill="white" stroke="#C81426"/>
<mask id="mask0" mask-type="alpha" maskUnits="userSpaceOnUse" x="0" y="0" width="56" height="56">
<circle cx="28" cy="28" r="27.5" fill="white" stroke="#C81426"/>
</mask>
<g mask="url(#mask0)">
<path d="M28 32.5C34.3125 32.5 39.4286 27.24 39.4286 20.75C39.4286 14.26 34.3125 9 28 9C21.6875 9 16.5714 14.26 16.5714 20.75C16.5714 27.24 21.6875 32.5 28 32.5ZM36 35.4375H34.5089C32.5268 36.3738 30.3214 36.9063 28 36.9063C25.6786 36.9063 23.4821 36.3738 21.4911 35.4375H20C13.375 35.4375 8 40.9637 8 47.775V51.5938C8 54.0264 9.91964 56 12.2857 56H43.7143C46.0804 56 48 54.0264 48 51.5938V47.775C48 40.9637 42.625 35.4375 36 35.4375Z" fill="#CFCFCF"/>
<circle cx="28" cy="28" r="27.5" stroke="#C81426"/>
</g>
</svg>
