<svg xmlns="http://www.w3.org/2000/svg" width="32" height="32" fill="none" viewBox="0 0 32 32"><path stroke="#C81426" d="M.5.5h31v31H.5z"/><path fill="#C81426" d="M23.302 10.534l-2.13-2.128a1.376 1.376 0 0 0-1.952 0l-2.294 2.29a1.38 1.38 0 0 0 0 1.956l1.792 1.794a8.107 8.107 0 0 1-1.728 2.546 8.124 8.124 0 0 1-2.544 1.732l-1.792-1.794a1.376 1.376 0 0 0-1.952 0l-2.296 2.29a1.38 1.38 0 0 0 0 1.956l2.128 2.128a2.395 2.395 0 0 0 2.068.666c2.648-.436 5.276-1.846 7.398-3.966 2.12-2.124 3.528-4.752 3.968-7.402a2.384 2.384 0 0 0-.666-2.068zm-.752 1.83c-.39 2.358-1.658 4.71-3.568 6.62-1.91 1.91-4.26 3.178-6.618 3.568a.94.94 0 0 1-.816-.264l-2.09-2.09 2.216-2.218 2.396 2.4.018.018.432-.16a9.625 9.625 0 0 0 5.714-5.716l.16-.432-2.416-2.414 2.216-2.218 2.09 2.09c.216.216.316.52.266.816z"/></svg>