<svg xmlns="http://www.w3.org/2000/svg" width="56" height="56" fill="none" viewBox="0 0 56 56"><circle cx="28" cy="28" r="27.5" fill="#fff" stroke="#C81426"/><mask id="a" width="56" height="56" x="0" y="0" maskUnits="userSpaceOnUse"><circle cx="28" cy="28" r="27.5" fill="#fff" stroke="#C81426"/></mask><g mask="url(#a)"><path fill="#CFCFCF" d="M28 32.5c6.313 0 11.429-5.26 11.429-11.75S34.312 9 28 9c-6.313 0-11.429 5.26-11.429 11.75S21.687 32.5 28 32.5zm8 2.938h-1.491A15.203 15.203 0 0 1 28 36.906c-2.321 0-4.518-.532-6.509-1.468H20c-6.625 0-12 5.526-12 12.337v3.819C8 54.026 9.92 56 12.286 56h31.428C46.08 56 48 54.026 48 51.594v-3.819c0-6.811-5.375-12.337-12-12.337z"/><circle cx="28" cy="28" r="27.5" stroke="#C81426"/></g></svg>