<svg width="24" height="24" viewBox="0 0 24 24" fill="none" xmlns="http://www.w3.org/2000/svg">
<path d="M11.9998 15.9998C11.7661 16.0002 11.5397 15.9189 11.3598 15.7698L5.35979 10.7698C5.15557 10.6 5.02715 10.3561 5.00277 10.0917C4.97839 9.82728 5.06005 9.564 5.22979 9.35979C5.39953 9.15557 5.64344 9.02715 5.90786 9.00277C6.17229 8.97839 6.43557 9.06005 6.63979 9.22979L11.9998 13.7098L17.3598 9.38979C17.4621 9.30672 17.5798 9.24469 17.7061 9.20726C17.8324 9.16983 17.9649 9.15773 18.096 9.17167C18.227 9.18561 18.354 9.22531 18.4696 9.28848C18.5853 9.35166 18.6873 9.43706 18.7698 9.53979C18.8614 9.64261 18.9307 9.76324 18.9735 9.89411C19.0163 10.025 19.0316 10.1633 19.0185 10.3003C19.0053 10.4374 18.964 10.5703 18.8971 10.6906C18.8303 10.811 18.7392 10.9162 18.6298 10.9998L12.6298 15.8298C12.4447 15.9553 12.2229 16.0152 11.9998 15.9998Z" fill="#9F9F9F"/>
</svg>
