<svg xmlns="http://www.w3.org/2000/svg" width="180" height="180" fill="none" viewBox="0 0 180 180"><g stroke="#C81426" opacity=".3"><path d="M95.714 26.23c4.824 1.678 8.839 4.794 12.892 8.05l.643.517c3.823 3.077 7.72 6.214 12.331 8.168 4.765 2.02 10.132 2.527 15.353 3.02 1.031.098 2.056.195 3.069.303 6.198.66 11.991 1.727 16.433 5.653 8.917 7.884 14.511 21.106 12.737 32.828-.903 5.966-5.494 10.21-10.459 14.55l-.665.58c-4.706 4.102-9.59 8.359-11.259 14.263-.917 3.24-.663 6.64.081 10.046.605 2.772 1.545 5.586 2.466 8.342.208.623.415 1.243.616 1.858 1.103 3.362 2.057 6.607 2.269 9.652.212 3.03-.313 5.833-2.146 8.337-3.47 4.741-9.212 5.581-15.776 5.533-1.633-.011-3.304-.077-4.992-.147l-.332-.014a183.5 183.5 0 0 0-4.743-.157c-3.368-.053-6.7.083-9.747.831-4.338 1.066-8.441 2.847-12.479 4.601-.817.355-1.632.709-2.446 1.055-4.854 2.067-9.683 3.884-14.898 4.255-5.672.404-11.653.727-17.353.116-5.697-.611-11.078-2.152-15.564-5.449-4.461-3.279-6.52-8.403-8.325-13.97-.255-.786-.504-1.581-.755-2.379-1.51-4.812-3.068-9.774-6.063-13.766-1.869-2.491-4.342-4.544-7.001-6.402-1.677-1.173-3.454-2.285-5.206-3.382-1.013-.634-2.017-1.262-2.99-1.895-5.375-3.495-9.877-7.168-10.762-12.934-.882-5.744 2.45-10.529 6.613-15.441.62-.732 1.26-1.467 1.903-2.208 1.492-1.718 3.01-3.464 4.37-5.257 1.955-2.576 3.63-5.299 4.515-8.288 1.582-5.335 1.032-11.112.5-16.712-.07-.739-.14-1.474-.205-2.205-.56-6.331-.736-12.341 2.366-17.475 6.226-10.303 18.645-16.152 30.537-18.816 11.388-2.55 23.32.458 34.472 4.338z"/><path d="M94.979 34.21c4.24 1.48 7.772 4.227 11.344 7.104l.568.459c3.368 2.718 6.809 5.494 10.88 7.225 4.209 1.789 8.951 2.238 13.552 2.674.907.086 1.809.172 2.701.267 5.462.583 10.55 1.525 14.449 4.981 7.845 6.955 12.767 18.622 11.206 28.959-.792 5.248-4.819 8.986-9.198 12.823l-.59.516c-4.144 3.622-8.461 7.395-9.937 12.629-.811 2.876-.586 5.891.071 8.905.534 2.453 1.363 4.944 2.175 7.379.183.55.365 1.098.543 1.641.972 2.971 1.81 5.833 1.997 8.516.186 2.668-.275 5.13-1.88 7.329-3.04 4.165-8.071 4.908-13.856 4.866-1.437-.01-2.909-.069-4.397-.131l-.295-.012a162.124 162.124 0 0 0-4.179-.138c-2.97-.047-5.913.073-8.606.736-3.828.943-7.45 2.52-11.008 4.069-.72.314-1.438.626-2.155.932-4.277 1.827-8.524 3.428-13.11 3.756-4.999.356-10.265.641-15.283.102-5.014-.539-9.745-1.898-13.687-4.804-3.915-2.885-5.726-7.396-7.316-12.317-.224-.693-.444-1.394-.665-2.1-1.33-4.252-2.707-8.647-5.352-12.184-1.653-2.208-3.839-4.026-6.184-5.67-1.479-1.037-3.047-2.021-4.593-2.992-.892-.56-1.777-1.115-2.632-1.672-4.737-3.089-8.683-6.323-9.459-11.39-.773-5.049 2.146-9.258 5.816-13.6.545-.646 1.108-1.295 1.674-1.95 1.317-1.518 2.655-3.063 3.857-4.65 1.724-2.279 3.204-4.692 3.988-7.342 1.397-4.727.911-9.843.442-14.791-.062-.653-.123-1.302-.18-1.948-.494-5.596-.646-10.89 2.077-15.408 5.475-9.085 16.4-14.249 26.875-16.6 10.018-2.25 20.519.402 30.347 3.83z"/><path d="M94.22 42.992c3.606 1.262 6.611 3.607 9.662 6.071l.487.394c2.873 2.326 5.818 4.71 9.303 6.195 3.604 1.537 7.666 1.923 11.594 2.296.774.074 1.543.147 2.302.228 4.661.5 8.983 1.304 12.293 4.247 6.681 5.94 10.871 15.906 9.543 24.73-.672 4.464-4.087 7.648-7.829 10.937l-.509.446c-3.532 3.097-7.232 6.341-8.499 10.843-.696 2.479-.502 5.073.06 7.659.457 2.105 1.166 4.241 1.859 6.327.156.471.312.939.463 1.403.83 2.544 1.543 4.986 1.701 7.274.158 2.273-.234 4.363-1.591 6.229-2.572 3.534-6.831 4.172-11.768 4.136a110.017 110.017 0 0 1-3.751-.112l-.251-.01c-1.186-.05-2.384-.1-3.57-.119-2.538-.04-5.057.062-7.366.633-3.274.809-6.373 2.162-9.41 3.489-.615.268-1.227.535-1.838.797-3.65 1.563-7.266 2.93-11.168 3.209-4.267.306-8.757.549-13.033.088-4.272-.46-8.297-1.621-11.648-4.099-3.321-2.455-4.862-6.297-6.22-10.51-.19-.592-.378-1.192-.566-1.796-1.136-3.639-2.314-7.416-4.581-10.455-1.417-1.9-3.29-3.462-5.295-4.871-1.264-.889-2.606-1.734-3.927-2.565-.76-.479-1.515-.954-2.243-1.43-4.044-2.645-7.385-5.398-8.043-9.703-.654-4.287 1.816-7.869 4.949-11.588.464-.551.944-1.106 1.427-1.666 1.124-1.301 2.27-2.627 3.297-3.988 1.474-1.954 2.744-4.028 3.416-6.309 1.197-4.06.78-8.457.38-12.691a254.87 254.87 0 0 1-.154-1.667c-.422-4.792-.548-9.302 1.763-13.15 4.659-7.754 13.962-12.168 22.895-14.18 8.531-1.922 17.478.343 25.866 3.278z"/><path d="M93.398 52.574c2.92 1.025 5.356 2.929 7.841 4.943l.399.324c2.337 1.898 4.744 3.852 7.594 5.071 2.95 1.262 6.275 1.578 9.473 1.883.63.06 1.254.12 1.869.186 3.796.407 7.287 1.063 9.958 3.445 5.421 4.835 8.818 12.945 7.742 20.119-.542 3.608-3.294 6.188-6.345 8.877l-.421.37c-2.871 2.525-5.903 5.191-6.942 8.896-.573 2.044-.412 4.18.047 6.299.373 1.724.953 3.475 1.517 5.179.127.384.254.765.377 1.143.675 2.078 1.252 4.064 1.381 5.92.127 1.842-.19 3.526-1.279 5.028-2.065 2.846-5.488 3.369-9.506 3.34a89.11 89.11 0 0 1-3.051-.091l-.206-.008a108.26 108.26 0 0 0-2.909-.097c-2.068-.033-4.13.05-6.021.519-2.675.663-5.207 1.772-7.68 2.856-.5.219-.998.437-1.494.65-2.971 1.276-5.903 2.387-9.063 2.614-3.475.249-7.123.447-10.596.072-3.47-.375-6.728-1.32-9.44-3.33-2.678-1.987-3.925-5.097-5.031-8.539a162.71 162.71 0 0 1-.46-1.464c-.925-2.972-1.89-6.074-3.745-8.569-1.163-1.564-2.697-2.846-4.333-3.999-1.03-.727-2.127-1.42-3.205-2.1-.619-.391-1.232-.778-1.821-1.165-3.294-2.161-5.98-4.39-6.51-7.863-.525-3.457 1.457-6.353 4.01-9.393.377-.448.766-.9 1.16-1.357.916-1.064 1.852-2.15 2.69-3.265 1.204-1.6 2.244-3.304 2.796-5.182.98-3.335.64-6.944.313-10.4-.043-.457-.086-.91-.125-1.36-.344-3.917-.443-7.573 1.423-10.687 3.774-6.302 11.32-9.899 18.584-11.54 6.919-1.563 14.182.278 21.01 2.675z"/><path d="M92.576 62.156c2.232.787 4.098 2.251 6.018 3.815l.311.254c1.802 1.47 3.671 2.995 5.887 3.947 2.295.986 4.883 1.234 7.352 1.47.484.046.964.092 1.436.143 2.929.316 5.59.823 7.622 2.645 4.16 3.727 6.765 9.983 5.94 15.506-.411 2.753-2.501 4.729-4.861 6.82l-.332.293c-2.209 1.952-4.574 4.041-5.385 6.947-.449 1.61-.321 3.287.035 4.939.289 1.344.739 2.709 1.174 4.031.098.297.196.593.29.885.522 1.611.963 3.14 1.061 4.565.097 1.411-.145 2.69-.966 3.828-1.558 2.157-4.145 2.566-7.244 2.544a68.3 68.3 0 0 1-2.352-.071l-.159-.007c-.744-.031-1.5-.063-2.248-.075-1.6-.025-3.203.039-4.678.406-2.075.517-4.04 1.382-5.95 2.223-.385.17-.768.338-1.149.503-2.293.989-4.54 1.844-6.959 2.018-2.682.194-5.49.347-8.158.057-2.666-.29-5.16-1.018-7.23-2.561-2.036-1.517-2.99-3.898-3.845-6.568-.119-.372-.236-.75-.354-1.132-.712-2.304-1.463-4.731-2.908-6.683-.908-1.227-2.103-2.23-3.37-3.128-.798-.565-1.65-1.105-2.483-1.634-.478-.303-.949-.602-1.4-.9-2.543-1.676-4.575-3.381-4.976-6.023-.398-2.628 1.098-4.839 3.07-7.198.29-.346.589-.695.892-1.048.708-.827 1.435-1.675 2.084-2.542.933-1.246 1.745-2.58 2.176-4.055.763-2.61.498-5.431.246-8.11-.033-.354-.066-.706-.097-1.054-.265-3.039-.336-5.841 1.083-8.223 2.89-4.85 8.678-7.629 14.273-8.899 5.307-1.204 10.886.213 16.154 2.072z"/><path d="M91.572 73.691c1.405.5 2.584 1.431 3.823 2.449l.206.169c1.156.951 2.378 1.957 3.83 2.586 1.507.653 3.208.817 4.798.97.31.03.616.06.915.092 1.885.205 3.546.531 4.809 1.673 2.642 2.387 4.293 6.395 3.771 9.92-.254 1.717-1.547 2.96-3.075 4.326l-.225.2c-1.413 1.259-2.974 2.649-3.51 4.588-.3 1.084-.212 2.204.02 3.291.188.883.482 1.781.763 2.64l.185.57c.336 1.047.614 2.023.675 2.925.061.889-.09 1.677-.59 2.374-.947 1.324-2.526 1.593-4.52 1.579-.49-.004-.994-.024-1.508-.046l-.103-.004a49.638 49.638 0 0 0-1.453-.049c-1.035-.017-2.087.025-3.06.269-1.353.34-2.636.91-3.866 1.456-.247.11-.492.218-.735.324-1.475.642-2.9 1.186-4.424 1.297-1.728.126-3.522.224-5.223.037-1.698-.186-3.27-.652-4.57-1.629-1.262-.948-1.864-2.443-2.414-4.18a72.88 72.88 0 0 1-.226-.729c-.458-1.495-.952-3.104-1.902-4.398-.6-.819-1.387-1.483-2.21-2.071-.517-.37-1.074-.726-1.614-1.072a66.803 66.803 0 0 1-.893-.578c-1.637-1.089-2.883-2.16-3.128-3.794-.244-1.623.667-3.004 1.94-4.54.182-.22.374-.446.568-.674.458-.54.932-1.097 1.354-1.666.607-.817 1.143-1.703 1.43-2.69.5-1.728.326-3.597.164-5.334l-.063-.682c-.17-1.977-.208-3.745.675-5.24 1.826-3.089 5.497-4.878 9.08-5.698 3.365-.77 6.917.133 10.306 1.34z"/></g><path fill="#000" d="M155.755 98.66c-1.444 12.356-6.017 21.903-13.72 28.642-7.648 6.686-17.838 10.029-30.568 10.029-13.8 0-24.871-4.947-33.215-14.842-8.29-9.896-12.436-23.134-12.436-39.715V71.542c0-10.858 1.925-20.406 5.777-28.643 2.394-5.05 5.391-9.377 8.992-12.98a41.139 41.139 0 0 1 7.535-5.954c7.114-4.44 15.351-6.66 24.711-6.66 12.409 0 22.358 3.477 29.846 10.43 7.489 6.9 11.848 16.475 13.078 28.723H140.27c-1.337-9.306-4.252-16.046-8.745-20.218-4.439-4.172-10.671-6.258-18.694-6.258-8.42 0-15.293 2.662-20.62 7.987-.9.899-1.755 1.874-2.566 2.925-5.563 7.274-8.344 17.624-8.344 31.049v11.313c0 12.676 2.647 22.759 7.942 30.247 5.296 7.488 12.704 11.232 22.224 11.232 8.558 0 15.111-1.925 19.657-5.777 4.6-3.904 7.649-10.67 9.146-20.298h15.485z"/><path fill="#000" d="M167.061 45.152c-1.23-12.248-5.589-21.822-13.078-28.722l-11.305 11.305c7.488 6.9 11.847 16.474 13.077 28.723l11.306-11.306z"/><path fill="#000" d="M153.983 16.43C146.495 9.477 136.546 6 124.137 6l-11.305 11.306c12.409 0 22.357 3.476 29.846 10.43l11.305-11.306z"/><path fill="#000" stroke="#C81426" stroke-linejoin="round" d="M167.414 45.506a.5.5 0 0 0-.353-.853h-15.485a.497.497 0 0 0-.353.146l-11.306 11.306a.499.499 0 0 0 .354.853h15.484c.133 0 .26-.052.354-.146l11.305-11.306z"/><path fill="#000" stroke="#C81426" stroke-linejoin="round" d="M151.93 45.506a.502.502 0 0 0 .141-.424c-1.345-9.363-4.289-16.232-8.9-20.514a.5.5 0 0 0-.694.013l-11.305 11.306a.503.503 0 0 0 .013.72c4.375 4.062 7.261 10.672 8.591 19.922a.5.5 0 0 0 .848.283l11.306-11.306z"/><path fill="#000" stroke="#C81426" stroke-linejoin="round" d="M143.185 25.288a.503.503 0 0 0-.012-.718c-4.558-4.284-10.927-6.393-19.036-6.393a.498.498 0 0 0-.353.146L112.478 29.63a.499.499 0 0 0 .354.853c7.937 0 14.031 2.063 18.351 6.123a.5.5 0 0 0 .696-.011l11.306-11.306z"/><path fill="#000" d="M124.137 6c-9.36 0-17.597 2.22-24.711 6.66L88.12 23.964c7.114-4.44 15.351-6.66 24.711-6.66L124.137 6z"/><path fill="#000" stroke="#C81426" stroke-linejoin="round" d="M124.49 19.03a.5.5 0 0 0-.353-.853c-8.536 0-15.542 2.703-20.974 8.133h-.001L91.857 37.615h0a.5.5 0 0 0 .707.708s0 0 0 0c5.222-5.22 11.963-7.84 20.267-7.84a.5.5 0 0 0 .354-.147L124.49 19.03z"/><path fill="#000" d="M99.426 12.66a41.135 41.135 0 00-7.535 5.953L80.6 29.903a41.137 41.137 0 017.52-5.938l11.305-11.306zM100.95 29.588a30.306 30.306 0 012.556-2.915L92.21 37.969a30.35 30.35 0 00-2.566 2.924l11.306-11.305zM167.061 87.354h-15.485L140.271 98.66h15.484l11.306-11.306z"/><path fill="#000" stroke="#C81426" stroke-linejoin="round" d="M83.35 31.808a.502.502 0 0 1-.099.14L71.946 43.252a.5.5 0 0 1-.805-.568c2.416-5.097 5.445-9.473 9.09-13.12h0L91.537 18.26h0a.5.5 0 0 1 .707.707s0 0 0 0l-8.894 12.84zm0 0c2.371-5.003 5.337-9.281 8.892-12.84l-8.892 12.84z"/><path fill="#000" d="M167.061 87.354c-1.444 12.356-6.018 21.903-13.72 28.643l-7.805 7.805a37.177 37.177 0 01-3.5 3.5l3.5-3.5c5.603-6.41 9.009-14.79 10.219-25.142l11.306-11.306zM92.606 60.637c0-13.425 2.781-23.775 8.344-31.05L89.644 40.895C84.082 48.168 81.3 58.517 81.3 71.942l11.306-11.306zM151.576 87.354c-1.498 9.628-4.546 16.394-9.146 20.298l-9.247 9.247a18.278 18.278 0 01-2.059 2.059l2.059-2.059c3.463-4.049 5.826-10.129 7.087-18.24l11.306-11.305z"/><path fill="#000" stroke="#C81426" stroke-linejoin="round" d="M77.475 60.59a.5.5 0 0 0 .147-.354c0-10.798 1.914-20.271 5.73-28.43a.5.5 0 0 0-.807-.566L71.239 42.546a.5.5 0 0 0-.1.142c-3.887 8.314-5.823 17.937-5.823 28.854a.5.5 0 0 0 .853.353L77.475 60.59z"/><path fill="#000" d="M92.606 71.95V60.638L81.3 71.943v11.313L92.606 71.95zM142.429 107.653c-4.546 3.851-11.098 5.776-19.656 5.776l-11.306 11.306c8.558 0 15.11-1.925 19.657-5.777l11.305-11.305z"/><path fill="#000" stroke="#C81426" stroke-linejoin="round" d="M153.694 116.35a.5.5 0 00-.682-.73c-7.536 6.588-17.598 9.905-30.239 9.905a.5.5 0 00-.354.147l-11.305 11.305a.501.501 0 00.353.854c12.82 0 23.136-3.368 30.897-10.152l.025-.023 11.305-11.306zM77.475 71.822a.5.5 0 00.147-.353V60.236a.5.5 0 00-.854-.353L65.462 71.188a.5.5 0 00-.146.354v11.232a.5.5 0 00.853.354l11.306-11.306z"/><path fill="#000" d="M100.549 102.197c-5.296-7.488-7.943-17.57-7.943-30.247L81.3 83.256c0 12.676 2.648 22.759 7.943 30.247l11.306-11.306z"/><path fill="#000" d="M122.773 113.43c-9.521 0-16.929-3.744-22.224-11.233l-11.305 11.306c5.295 7.488 12.703 11.232 22.224 11.232l11.305-11.305z"/><path fill="#000" stroke="#C81426" stroke-linejoin="round" d="M89.91 111.536a.5.5 0 0 0 .03-.674c-8.195-9.783-12.319-22.896-12.319-39.394a.5.5 0 0 0-.853-.353L65.462 82.42a.5.5 0 0 0-.146.354c0 16.664 4.167 30.027 12.552 40.035a.498.498 0 0 0 .737.033l11.306-11.306z"/><path fill="#000" stroke="#C81426" stroke-linejoin="round" d="M123.127 126.379a.5.5 0 0 0-.354-.853c-13.663 0-24.591-4.891-32.833-14.665a.497.497 0 0 0-.736-.031l-11.306 11.305a.5.5 0 0 0-.028.676c8.446 10.016 19.662 15.02 33.598 15.02a.499.499 0 0 0 .353-.146l11.306-11.306z"/><path fill="#C81426" d="M167.061 87.354c-1.445 12.356-6.018 21.903-13.72 28.643-7.649 6.686-17.838 10.029-30.568 10.029-13.8 0-24.872-4.948-33.216-14.843-8.29-9.895-12.435-23.133-12.435-39.714V60.236c0-10.858 1.925-20.405 5.776-28.642 3.905-8.237 9.414-14.549 16.528-18.935C106.54 8.22 114.777 6 124.137 6c12.409 0 22.358 3.477 29.846 10.43 7.488 6.9 11.847 16.474 13.078 28.723h-15.485c-1.337-9.307-4.252-16.046-8.745-20.218-4.44-4.172-10.671-6.258-18.694-6.258-9.842 0-17.571 3.637-23.187 10.91-5.563 7.275-8.344 17.625-8.344 31.05V71.95c0 12.676 2.648 22.759 7.943 30.247 5.295 7.488 12.703 11.232 22.224 11.232 8.558 0 15.11-1.925 19.657-5.776 4.6-3.905 7.648-10.67 9.146-20.299h15.485z"/></svg>