<svg xmlns="http://www.w3.org/2000/svg" width="32" height="32" fill="none" viewBox="0 0 32 32"><path fill="#C81426" fill-rule="evenodd" d="M8 1.81a3.524 3.524 0 0 0-3.524 3.523v21.334A3.524 3.524 0 0 0 8 30.19h16a3.524 3.524 0 0 0 3.524-3.523V11.123a3.524 3.524 0 0 0-1.06-2.52h-.001l-5.92-5.79A3.524 3.524 0 0 0 18.08 1.81H8zM6.72 4.054c.34-.34.8-.53 1.28-.53h9.81V8a3.524 3.524 0 0 0 3.523 3.524h4.476v15.143a1.81 1.81 0 0 1-1.81 1.81H8a1.81 1.81 0 0 1-1.809-1.81V5.333c0-.48.191-.94.53-1.28zM25.245 9.81l-5.721-5.595V8a1.81 1.81 0 0 0 1.81 1.81h3.91zM12 16.476a.857.857 0 0 0 0 1.715h8a.857.857 0 1 0 0-1.715h-8zm-.857 6.19c0-.473.383-.856.857-.856h4a.857.857 0 1 1 0 1.714h-4a.857.857 0 0 1-.857-.857z" clip-rule="evenodd"/></svg>