<svg xmlns="http://www.w3.org/2000/svg" width="32" height="32" fill="none" viewBox="0 0 32 32"><path stroke="#C81426" d="M.5.5h31v31H.5z"/><path fill="#C81426" d="M23.667 8.002a2.06 2.06 0 0 0-.646.154h-.002c-.198.078-1.136.473-2.563 1.071l-5.111 2.153c-3.668 1.544-7.274 3.065-7.274 3.065l.043-.017s-.249.082-.508.26c-.16.102-.299.236-.406.393a1.15 1.15 0 0 0-.192.768c.062.5.386.8.62.966.235.167.459.245.459.245h.005l3.382 1.14c.151.486 1.03 3.375 1.241 4.04.125.398.246.647.398.837.073.097.16.178.262.243.054.03.111.056.17.073l-.034-.008c.01.003.019.01.026.014.028.007.047.01.082.016.535.162.965-.17.965-.17l.025-.02 1.996-1.818 3.346 2.567.076.033c.697.306 1.404.135 1.777-.165.376-.303.522-.69.522-.69l.024-.062 2.586-13.246c.073-.327.092-.633.011-.93-.084-.301-.276-.56-.54-.725-.223-.135-.48-.2-.74-.187zm-.07 1.42c-.002.043.006.038-.013.122v.007L21.022 22.66c-.01.018-.03.06-.08.1-.055.043-.098.07-.323-.02l-4.092-3.137-2.472 2.253.519-3.316 6.686-6.233c.276-.256.184-.31.184-.31.02-.314-.416-.092-.416-.092l-8.432 5.223-.002-.014-4.042-1.36v-.003l-.01-.002a.216.216 0 0 0 .02-.008l.023-.011.021-.008 7.277-3.065 5.11-2.153a565.488 565.488 0 0 1 2.534-1.06c.057-.022.03-.022.07-.022z"/></svg>