<svg xmlns="http://www.w3.org/2000/svg" width="580" height="446" fill="none" viewBox="0 0 580 446"><path fill="#C81426" fill-opacity=".2" fill-rule="evenodd" d="M0 8.817v19.72h13.645c7.535 0 11.05-4.49 11.05-10.18 0-6.093-4.018-9.54-11.05-9.54H0zM0 61h16.24L3.768 46.01H0V61zM55 0H42.861c3.182 4.409 4.94 10.02 5.107 16.593 0 16.913-8.288 23.726-18.668 27.173L44.536 61H55V0zM75 8.817v19.72h13.645c7.535 0 11.05-4.49 11.05-10.18 0-6.093-4.018-9.54-11.05-9.54H75zM75 61h16.24L78.767 46.01H75V61zm55-61h-12.139c3.182 4.409 4.94 10.02 5.107 16.593 0 16.913-8.288 23.726-18.668 27.173L119.536 61H130V0zM150 8.817v19.72h13.645c7.535 0 11.051-4.49 11.051-10.18 0-6.093-4.019-9.54-11.051-9.54H150zM150 61h16.241l-12.474-14.99H150V61zm55-61h-12.139c3.182 4.409 4.94 10.02 5.107 16.593 0 16.913-8.288 23.726-18.668 27.173L194.536 61H205V0zM225 8.817v19.72h13.645c7.535 0 11.051-4.49 11.051-10.18 0-6.093-4.019-9.54-11.051-9.54H225zM225 61h16.241l-12.474-14.99H225V61zm55-61h-12.139c3.182 4.409 4.94 10.02 5.107 16.593 0 16.913-8.288 23.726-18.668 27.173L269.536 61H280V0zM300 8.817v19.72h13.645c7.535 0 11.051-4.49 11.051-10.18 0-6.093-4.019-9.54-11.051-9.54H300zM300 61h16.241l-12.474-14.99H300V61zm55-61h-12.139c3.182 4.409 4.94 10.02 5.107 16.593 0 16.913-8.288 23.726-18.668 27.173L344.536 61H355V0zM375 8.817v19.72h13.645c7.535 0 11.051-4.49 11.051-10.18 0-6.093-4.019-9.54-11.051-9.54H375zM375 61h16.241l-12.474-14.99H375V61zm55-61h-12.139c3.182 4.409 4.94 10.02 5.107 16.593 0 16.913-8.288 23.726-18.668 27.173L419.536 61H430V0zM450 8.817v19.72h13.645c7.535 0 11.051-4.49 11.051-10.18 0-6.093-4.019-9.54-11.051-9.54H450zM450 61h16.241l-12.474-14.99H450V61zm55-61h-12.139c3.182 4.409 4.94 10.02 5.107 16.593 0 16.913-8.288 23.726-18.668 27.173L494.536 61H505V0zM525 8.817v19.72h13.645c7.535 0 11.051-4.49 11.051-10.18 0-6.093-4.019-9.54-11.051-9.54H525zM525 61h16.241l-12.474-14.99H525V61zm55-61h-12.139c3.182 4.409 4.94 10.02 5.107 16.593 0 16.913-8.288 23.726-18.668 27.173L569.536 61H580V0zM0 85.817v19.719h13.645c7.535 0 11.05-4.489 11.05-10.18 0-6.092-4.018-9.539-11.05-9.539H0zM0 138h16.24L3.768 123.011H0V138zm55-61H42.861c3.182 4.409 4.94 10.02 5.107 16.593 0 16.913-8.288 23.726-18.668 27.173L44.536 138H55V77zM75 85.817v19.719h13.645c7.535 0 11.05-4.489 11.05-10.18 0-6.092-4.018-9.539-11.05-9.539H75zM75 138h16.24l-12.473-14.989H75V138zm55-61h-12.139c3.182 4.409 4.94 10.02 5.107 16.593 0 16.913-8.288 23.726-18.668 27.173L119.536 138H130V77zM150 85.817v19.719h13.645c7.535 0 11.051-4.489 11.051-10.18 0-6.092-4.019-9.539-11.051-9.539H150zM150 138h16.241l-12.474-14.989H150V138zm55-61h-12.139c3.182 4.409 4.94 10.02 5.107 16.593 0 16.913-8.288 23.726-18.668 27.173L194.536 138H205V77zM225 85.817v19.719h13.645c7.535 0 11.051-4.489 11.051-10.18 0-6.092-4.019-9.539-11.051-9.539H225zM225 138h16.241l-12.474-14.989H225V138zm55-61h-12.139c3.182 4.409 4.94 10.02 5.107 16.593 0 16.913-8.288 23.726-18.668 27.173L269.536 138H280V77zM300 85.817v19.719h13.645c7.535 0 11.051-4.489 11.051-10.18 0-6.092-4.019-9.539-11.051-9.539H300zM300 138h16.241l-12.474-14.989H300V138zm55-61h-12.139c3.182 4.409 4.94 10.02 5.107 16.593 0 16.913-8.288 23.726-18.668 27.173L344.536 138H355V77zM375 85.817v19.719h13.645c7.535 0 11.051-4.489 11.051-10.18 0-6.092-4.019-9.539-11.051-9.539H375zM375 138h16.241l-12.474-14.989H375V138zm55-61h-12.139c3.182 4.409 4.94 10.02 5.107 16.593 0 16.913-8.288 23.726-18.668 27.173L419.536 138H430V77zM450 85.817v19.719h13.645c7.535 0 11.051-4.489 11.051-10.18 0-6.092-4.019-9.539-11.051-9.539H450zM450 138h16.241l-12.474-14.989H450V138zm55-61h-12.139c3.182 4.409 4.94 10.02 5.107 16.593 0 16.913-8.288 23.726-18.668 27.173L494.536 138H505V77zM525 85.817v19.719h13.645c7.535 0 11.051-4.489 11.051-10.18 0-6.092-4.019-9.539-11.051-9.539H525zM525 138h16.241l-12.474-14.989H525V138zm55-61h-12.139c3.182 4.409 4.94 10.02 5.107 16.593 0 16.913-8.288 23.726-18.668 27.173L569.536 138H580V77zM0 162.817v19.719h13.645c7.535 0 11.05-4.489 11.05-10.18 0-6.092-4.018-9.539-11.05-9.539H0zM0 215h16.24L3.768 200.011H0V215zm55-61H42.861c3.182 4.409 4.94 10.02 5.107 16.593 0 16.913-8.288 23.726-18.668 27.173L44.536 215H55v-61zM75 162.817v19.719h13.645c7.535 0 11.05-4.489 11.05-10.18 0-6.092-4.018-9.539-11.05-9.539H75zM75 215h16.24l-12.473-14.989H75V215zm55-61h-12.139c3.182 4.409 4.94 10.02 5.107 16.593 0 16.913-8.288 23.726-18.668 27.173L119.536 215H130v-61zM150 162.817v19.719h13.645c7.535 0 11.051-4.489 11.051-10.18 0-6.092-4.019-9.539-11.051-9.539H150zM150 215h16.241l-12.474-14.989H150V215zm55-61h-12.139c3.182 4.409 4.94 10.02 5.107 16.593 0 16.913-8.288 23.726-18.668 27.173L194.536 215H205v-61zM225 162.817v19.719h13.645c7.535 0 11.051-4.489 11.051-10.18 0-6.092-4.019-9.539-11.051-9.539H225zM225 215h16.241l-12.474-14.989H225V215zm55-61h-12.139c3.182 4.409 4.94 10.02 5.107 16.593 0 16.913-8.288 23.726-18.668 27.173L269.536 215H280v-61zM300 162.817v19.719h13.645c7.535 0 11.051-4.489 11.051-10.18 0-6.092-4.019-9.539-11.051-9.539H300zM300 215h16.241l-12.474-14.989H300V215zm55-61h-12.139c3.182 4.409 4.94 10.02 5.107 16.593 0 16.913-8.288 23.726-18.668 27.173L344.536 215H355v-61zM375 162.817v19.719h13.645c7.535 0 11.051-4.489 11.051-10.18 0-6.092-4.019-9.539-11.051-9.539H375zM375 215h16.241l-12.474-14.989H375V215zm55-61h-12.139c3.182 4.409 4.94 10.02 5.107 16.593 0 16.913-8.288 23.726-18.668 27.173L419.536 215H430v-61zM450 162.817v19.719h13.645c7.535 0 11.051-4.489 11.051-10.18 0-6.092-4.019-9.539-11.051-9.539H450zM450 215h16.241l-12.474-14.989H450V215zm55-61h-12.139c3.182 4.409 4.94 10.02 5.107 16.593 0 16.913-8.288 23.726-18.668 27.173L494.536 215H505v-61zM525 162.817v19.719h13.645c7.535 0 11.051-4.489 11.051-10.18 0-6.092-4.019-9.539-11.051-9.539H525zM525 215h16.241l-12.474-14.989H525V215zm55-61h-12.139c3.182 4.409 4.94 10.02 5.107 16.593 0 16.913-8.288 23.726-18.668 27.173L569.536 215H580v-61zM0 239.817v19.719h13.645c7.535 0 11.05-4.489 11.05-10.18 0-6.092-4.018-9.539-11.05-9.539H0zM0 292h16.24L3.768 277.011H0V292zm55-61H42.861c3.182 4.409 4.94 10.02 5.107 16.593 0 16.913-8.288 23.726-18.668 27.173L44.536 292H55v-61zM75 239.817v19.719h13.645c7.535 0 11.05-4.489 11.05-10.18 0-6.092-4.018-9.539-11.05-9.539H75zM75 292h16.24l-12.473-14.989H75V292zm55-61h-12.139c3.182 4.409 4.94 10.02 5.107 16.593 0 16.913-8.288 23.726-18.668 27.173L119.536 292H130v-61zM150 239.817v19.719h13.645c7.535 0 11.051-4.489 11.051-10.18 0-6.092-4.019-9.539-11.051-9.539H150zM150 292h16.241l-12.474-14.989H150V292zm55-61h-12.139c3.182 4.409 4.94 10.02 5.107 16.593 0 16.913-8.288 23.726-18.668 27.173L194.536 292H205v-61zM225 239.817v19.719h13.645c7.535 0 11.051-4.489 11.051-10.18 0-6.092-4.019-9.539-11.051-9.539H225zM225 292h16.241l-12.474-14.989H225V292zm55-61h-12.139c3.182 4.409 4.94 10.02 5.107 16.593 0 16.913-8.288 23.726-18.668 27.173L269.536 292H280v-61zM300 239.817v19.719h13.645c7.535 0 11.051-4.489 11.051-10.18 0-6.092-4.019-9.539-11.051-9.539H300zM300 292h16.241l-12.474-14.989H300V292zm55-61h-12.139c3.182 4.409 4.94 10.02 5.107 16.593 0 16.913-8.288 23.726-18.668 27.173L344.536 292H355v-61zM375 239.817v19.719h13.645c7.535 0 11.051-4.489 11.051-10.18 0-6.092-4.019-9.539-11.051-9.539H375zM375 292h16.241l-12.474-14.989H375V292zm55-61h-12.139c3.182 4.409 4.94 10.02 5.107 16.593 0 16.913-8.288 23.726-18.668 27.173L419.536 292H430v-61zM450 239.817v19.719h13.645c7.535 0 11.051-4.489 11.051-10.18 0-6.092-4.019-9.539-11.051-9.539H450zM450 292h16.241l-12.474-14.989H450V292zm55-61h-12.139c3.182 4.409 4.94 10.02 5.107 16.593 0 16.913-8.288 23.726-18.668 27.173L494.536 292H505v-61zM525 239.817v19.719h13.645c7.535 0 11.051-4.489 11.051-10.18 0-6.092-4.019-9.539-11.051-9.539H525zM525 292h16.241l-12.474-14.989H525V292zm55-61h-12.139c3.182 4.409 4.94 10.02 5.107 16.593 0 16.913-8.288 23.726-18.668 27.173L569.536 292H580v-61zM0 316.817v19.719h13.645c7.535 0 11.05-4.489 11.05-10.18 0-6.092-4.018-9.539-11.05-9.539H0zM0 369h16.24L3.768 354.011H0V369zm55-61H42.861c3.182 4.409 4.94 10.02 5.107 16.593 0 16.913-8.288 23.726-18.668 27.173L44.536 369H55v-61zM75 316.817v19.719h13.645c7.535 0 11.05-4.489 11.05-10.18 0-6.092-4.018-9.539-11.05-9.539H75zM75 369h16.24l-12.473-14.989H75V369zm55-61h-12.139c3.182 4.409 4.94 10.02 5.107 16.593 0 16.913-8.288 23.726-18.668 27.173L119.536 369H130v-61zM150 316.817v19.719h13.645c7.535 0 11.051-4.489 11.051-10.18 0-6.092-4.019-9.539-11.051-9.539H150zM150 369h16.241l-12.474-14.989H150V369zm55-61h-12.139c3.182 4.409 4.94 10.02 5.107 16.593 0 16.913-8.288 23.726-18.668 27.173L194.536 369H205v-61zM225 316.817v19.719h13.645c7.535 0 11.051-4.489 11.051-10.18 0-6.092-4.019-9.539-11.051-9.539H225zM225 369h16.241l-12.474-14.989H225V369zm55-61h-12.139c3.182 4.409 4.94 10.02 5.107 16.593 0 16.913-8.288 23.726-18.668 27.173L269.536 369H280v-61zM300 316.817v19.719h13.645c7.535 0 11.051-4.489 11.051-10.18 0-6.092-4.019-9.539-11.051-9.539H300zM300 369h16.241l-12.474-14.989H300V369zm55-61h-12.139c3.182 4.409 4.94 10.02 5.107 16.593 0 16.913-8.288 23.726-18.668 27.173L344.536 369H355v-61zM375 316.817v19.719h13.645c7.535 0 11.051-4.489 11.051-10.18 0-6.092-4.019-9.539-11.051-9.539H375zM375 369h16.241l-12.474-14.989H375V369zm55-61h-12.139c3.182 4.409 4.94 10.02 5.107 16.593 0 16.913-8.288 23.726-18.668 27.173L419.536 369H430v-61zM450 316.817v19.719h13.645c7.535 0 11.051-4.489 11.051-10.18 0-6.092-4.019-9.539-11.051-9.539H450zM450 369h16.241l-12.474-14.989H450V369zm55-61h-12.139c3.182 4.409 4.94 10.02 5.107 16.593 0 16.913-8.288 23.726-18.668 27.173L494.536 369H505v-61zM525 316.817v19.719h13.645c7.535 0 11.051-4.489 11.051-10.18 0-6.092-4.019-9.539-11.051-9.539H525zM525 369h16.241l-12.474-14.989H525V369zm55-61h-12.139c3.182 4.409 4.94 10.02 5.107 16.593 0 16.913-8.288 23.726-18.668 27.173L569.536 369H580v-61zM0 393.817v19.719h13.645c7.535 0 11.05-4.489 11.05-10.18 0-6.092-4.018-9.539-11.05-9.539H0zM0 446h16.24L3.768 431.011H0V446zm55-61H42.861c3.182 4.409 4.94 10.02 5.107 16.593 0 16.913-8.288 23.726-18.668 27.173L44.536 446H55v-61zM75 393.817v19.719h13.645c7.535 0 11.05-4.489 11.05-10.18 0-6.092-4.018-9.539-11.05-9.539H75zM75 446h16.24l-12.473-14.989H75V446zm55-61h-12.139c3.182 4.409 4.94 10.02 5.107 16.593 0 16.913-8.288 23.726-18.668 27.173L119.536 446H130v-61zM150 393.817v19.719h13.645c7.535 0 11.051-4.489 11.051-10.18 0-6.092-4.019-9.539-11.051-9.539H150zM150 446h16.241l-12.474-14.989H150V446zm55-61h-12.139c3.182 4.409 4.94 10.02 5.107 16.593 0 16.913-8.288 23.726-18.668 27.173L194.536 446H205v-61zM225 393.817v19.719h13.645c7.535 0 11.051-4.489 11.051-10.18 0-6.092-4.019-9.539-11.051-9.539H225zM225 446h16.241l-12.474-14.989H225V446zm55-61h-12.139c3.182 4.409 4.94 10.02 5.107 16.593 0 16.913-8.288 23.726-18.668 27.173L269.536 446H280v-61zM300 393.817v19.719h13.645c7.535 0 11.051-4.489 11.051-10.18 0-6.092-4.019-9.539-11.051-9.539H300zM300 446h16.241l-12.474-14.989H300V446zm55-61h-12.139c3.182 4.409 4.94 10.02 5.107 16.593 0 16.913-8.288 23.726-18.668 27.173L344.536 446H355v-61zM375 393.817v19.719h13.645c7.535 0 11.051-4.489 11.051-10.18 0-6.092-4.019-9.539-11.051-9.539H375zM375 446h16.241l-12.474-14.989H375V446zm55-61h-12.139c3.182 4.409 4.94 10.02 5.107 16.593 0 16.913-8.288 23.726-18.668 27.173L419.536 446H430v-61zM450 393.817v19.719h13.645c7.535 0 11.051-4.489 11.051-10.18 0-6.092-4.019-9.539-11.051-9.539H450zM450 446h16.241l-12.474-14.989H450V446zm55-61h-12.139c3.182 4.409 4.94 10.02 5.107 16.593 0 16.913-8.288 23.726-18.668 27.173L494.536 446H505v-61zM525 393.817v19.719h13.645c7.535 0 11.051-4.489 11.051-10.18 0-6.092-4.019-9.539-11.051-9.539H525zM525 446h16.241l-12.474-14.989H525V446zm55-61h-12.139c3.182 4.409 4.94 10.02 5.107 16.593 0 16.913-8.288 23.726-18.668 27.173L569.536 446H580v-61z" clip-rule="evenodd"/></svg>