<svg xmlns="http://www.w3.org/2000/svg" width="32" height="32" fill="none" viewBox="0 0 32 32"><path stroke="#C81426" d="M.5.5h31v31H.5z"/><path fill="#C81426" d="M22.37 9.617A8.91 8.91 0 0 0 16.034 7c-4.935 0-8.957 4.003-8.962 8.917 0 1.574.414 3.105 1.195 4.46L7 25l4.75-1.24a8.997 8.997 0 0 0 4.284 1.086h.004c4.937 0 8.957-4.003 8.962-8.921a8.85 8.85 0 0 0-2.63-6.308zm-6.336 13.72A7.454 7.454 0 0 1 12.24 22.3l-.27-.162-2.82.736.753-2.737-.176-.283a7.355 7.355 0 0 1-1.138-3.943c0-4.079 3.342-7.407 7.448-7.407a7.442 7.442 0 0 1 6.883 4.577c.373.9.565 1.864.562 2.838-.004 4.094-3.346 7.416-7.45 7.416zm4.085-5.552c-.223-.111-1.322-.65-1.529-.726-.206-.074-.356-.112-.503.111-.15.222-.58.727-.708.872-.13.15-.263.166-.486.056-.223-.112-.945-.346-1.8-1.108-.666-.59-1.113-1.322-1.246-1.543-.129-.223-.012-.342.1-.454.098-.099.222-.26.334-.39.113-.127.15-.222.224-.37.073-.151.038-.28-.017-.39-.057-.112-.503-1.211-.692-1.655-.18-.437-.365-.376-.503-.382-.128-.008-.279-.008-.429-.008a.827.827 0 0 0-.598.278c-.206.223-.78.762-.78 1.86 0 1.1.802 2.156.915 2.306.11.15 1.575 2.398 3.823 3.366.53.23.949.367 1.276.47.536.171 1.021.145 1.408.09.43-.065 1.323-.54 1.512-1.06.185-.523.185-.968.129-1.062-.056-.094-.206-.15-.43-.26z"/></svg>